<svg width="122" height="37" viewBox="0 0 122 37" fill="none" xmlns="http://www.w3.org/2000/svg">
<mask id="mask0_95_1357" style="mask-type:luminance" maskUnits="userSpaceOnUse" x="0" y="0" width="27" height="37">
<path d="M0 0H26.1558V36.0773H0V0Z" fill="white"/>
</mask>
<g mask="url(#mask0_95_1357)">
<path d="M10.5294 4.51766C10.6714 3.62623 10.7921 2.77913 10.9487 1.94137C11.0169 1.59834 11.1231 1.2693 11.2673 0.954266C11.3299 0.786247 11.4182 0.636898 11.5334 0.502716C11.6485 0.369702 11.7827 0.262357 11.9359 0.180681C12.089 0.0990054 12.2511 0.0476665 12.4222 0.027831C12.5932 0.00799562 12.7621 0.0208302 12.9286 0.0663353C13.5022 0.180681 14.0713 0.317196 14.6414 0.44671C14.9444 0.507384 15.2519 0.561056 15.5582 0.59606C16.2558 0.656733 16.5443 1.12578 16.3911 1.8492C16.2122 2.67996 16.0736 3.52705 15.9238 4.36947C15.9137 4.51182 15.9137 4.653 15.9238 4.79535C16.3542 4.88403 16.7746 4.9517 17.1838 5.05905C18.3051 5.31108 19.3896 5.68212 20.4372 6.17217C21.1427 6.54088 21.7945 6.99476 22.3915 7.53265C23.4614 8.45325 24.3279 9.54771 24.992 10.8183C25.3173 11.4379 25.5532 12.0925 25.7019 12.7821C25.8506 13.4705 25.9042 14.1682 25.864 14.873C25.864 15.1857 25.8282 15.4949 25.7913 15.8029C25.7757 15.9907 25.7265 16.1669 25.6415 16.3338C25.4984 16.6138 25.4492 16.9113 25.4917 17.2252C25.6616 19.679 25.5185 22.1141 25.0613 24.5282C24.6789 26.5934 23.9712 28.5291 22.9393 30.3365C22.4742 31.1357 21.9599 31.8988 21.3942 32.6234C21.0487 33.0691 20.6653 33.4763 20.2449 33.8462C19.8245 34.2149 19.374 34.5381 18.8932 34.817C18.4136 35.0958 17.9116 35.3245 17.3895 35.5019C16.8674 35.6792 16.3341 35.8041 15.7885 35.8753C14.1484 36.1051 12.5127 36.0701 10.8838 35.7714C9.44046 35.5264 8.06643 35.0608 6.7606 34.3771C6.05625 34.0247 5.39551 33.6 4.77613 33.103C4.15787 32.6071 3.59552 32.0482 3.08906 31.4274C2.58372 30.8079 2.14434 30.1393 1.77316 29.4229C1.40086 28.7065 1.10459 27.9586 0.884345 27.1768C0.47739 25.8712 0.233665 24.534 0.153168 23.163C0.0257149 21.4537 6.63102e-07 19.742 0.0771432 18.0291C0.169938 16.9265 0.336521 15.8367 0.576893 14.7586C0.605961 14.6501 0.620495 14.5404 0.620495 14.4272C0.620495 14.3187 0.586955 14.2219 0.522111 14.1379C0.389068 14.0014 0.287329 13.8415 0.21913 13.6595C0.149814 13.4775 0.119628 13.2885 0.127454 13.0936C0.0927954 12.1882 0.233665 11.3142 0.551179 10.4706C0.912295 9.51854 1.38409 8.62944 1.96546 7.80335C2.77378 6.78591 3.74868 5.98665 4.88681 5.40559C4.97849 5.34841 5.07688 5.30291 5.17191 5.24924C5.9411 4.82219 6.75612 4.54333 7.61923 4.41264C8.48121 4.28196 9.33872 4.30647 10.1929 4.48732C10.3215 4.49432 10.412 4.51766 10.5294 4.51766ZM23.7901 17.5916C23.7174 17.6044 23.6459 17.6219 23.5743 17.6441C22.4384 18.0618 21.269 18.259 20.0649 18.2392C18.389 18.2392 16.7086 18.2007 15.0327 18.1738C13.0706 18.1587 11.1443 17.8821 9.25152 17.3466C7.38668 16.8028 5.56097 16.1436 3.77328 15.3688C3.30148 15.167 2.82297 14.9873 2.34894 14.7854C2.34894 14.8088 2.31204 14.824 2.30869 14.8473C2.08173 15.8636 1.91291 16.8892 1.80111 17.9265C1.71055 19.5891 1.72621 21.2507 1.84807 22.9122C1.92297 24.2972 2.17676 25.6448 2.61167 26.9563C3.64918 30.158 5.78457 32.1929 8.76183 33.3515C9.78481 33.7377 10.838 33.9921 11.9202 34.1134C13.4642 34.3293 14.9936 34.2464 16.5074 33.866C17.0955 33.7144 17.6511 33.481 18.1743 33.1636C18.6987 32.8463 19.1694 32.4601 19.5864 32.0027C20.4819 31.0132 21.2366 29.9176 21.8492 28.7158C22.4619 27.514 22.9102 26.2492 23.1953 24.9202C23.4156 23.8899 23.5844 22.8515 23.7029 21.8025C23.8438 20.4012 23.8728 18.9976 23.7901 17.5916ZM1.85142 12.5219C2.28633 12.7272 2.64744 12.9034 3.01639 13.0784C4.85663 13.9384 6.73935 14.6769 8.6668 15.293C9.62381 15.5905 10.5987 15.8414 11.5882 16.0549C13.1053 16.328 14.6325 16.4458 16.172 16.4096C17.6321 16.4096 19.0933 16.4365 20.5546 16.4365C21.7106 16.3956 22.8174 16.1296 23.8739 15.6395C23.9399 15.608 24.0036 15.5707 24.064 15.5287C24.1881 14.7819 24.1769 14.0375 24.0327 13.2955C23.8885 12.5534 23.6202 11.8626 23.2277 11.2256C22.6944 10.3318 22.0382 9.54887 21.2589 8.87797C20.6418 8.30157 19.9486 7.85352 19.1772 7.53615C17.9396 7.03327 16.6594 6.70423 15.3391 6.54905C15.0842 6.55138 14.8706 6.45454 14.6996 6.25618C14.4044 5.92714 14.2356 5.5386 14.1965 5.08939C14.1763 4.46632 14.2222 3.84908 14.3306 3.23652C14.3899 2.91331 14.448 2.58895 14.5062 2.24591L12.7274 1.8492C12.629 2.34158 12.5195 2.7838 12.458 3.23652C12.3439 4.0486 12.2713 4.86419 12.1617 5.67278C12.1583 5.74279 12.1472 5.8128 12.1282 5.88047C12.1091 5.94815 12.0834 6.01349 12.0499 6.07533C12.0164 6.136 11.9772 6.19317 11.9314 6.24568C11.8855 6.29702 11.8341 6.34369 11.7782 6.38336C11.7223 6.42303 11.6631 6.4557 11.5993 6.48021C11.5356 6.50587 11.4708 6.52338 11.4037 6.53271C11.3366 6.54205 11.2684 6.54321 11.2013 6.53621C11.1342 6.52921 11.0683 6.51521 11.0034 6.49187C10.5842 6.3927 10.1716 6.27485 9.74791 6.21418C8.754 6.02282 7.78022 6.10216 6.82544 6.44987C5.84383 6.85358 4.93824 7.39614 4.10868 8.07755C3.86831 8.28174 3.64918 8.50926 3.45129 8.76012C2.80732 9.60955 2.32769 10.5512 2.01242 11.5838C1.93527 11.8918 1.88161 12.2045 1.85142 12.5219ZM15.5806 23.3614C15.5973 23.247 15.5929 23.1327 15.5671 23.0184C15.5414 22.9052 15.4967 22.8013 15.433 22.7056C15.3693 22.61 15.291 22.5306 15.1971 22.4665C15.1043 22.4035 15.0026 22.3591 14.893 22.3358C14.7834 22.3183 14.6739 22.3229 14.5654 22.3486C14.4558 22.3743 14.3563 22.4198 14.2635 22.4863C14.1719 22.5516 14.0947 22.6333 14.0332 22.7302C13.9706 22.8258 13.927 22.932 13.9036 23.0452C13.8857 23.1175 13.8823 23.1934 13.8599 23.2669C13.8253 23.3847 13.7783 23.4979 13.7213 23.6052C13.4642 24.0218 13.1265 24.3462 12.7095 24.5819C12.4803 24.7219 12.2366 24.758 11.9795 24.6915C11.8173 24.6589 11.6642 24.6029 11.5177 24.5235C11.3713 24.4442 11.2393 24.345 11.1208 24.226C11.0012 24.107 10.9017 23.9728 10.819 23.8246C10.7374 23.6753 10.677 23.5177 10.639 23.3497C10.5909 23.1712 10.5696 22.9693 10.526 22.8048C10.4701 22.533 10.3237 22.3323 10.0878 22.2028C9.95475 22.1234 9.81164 22.0872 9.65847 22.0942C9.50531 22.1012 9.36555 22.1503 9.24034 22.2413C9.09835 22.3404 8.99438 22.4735 8.92841 22.638C8.86133 22.8025 8.84456 22.9728 8.87475 23.1479C8.89264 23.4314 8.94183 23.7091 9.02344 23.9798C9.10394 24.2505 9.21351 24.5083 9.35214 24.7522C9.49189 24.9961 9.65624 25.2201 9.84518 25.4243C10.0352 25.6273 10.2443 25.8058 10.4746 25.9575C10.8178 26.2177 11.198 26.3892 11.6139 26.4721C12.0309 26.5561 12.4445 26.5432 12.856 26.4336C13.1388 26.3449 13.4105 26.2259 13.671 26.0777C13.9304 25.9283 14.1719 25.7521 14.3955 25.5491C14.6191 25.3473 14.8192 25.1221 14.997 24.8747C15.1747 24.6274 15.3245 24.3625 15.4486 24.0825C15.5057 23.8444 15.5493 23.6041 15.5806 23.3614ZM17.0407 22.5038C17.0452 22.6053 17.0697 22.6998 17.1145 22.7897C17.1704 22.9378 17.2598 23.0592 17.3839 23.1525C17.5069 23.2459 17.6444 23.2984 17.7965 23.3077C17.9552 23.3311 18.105 23.3054 18.2481 23.2307C18.3912 23.156 18.5008 23.0464 18.5779 22.9005C18.6473 22.7827 18.6931 22.6555 18.7177 22.519C18.7971 21.9822 18.8776 21.4443 18.929 20.903C18.9446 20.7909 18.9402 20.6801 18.9145 20.5704C18.8876 20.4607 18.8429 20.3592 18.7792 20.2682C18.7155 20.176 18.6372 20.1002 18.5455 20.0407C18.4527 19.9812 18.3532 19.9427 18.2459 19.924C17.8445 19.84 17.4611 20.0839 17.2531 20.6288C17.1212 21.246 17.0496 21.8714 17.0373 22.5038H17.0407ZM8.10444 19.9765C8.11115 19.9275 8.11115 19.8773 8.10444 19.8283C8.08767 19.7327 8.05749 19.6428 8.01165 19.5576C7.96693 19.4725 7.90991 19.3978 7.84171 19.3324C7.77351 19.2671 7.69637 19.2146 7.6114 19.1749C7.52643 19.1364 7.43699 19.1131 7.3442 19.1038C7.25252 19.0956 7.16084 19.1038 7.0714 19.1271C6.98084 19.1516 6.89699 19.1901 6.81985 19.2426C6.74159 19.2963 6.67451 19.3616 6.61861 19.4375C6.56159 19.5145 6.51911 19.5996 6.49004 19.6907C6.45314 19.8097 6.42743 19.9298 6.4129 20.0535C6.35811 20.4339 6.30333 20.8154 6.25302 21.197C6.23066 21.344 6.2206 21.4933 6.22283 21.6427C6.22395 21.7454 6.24184 21.8457 6.27538 21.9426C6.31004 22.0382 6.35923 22.1269 6.42296 22.2051C6.48668 22.2844 6.56159 22.3486 6.64656 22.4C6.73265 22.4513 6.8232 22.4863 6.92047 22.5038C7.02333 22.5155 7.12395 22.5085 7.22345 22.484C7.32295 22.4583 7.41575 22.4163 7.50072 22.3568C7.58569 22.2973 7.65947 22.2249 7.72096 22.1386C7.78134 22.0534 7.82606 21.9589 7.85624 21.8562C7.99935 21.239 8.08208 20.6124 8.10444 19.9765Z" fill="#744C28"/>
</g>
<path d="M46.4708 12.5989C46.5356 12.7786 46.568 12.9805 46.568 13.2056C46.568 13.6105 46.4652 14.0201 46.2606 14.4354C46.056 14.8508 45.7821 15.0597 45.4377 15.0597C45.3729 15.0597 45.2219 15.0258 44.9849 14.9582C44.749 14.8905 44.4852 14.8123 44.1945 14.7225C43.9038 14.6326 43.6131 14.5533 43.3224 14.4868C43.0318 14.4191 42.8003 14.3853 42.6282 14.3853H42.3699C41.6812 14.2056 41.0193 14.0819 40.3832 14.0142C39.7482 13.9466 39.14 13.9139 38.5597 13.9139C38.3864 13.9139 38.2579 13.9862 38.1718 14.1321C38.0857 14.2779 38.0208 14.4529 37.9784 14.6548C37.9348 14.8567 37.9135 15.0702 37.9135 15.2954C37.9135 15.5194 37.9135 15.6991 37.9135 15.8344V16.104C37.9135 16.2393 37.9079 16.4412 37.8967 16.7107C37.8867 16.9802 37.8699 17.2498 37.8487 17.5193C37.8274 17.7888 37.8107 18.0303 37.8006 18.2439C37.7894 18.4574 37.7838 18.5974 37.7838 18.6651L40.1741 18.5974C40.1954 18.5974 40.3295 18.5869 40.5777 18.5647C40.8248 18.5414 41.1211 18.5134 41.4654 18.4796C41.8098 18.4457 42.1597 18.4177 42.5152 18.3955C42.8708 18.3734 43.1559 18.3617 43.3705 18.3617C43.8233 18.3617 44.1565 18.5134 44.3723 18.8168C44.5869 19.1201 44.6942 19.4737 44.6942 19.8785C44.6942 20.2834 44.6249 20.5868 44.4852 20.7886C44.3454 20.9905 44.114 21.1363 43.7909 21.2262C43.4678 21.316 43.0318 21.3837 42.4828 21.4292C41.9339 21.4736 41.2508 21.5412 40.4324 21.6311H39.8186C39.5603 21.6311 39.2697 21.6311 38.9466 21.6311C38.6235 21.6311 38.2579 21.6427 37.8487 21.6649L37.9135 25.0008C37.8923 25.1805 37.8811 25.3496 37.8811 25.5072C37.8811 25.6635 37.8811 25.8327 37.8811 26.0124C37.8811 26.933 37.9884 27.6529 38.2042 28.1698C38.1394 29.2257 37.6765 29.7531 36.8156 29.7531C36.3628 29.7531 36.0129 29.5898 35.7658 29.2642C35.5187 28.9387 35.3354 28.591 35.2169 28.22C35.0984 27.8489 35.0291 27.5175 35.0067 27.2258C34.9855 26.933 34.9743 26.8326 34.9743 26.9225C34.8882 26.4499 34.8245 25.9785 34.7809 25.5072C34.7384 25.0346 34.716 24.5632 34.716 24.0918C34.716 23.7546 34.7216 23.3953 34.7328 23.0126C34.7428 22.631 34.7484 22.2156 34.7484 21.7664C34.7484 21.2262 34.7484 20.6533 34.7484 20.0466C34.7484 19.441 34.7272 18.7888 34.6836 18.0922C34.7484 14.8123 35.1151 12.5091 35.7815 11.1836C35.9112 11.0039 36.4064 10.9141 37.2673 10.9141C38.9253 10.9141 39.7538 10.9246 39.7538 10.9479H39.851C40.1518 10.9479 40.9914 11.1054 42.3699 11.4193C44.2862 11.4415 45.6524 11.8347 46.4708 12.5989Z" fill="#8B6243"/>
<path d="M54.9628 12.7345C55.0064 12.9141 55.0276 13.0822 55.0276 13.2397C55.0276 13.9584 54.823 14.5652 54.4138 15.0599C53.7688 15.3294 53.1225 15.4636 52.4763 15.4636C52.0683 15.1941 51.7284 14.8849 51.4601 14.5372C51.1906 14.1883 51.0553 13.8464 51.0553 13.5092C51.0553 13.2175 51.3784 12.4976 52.0247 11.3518C52.3042 11.3973 52.6004 11.4311 52.9124 11.4533C53.2254 11.4755 53.515 11.5315 53.7844 11.6213C54.0538 11.7112 54.2909 11.8407 54.4955 12.0099C54.7001 12.1779 54.8555 12.4194 54.9628 12.7345ZM53.9297 18.3619V18.8006C53.9297 18.9126 53.9297 19.0363 53.9297 19.1705C53.9297 19.3058 53.9085 19.4295 53.8649 19.5415L53.6066 21.0584V21.3617C53.6066 21.4959 53.5966 21.6768 53.5742 21.9008C53.553 22.126 53.5261 22.35 53.4937 22.5752C53.4613 22.7992 53.4345 23.0128 53.4132 23.2158C53.392 23.4176 53.3808 23.5856 53.3808 23.721C53.3808 23.833 53.3864 23.9228 53.3976 23.9905C53.4076 24.0582 53.4132 24.148 53.4132 24.2601C53.4132 24.4619 53.392 24.6813 53.3484 24.917C53.3059 25.1527 53.2835 25.4175 53.2835 25.7092C53.2835 25.9787 53.316 26.2599 53.3808 26.5516C53.1438 27.5632 52.6485 28.0685 51.895 28.0685C50.8407 28.0685 50.313 27.0347 50.313 24.9683C50.313 24.2717 50.3454 23.5798 50.4103 22.8949C50.4751 22.21 50.55 21.5753 50.6361 20.9907C50.7222 20.4073 50.8139 19.8951 50.9111 19.4575C51.0073 19.0188 51.0878 18.6769 51.1526 18.4296C51.4757 17.9349 51.9274 17.6887 52.5088 17.6887C53.0689 17.6887 53.5429 17.9127 53.9297 18.3619Z" fill="#8B6243"/>
<path d="M70.2693 24.8666V25.1361C70.2693 25.2703 70.2749 25.5118 70.286 25.8607C70.2961 26.2084 70.2648 26.5631 70.1888 26.9225C70.1139 27.2818 69.9685 27.6016 69.7527 27.8827C69.5381 28.1639 69.215 28.304 68.7846 28.304C67.9449 28.304 67.4497 27.9563 67.2987 27.2597C67.32 27.1243 67.3311 26.9726 67.3311 26.8046C67.3311 26.6354 67.3311 26.4499 67.3311 26.2481C67.3311 26.1582 67.3311 25.8269 67.3311 25.254C67.3311 24.6811 67.3144 24.058 67.2831 23.3836C67.2506 22.7092 67.1802 22.0744 67.0729 21.4794C66.9656 20.8843 66.8034 20.5074 66.5888 20.3499C66.0935 19.9906 65.6519 19.8109 65.2639 19.8109C64.7474 19.8109 64.3114 19.9742 63.9559 20.2998C63.6015 20.6253 63.3052 21.26 63.0682 22.204C63.0469 22.519 63.0257 22.8725 63.0033 23.2657C62.9821 23.659 62.9497 24.1023 62.9072 24.5971C62.9072 24.9786 62.9172 25.3998 62.9396 25.8607C62.9609 26.3216 62.9933 26.8431 63.0358 27.4277C63.0358 27.8547 62.8748 28.2083 62.5517 28.4895C62.2286 28.7707 61.863 28.9107 61.4538 28.9107C61.1307 28.9107 60.8724 28.8209 60.679 28.6412C60.4845 28.4615 60.3391 28.2258 60.243 27.9329C60.1457 27.6412 60.0809 27.3262 60.0496 26.9901C60.0171 26.6529 60.0004 26.3157 60.0004 25.9785C60.0004 25.7312 60.0115 25.4792 60.0328 25.2201C60.054 24.9623 60.0865 24.6974 60.1301 24.4279L60.3883 21.1923L60.6466 19.5752C60.603 19.3056 60.5169 19.0139 60.3883 18.6989C60.2586 18.3839 60.1938 18.1377 60.1938 17.958C60.1938 17.5753 60.3391 17.2276 60.6298 16.9125C60.9205 16.5987 61.2816 16.4412 61.712 16.4412C62.0139 16.4412 62.2397 16.503 62.3907 16.6267C62.5405 16.7504 62.7887 17.0479 63.133 17.5193C63.5635 17.3174 63.9078 17.1879 64.1661 17.1319C64.4243 17.0759 64.7262 17.0479 65.0705 17.0479C66.1897 17.0479 67.1746 17.3233 68.0254 17.8728C68.8762 18.4235 69.4084 19.3395 69.6242 20.6195C69.6879 21.092 69.7472 21.4852 69.8019 21.7991C69.8556 22.1141 69.9037 22.4175 69.9462 22.7092C69.9898 23.002 70.0334 23.3101 70.0759 23.6368C70.1195 23.9623 70.1832 24.3719 70.2693 24.8666Z" fill="#8B6243"/>
<path d="M87.287 14.5872C86.9863 14.7225 86.652 14.7902 86.2864 14.7902C86.1791 14.7902 86.0226 14.7785 85.818 14.7564C85.6134 14.733 85.3931 14.705 85.1561 14.6712C84.9191 14.6385 84.6876 14.6047 84.4618 14.5708C84.236 14.537 84.0683 14.5195 83.9609 14.5195C83.2723 14.5195 82.6048 14.621 81.9586 14.8229C82.0883 15.677 82.1956 16.5089 82.2817 17.3175C82.3678 18.1261 82.4438 18.8845 82.5075 19.5927C82.5724 20.2998 82.616 20.9404 82.6372 21.5133C82.6585 22.0862 82.6696 22.5751 82.6696 22.9788C82.6696 23.9904 82.6641 24.8608 82.6529 25.5912C82.6428 26.3216 82.5836 26.9284 82.4751 27.4114C82.3678 27.8945 82.1956 28.248 81.9586 28.472C81.7216 28.6972 81.3772 28.8092 80.9256 28.8092C80.4951 28.8092 80.1776 28.6914 79.973 28.4557C79.7684 28.22 79.6287 27.9388 79.5526 27.6133C79.4777 27.2877 79.4453 26.9447 79.4565 26.5853C79.4666 26.226 79.4721 25.9226 79.4721 25.6752C79.4721 25.2482 79.5046 24.8608 79.5694 24.5131C79.6343 24.1642 79.6667 23.8329 79.6667 23.519C79.6667 23.3615 79.6231 22.7932 79.537 21.8166C79.4509 20.8389 79.4073 19.6091 79.4073 18.1261C79.4073 17.6314 79.3592 17.1436 79.262 16.6606C79.1658 16.1775 79.063 15.7108 78.9556 15.2616L77.0505 15.3958C76.2758 15.4634 75.7369 15.5871 75.4361 15.7668C74.9833 15.7668 74.5965 15.6326 74.2734 15.3631C73.9503 15.0924 73.7893 14.7447 73.7893 14.3177C73.7893 13.8906 73.9715 13.4192 74.3382 12.9023C74.4456 12.8802 74.9297 12.7962 75.7905 12.6491C76.6525 12.5033 77.8902 12.2734 79.5046 11.9584L81.119 11.7565C81.6355 11.6889 82.1308 11.655 82.6048 11.655H83.0889L86.9002 11.9246C87.3519 12.1941 87.5777 12.7005 87.5777 13.4414C87.5777 13.8463 87.4804 14.2278 87.287 14.5872Z" fill="#8B6243"/>
<path d="M99.0407 27.7651C98.7612 27.9669 98.3095 28.1641 97.6845 28.3543C97.0607 28.5456 96.4145 28.709 95.747 28.8432L94.4233 28.5736C94.2299 28.506 93.9124 28.3496 93.4707 28.1023C93.0291 27.8549 92.583 27.478 92.1302 26.9728C91.6786 26.4676 91.2806 25.8153 90.9362 25.0184C90.5908 24.2203 90.4186 23.2484 90.4186 22.1026C90.4186 21.6989 90.5103 21.2217 90.6936 20.6709C90.877 20.1202 91.1509 19.6033 91.5165 19.1203C91.8832 18.6372 92.3404 18.2277 92.8894 17.8905C93.4383 17.5533 94.0789 17.3853 94.8112 17.3853C96.2747 17.3853 97.5984 17.8788 98.7824 18.8671C99.8166 20.3501 100.333 21.9906 100.333 23.7886C100.333 25.1141 99.9026 26.4396 99.0407 27.7651ZM97.4587 22.9789C97.3513 22.1026 97.0875 21.4119 96.6671 20.9066C96.2479 20.4014 95.7146 20.1482 95.0695 20.1482C94.6391 20.1482 94.2355 20.3676 93.8587 20.8051C93.4819 21.2438 93.293 21.8786 93.293 22.7093C93.293 23.0465 93.3366 23.4001 93.4227 23.7711C93.5088 24.1422 93.6485 24.4794 93.8419 24.7827C94.0353 25.0861 94.2835 25.3323 94.5843 25.5236C94.8861 25.715 95.2517 25.8107 95.6833 25.8107C96.372 25.8107 96.8449 25.5913 97.1031 25.1526C97.3614 24.7151 97.4911 24.1702 97.4911 23.5191C97.4911 23.4281 97.4855 23.3441 97.4754 23.2659C97.4643 23.1866 97.4587 23.092 97.4587 22.9789Z" fill="#8B6243"/>
<path d="M113.153 17.1483C113.497 17.3735 113.669 17.8006 113.669 18.4295C113.669 18.9009 113.551 19.3058 113.314 19.643C113.077 19.9802 112.754 20.1482 112.346 20.1482C112.087 20.1482 111.824 20.0758 111.554 19.9288C111.285 19.783 111 19.7106 110.699 19.7106C110.439 19.7106 110.187 19.7608 109.94 19.8623C109.692 19.9627 109.406 20.182 109.083 20.5192L108.115 21.5297C108.115 21.6872 108.121 21.8447 108.131 22.0022C108.142 22.1597 108.148 22.3278 108.148 22.5074C108.148 22.777 108.142 23.0582 108.131 23.3499C108.121 23.6416 108.104 23.9566 108.083 24.2938L108.373 27.3601C108.309 28.3939 107.803 28.9108 106.855 28.9108C106.36 28.9108 105.994 28.7475 105.757 28.4219C105.52 28.0964 105.359 27.6413 105.273 27.0568C105.187 26.4734 105.149 25.7873 105.16 25.0009C105.171 24.2145 105.166 23.3499 105.143 22.4059C105.101 20.9906 105.069 20.2835 105.047 20.2835V20.3174C104.961 19.9802 104.896 19.6826 104.853 19.4236C104.81 19.1657 104.789 18.9347 104.789 18.7329C104.789 18.328 104.929 17.9966 105.208 17.7387C105.489 17.4797 105.897 17.3514 106.436 17.3514C106.78 17.3514 107.189 17.6314 107.662 18.1938C108.158 17.7889 108.54 17.4856 108.809 17.2837C109.078 17.0818 109.305 16.9348 109.487 16.845C109.67 16.7551 109.848 16.705 110.02 16.6933C110.192 16.6828 110.418 16.677 110.699 16.677C110.935 16.6548 111.156 16.6653 111.361 16.7108C111.565 16.7551 111.786 16.8006 112.023 16.845L113.153 17.1483Z" fill="#8B6243"/>
<path d="M121.935 12.7345C121.979 12.9141 122 13.0822 122 13.2397C122 13.9584 121.795 14.5652 121.386 15.0599C120.741 15.3294 120.095 15.4636 119.449 15.4636C119.041 15.1941 118.701 14.8849 118.432 14.5372C118.163 14.1883 118.028 13.8464 118.028 13.5092C118.028 13.2175 118.351 12.4976 118.997 11.3518C119.277 11.3973 119.573 11.4311 119.885 11.4533C120.198 11.4755 120.487 11.5315 120.757 11.6213C121.026 11.7112 121.263 11.8407 121.468 12.0099C121.672 12.1779 121.828 12.4194 121.935 12.7345ZM120.902 18.3619V18.8006C120.902 18.9126 120.902 19.0363 120.902 19.1705C120.902 19.3058 120.881 19.4295 120.837 19.5415L120.579 21.0584V21.3617C120.579 21.4959 120.569 21.6768 120.547 21.9008C120.525 22.126 120.499 22.35 120.466 22.5752C120.434 22.7992 120.407 23.0128 120.386 23.2158C120.364 23.4176 120.353 23.5856 120.353 23.721C120.353 23.833 120.359 23.9228 120.37 23.9905C120.38 24.0582 120.386 24.148 120.386 24.2601C120.386 24.4619 120.364 24.6813 120.321 24.917C120.278 25.1527 120.256 25.4175 120.256 25.7092C120.256 25.9787 120.288 26.2599 120.353 26.5516C120.116 27.5632 119.621 28.0685 118.867 28.0685C117.813 28.0685 117.285 27.0347 117.285 24.9683C117.285 24.2717 117.318 23.5798 117.383 22.8949C117.448 22.21 117.522 21.5753 117.609 20.9907C117.695 20.4073 117.786 19.8951 117.884 19.4575C117.98 19.0188 118.06 18.6769 118.125 18.4296C118.448 17.9349 118.9 17.6887 119.481 17.6887C120.041 17.6887 120.515 17.9127 120.902 18.3619Z" fill="#8B6243"/>
</svg>
