<svg xmlns="http://www.w3.org/2000/svg" xmlns:xlink="http://www.w3.org/1999/xlink" width="883" zoomAndPan="magnify" viewBox="0 0 662.25 269.25" height="359" preserveAspectRatio="xMidYMid meet" version="1.0"><defs><g/><clipPath id="d60c573b91"><path d="M 270 0 L 383.582031 0 L 383.582031 152 L 270 152 Z M 270 0 " clip-rule="nonzero"/></clipPath></defs><g clip-path="url(#d60c573b91)"><path fill="#744c28" d="M 316.078125 19.546875 C 316.703125 15.796875 317.234375 12.238281 317.921875 8.714844 C 318.21875 7.277344 318.683594 5.890625 319.316406 4.566406 C 319.453125 4.21875 319.617188 3.882812 319.816406 3.566406 C 320.011719 3.246094 320.234375 2.949219 320.484375 2.671875 C 320.738281 2.394531 321.011719 2.140625 321.308594 1.914062 C 321.605469 1.683594 321.917969 1.484375 322.253906 1.316406 C 322.585938 1.144531 322.929688 1.003906 323.289062 0.898438 C 323.648438 0.789062 324.011719 0.714844 324.382812 0.675781 C 324.757812 0.632812 325.128906 0.625 325.503906 0.652344 C 325.875 0.679688 326.242188 0.738281 326.605469 0.832031 C 329.121094 1.3125 331.621094 1.890625 334.121094 2.433594 C 335.449219 2.691406 336.796875 2.914062 338.140625 3.058594 C 341.199219 3.316406 342.46875 5.285156 341.792969 8.332031 C 341.007812 11.824219 340.398438 15.378906 339.742188 18.921875 C 339.699219 19.519531 339.699219 20.117188 339.742188 20.714844 C 341.632812 21.082031 343.476562 21.371094 345.269531 21.820312 C 350.191406 22.878906 354.949219 24.441406 359.546875 26.5 C 362.640625 28.050781 365.496094 29.957031 368.117188 32.21875 C 372.808594 36.085938 376.613281 40.691406 379.523438 46.027344 C 380.949219 48.632812 381.988281 51.382812 382.640625 54.28125 C 383.289062 57.179688 383.527344 60.109375 383.351562 63.074219 C 383.351562 64.390625 383.191406 65.6875 383.03125 66.984375 C 382.964844 67.769531 382.746094 68.515625 382.375 69.210938 C 381.746094 70.390625 381.527344 71.640625 381.71875 72.960938 C 382.464844 83.277344 381.835938 93.507812 379.828125 103.65625 C 378.152344 112.339844 375.046875 120.476562 370.519531 128.074219 C 368.484375 131.433594 366.222656 134.636719 363.742188 137.6875 C 362.226562 139.558594 360.546875 141.273438 358.703125 142.824219 C 356.855469 144.375 354.878906 145.734375 352.773438 146.90625 C 350.667969 148.078125 348.46875 149.035156 346.175781 149.785156 C 343.882812 150.53125 341.542969 151.054688 339.152344 151.351562 C 331.957031 152.320312 324.785156 152.175781 317.632812 150.917969 C 311.304688 149.886719 305.277344 147.933594 299.546875 145.054688 C 296.457031 143.578125 293.558594 141.792969 290.84375 139.703125 C 288.132812 137.613281 285.664062 135.265625 283.445312 132.660156 C 281.222656 130.054688 279.296875 127.246094 277.667969 124.234375 C 276.039062 121.222656 274.738281 118.074219 273.769531 114.792969 C 271.984375 109.304688 270.917969 103.679688 270.5625 97.921875 C 270.003906 90.734375 269.890625 83.542969 270.226562 76.339844 C 270.636719 71.707031 271.367188 67.125 272.421875 62.59375 C 272.546875 62.136719 272.613281 61.675781 272.613281 61.199219 C 272.609375 60.746094 272.46875 60.339844 272.183594 59.984375 C 271.59375 59.40625 271.152344 58.738281 270.851562 57.972656 C 270.546875 57.207031 270.414062 56.414062 270.453125 55.59375 C 270.296875 51.789062 270.914062 48.113281 272.308594 44.570312 C 273.894531 40.566406 275.960938 36.828125 278.511719 33.355469 C 282.058594 29.078125 286.332031 25.71875 291.328125 23.277344 C 291.726562 23.039062 292.160156 22.847656 292.578125 22.621094 C 294.25 21.730469 295.992188 20.992188 297.792969 20.398438 C 299.597656 19.808594 301.4375 19.378906 303.3125 19.105469 C 305.191406 18.832031 307.078125 18.722656 308.972656 18.773438 C 310.871094 18.828125 312.746094 19.039062 314.605469 19.417969 C 315.167969 19.449219 315.566406 19.546875 316.078125 19.546875 Z M 374.253906 74.5 C 373.933594 74.554688 373.617188 74.628906 373.308594 74.722656 C 368.324219 76.476562 363.191406 77.308594 357.910156 77.222656 C 350.558594 77.222656 343.1875 77.0625 335.835938 76.949219 C 327.230469 76.882812 318.777344 75.722656 310.472656 73.472656 C 302.292969 71.183594 294.285156 68.414062 286.441406 65.15625 C 284.375 64.308594 282.273438 63.554688 280.191406 62.707031 C 280.191406 62.804688 280.03125 62.867188 280.015625 62.964844 C 279.023438 67.234375 278.28125 71.550781 277.789062 75.910156 C 277.394531 82.898438 277.464844 89.882812 277.996094 96.863281 C 278.324219 102.683594 279.441406 108.351562 281.347656 113.863281 C 285.894531 127.320312 295.269531 135.875 308.324219 140.746094 C 312.816406 142.371094 317.4375 143.4375 322.183594 143.949219 C 328.957031 144.855469 335.664062 144.507812 342.304688 142.910156 C 344.882812 142.273438 347.320312 141.289062 349.617188 139.957031 C 351.914062 138.625 353.980469 136.996094 355.8125 135.074219 C 359.742188 130.917969 363.050781 126.3125 365.738281 121.261719 C 368.425781 116.207031 370.390625 110.890625 371.640625 105.308594 C 372.609375 100.976562 373.351562 96.609375 373.867188 92.203125 C 374.488281 86.3125 374.617188 80.410156 374.253906 74.5 Z M 278.015625 53.191406 C 279.921875 54.054688 281.507812 54.792969 283.125 55.53125 C 291.191406 59.144531 299.453125 62.246094 307.910156 64.835938 C 312.105469 66.085938 316.382812 67.144531 320.726562 68.042969 C 327.378906 69.191406 334.082031 69.6875 340.832031 69.53125 C 347.242188 69.53125 353.648438 69.644531 360.058594 69.644531 C 365.128906 69.472656 369.984375 68.355469 374.621094 66.296875 C 374.910156 66.160156 375.1875 66.007812 375.453125 65.832031 C 375.722656 64.277344 375.847656 62.707031 375.824219 61.128906 C 375.800781 59.550781 375.632812 57.988281 375.320312 56.441406 C 375.003906 54.894531 374.550781 53.390625 373.957031 51.929688 C 373.363281 50.464844 372.640625 49.070312 371.785156 47.742188 C 369.445312 43.984375 366.566406 40.691406 363.148438 37.875 C 360.441406 35.449219 357.398438 33.570312 354.019531 32.234375 C 348.585938 30.117188 342.972656 28.734375 337.179688 28.085938 C 336.644531 28.089844 336.132812 27.984375 335.644531 27.769531 C 335.15625 27.554688 334.734375 27.25 334.375 26.851562 C 333.078125 25.46875 332.339844 23.835938 332.164062 21.949219 C 332.082031 19.332031 332.277344 16.738281 332.757812 14.164062 C 333.015625 12.800781 333.269531 11.4375 333.527344 9.996094 L 325.726562 8.332031 C 325.292969 10.398438 324.8125 12.257812 324.539062 14.164062 C 324.042969 17.574219 323.722656 21.003906 323.242188 24.398438 C 323.226562 24.695312 323.175781 24.988281 323.09375 25.273438 C 323.011719 25.558594 322.898438 25.832031 322.75 26.089844 C 322.605469 26.351562 322.433594 26.589844 322.230469 26.808594 C 322.03125 27.027344 321.804688 27.21875 321.558594 27.386719 C 321.3125 27.554688 321.050781 27.691406 320.773438 27.796875 C 320.496094 27.902344 320.210938 27.976562 319.914062 28.015625 C 319.621094 28.054688 319.324219 28.058594 319.027344 28.03125 C 318.734375 28.003906 318.445312 27.941406 318.164062 27.84375 C 316.320312 27.429688 314.511719 26.929688 312.652344 26.675781 C 308.292969 25.875 304.019531 26.207031 299.835938 27.667969 C 295.523438 29.363281 291.550781 31.644531 287.914062 34.507812 C 286.855469 35.367188 285.894531 36.324219 285.03125 37.378906 C 282.203125 40.949219 280.097656 44.90625 278.71875 49.25 C 278.382812 50.542969 278.144531 51.859375 278.015625 53.191406 Z M 338.238281 98.753906 C 338.3125 98.269531 338.292969 97.789062 338.179688 97.3125 C 338.070312 96.835938 337.875 96.398438 337.59375 95.996094 C 337.3125 95.597656 336.96875 95.261719 336.558594 94.992188 C 336.148438 94.726562 335.703125 94.542969 335.226562 94.445312 C 334.742188 94.371094 334.261719 94.386719 333.785156 94.496094 C 333.308594 94.605469 332.867188 94.796875 332.464844 95.074219 C 332.0625 95.351562 331.722656 95.691406 331.449219 96.097656 C 331.175781 96.503906 330.988281 96.945312 330.882812 97.425781 C 330.804688 97.730469 330.789062 98.050781 330.691406 98.355469 C 330.539062 98.851562 330.335938 99.324219 330.082031 99.78125 C 328.953125 101.527344 327.476562 102.894531 325.644531 103.882812 C 324.640625 104.472656 323.570312 104.625 322.441406 104.347656 C 321.730469 104.207031 321.058594 103.96875 320.417969 103.636719 C 319.777344 103.304688 319.195312 102.886719 318.675781 102.386719 C 318.152344 101.886719 317.710938 101.324219 317.351562 100.699219 C 316.992188 100.074219 316.730469 99.410156 316.5625 98.707031 C 316.351562 97.953125 316.257812 97.105469 316.0625 96.414062 C 315.949219 95.871094 315.722656 95.378906 315.386719 94.933594 C 315.050781 94.492188 314.632812 94.140625 314.140625 93.882812 C 313.558594 93.550781 312.929688 93.398438 312.261719 93.429688 C 311.589844 93.457031 310.976562 93.664062 310.425781 94.042969 C 310.121094 94.25 309.851562 94.496094 309.617188 94.777344 C 309.386719 95.0625 309.199219 95.375 309.054688 95.710938 C 308.914062 96.050781 308.824219 96.402344 308.78125 96.769531 C 308.742188 97.132812 308.757812 97.496094 308.824219 97.855469 C 308.902344 99.046875 309.117188 100.214844 309.472656 101.351562 C 309.828125 102.492188 310.308594 103.574219 310.917969 104.601562 C 311.527344 105.625 312.25 106.566406 313.082031 107.421875 C 313.910156 108.277344 314.832031 109.027344 315.839844 109.664062 C 316.582031 110.203125 317.378906 110.65625 318.21875 111.023438 C 319.0625 111.386719 319.9375 111.65625 320.839844 111.828125 C 321.742188 112.003906 322.652344 112.074219 323.570312 112.046875 C 324.488281 112.019531 325.394531 111.894531 326.285156 111.667969 C 327.53125 111.296875 328.722656 110.796875 329.859375 110.167969 C 331 109.542969 332.058594 108.804688 333.039062 107.953125 C 334.019531 107.097656 334.898438 106.152344 335.679688 105.113281 C 336.457031 104.074219 337.117188 102.964844 337.660156 101.78125 C 337.910156 100.785156 338.101562 99.773438 338.238281 98.753906 Z M 344.644531 95.148438 C 344.664062 95.574219 344.773438 95.972656 344.964844 96.351562 C 345.210938 96.972656 345.605469 97.480469 346.148438 97.875 C 346.6875 98.269531 347.292969 98.488281 347.960938 98.53125 C 348.300781 98.578125 348.640625 98.570312 348.976562 98.515625 C 349.3125 98.460938 349.636719 98.355469 349.941406 98.203125 C 350.246094 98.050781 350.523438 97.855469 350.769531 97.617188 C 351.019531 97.382812 351.222656 97.113281 351.390625 96.816406 C 351.691406 96.320312 351.894531 95.785156 352 95.214844 C 352.351562 92.953125 352.703125 90.695312 352.929688 88.421875 C 353 87.949219 352.976562 87.484375 352.863281 87.019531 C 352.75 86.558594 352.550781 86.136719 352.273438 85.75 C 351.992188 85.367188 351.648438 85.046875 351.242188 84.796875 C 350.839844 84.546875 350.402344 84.382812 349.933594 84.304688 C 348.171875 83.949219 346.488281 84.976562 345.574219 87.265625 C 345 89.863281 344.683594 92.492188 344.628906 95.148438 Z M 305.441406 84.527344 C 305.472656 84.320312 305.472656 84.109375 305.441406 83.902344 C 305.371094 83.5 305.234375 83.121094 305.039062 82.765625 C 304.839844 82.40625 304.589844 82.09375 304.289062 81.816406 C 303.988281 81.542969 303.652344 81.324219 303.277344 81.160156 C 302.90625 80.996094 302.515625 80.894531 302.109375 80.859375 C 301.703125 80.824219 301.304688 80.855469 300.910156 80.957031 C 300.515625 81.054688 300.148438 81.21875 299.808594 81.441406 C 299.464844 81.664062 299.171875 81.9375 298.925781 82.261719 C 298.675781 82.585938 298.488281 82.941406 298.359375 83.324219 C 298.199219 83.824219 298.085938 84.328125 298.023438 84.847656 C 297.785156 86.449219 297.542969 88.050781 297.320312 89.65625 C 297.21875 90.277344 297.179688 90.898438 297.191406 91.527344 C 297.195312 91.960938 297.269531 92.382812 297.421875 92.789062 C 297.570312 93.195312 297.785156 93.5625 298.066406 93.894531 C 298.34375 94.222656 298.671875 94.496094 299.046875 94.714844 C 299.421875 94.929688 299.824219 95.074219 300.25 95.148438 C 300.699219 95.199219 301.140625 95.167969 301.578125 95.0625 C 302.015625 94.957031 302.421875 94.777344 302.792969 94.53125 C 303.167969 94.28125 303.492188 93.976562 303.757812 93.613281 C 304.027344 93.253906 304.222656 92.855469 304.351562 92.425781 C 304.984375 89.832031 305.347656 87.199219 305.441406 84.527344 Z M 305.441406 84.527344 " fill-opacity="1" fill-rule="nonzero"/></g><g fill="#8b6243" fill-opacity="1"><g transform="translate(56.367059, 233.299896)"><g><path d="M 40.859375 -26.265625 C 40.859375 -26.703125 40.878906 -27.140625 40.921875 -27.578125 C 40.960938 -28.015625 40.984375 -28.472656 40.984375 -28.953125 C 40.984375 -29.710938 40.90625 -30.472656 40.75 -31.234375 C 40.78125 -31.390625 40.796875 -31.664062 40.796875 -32.0625 C 40.796875 -32.863281 40.707031 -33.734375 40.53125 -34.671875 C 40.351562 -35.609375 40.203125 -36.535156 40.078125 -37.453125 C 39.523438 -38.128906 38.789062 -38.46875 37.875 -38.46875 C 37 -38.46875 36.289062 -38.265625 35.75 -37.859375 C 35.207031 -37.460938 34.9375 -36.867188 34.9375 -36.078125 C 34.9375 -35.597656 34.957031 -35.085938 35 -34.546875 C 35.039062 -34.015625 35.082031 -33.523438 35.125 -33.078125 C 35.28125 -32.765625 35.359375 -32.195312 35.359375 -31.375 C 35.359375 -30.5625 35.4375 -29.875 35.59375 -29.3125 C 35.476562 -28.632812 35.421875 -28.019531 35.421875 -27.46875 C 35.421875 -27.144531 35.429688 -26.890625 35.453125 -26.703125 C 35.472656 -26.523438 35.488281 -26.359375 35.5 -26.203125 C 35.519531 -26.046875 35.539062 -25.882812 35.5625 -25.71875 C 35.582031 -25.5625 35.59375 -25.34375 35.59375 -25.0625 C 35.59375 -23.832031 35.5625 -22.875 35.5 -22.1875 C 35.445312 -21.507812 35.378906 -20.953125 35.296875 -20.515625 C 35.210938 -20.078125 35.140625 -19.6875 35.078125 -19.34375 C 35.023438 -19.007812 35 -18.582031 35 -18.0625 C 35 -17.507812 35.21875 -16.953125 35.65625 -16.390625 C 36.09375 -15.835938 36.789062 -15.5625 37.75 -15.5625 C 38.351562 -15.5625 38.84375 -15.757812 39.21875 -16.15625 C 39.59375 -16.550781 39.878906 -17.066406 40.078125 -17.703125 C 40.285156 -18.347656 40.425781 -19.035156 40.5 -19.765625 C 40.582031 -20.503906 40.625 -21.210938 40.625 -21.890625 C 40.707031 -22.210938 40.785156 -22.679688 40.859375 -23.296875 C 40.941406 -23.921875 40.984375 -24.507812 40.984375 -25.0625 C 40.984375 -25.257812 40.972656 -25.457031 40.953125 -25.65625 C 40.929688 -25.863281 40.898438 -26.066406 40.859375 -26.265625 Z M 25.484375 -21.59375 C 24.847656 -21.757812 24.21875 -21.898438 23.59375 -22.015625 C 22.976562 -22.140625 22.410156 -22.238281 21.890625 -22.3125 C 21.972656 -22.71875 22.046875 -23.21875 22.109375 -23.8125 C 22.171875 -24.40625 22.226562 -25.039062 22.28125 -25.71875 C 22.34375 -26.40625 22.382812 -27.066406 22.40625 -27.703125 C 22.425781 -28.335938 22.4375 -28.894531 22.4375 -29.375 L 22.4375 -30.21875 C 23.675781 -30.53125 24.570312 -30.816406 25.125 -31.078125 C 25.6875 -31.335938 25.96875 -31.828125 25.96875 -32.546875 C 25.96875 -33.265625 25.863281 -33.832031 25.65625 -34.25 C 25.457031 -34.664062 25.207031 -34.972656 24.90625 -35.171875 C 24.613281 -35.378906 24.285156 -35.507812 23.921875 -35.5625 C 23.566406 -35.625 23.234375 -35.65625 22.921875 -35.65625 C 21.640625 -35.65625 20.539062 -35.59375 19.625 -35.46875 C 18.707031 -35.351562 17.878906 -35.234375 17.140625 -35.109375 C 16.398438 -34.992188 15.71875 -34.875 15.09375 -34.75 C 14.476562 -34.632812 13.832031 -34.578125 13.15625 -34.578125 C 12.675781 -34.578125 11.988281 -34.566406 11.09375 -34.546875 C 10.195312 -34.523438 9.488281 -34.457031 8.96875 -34.34375 C 8.894531 -34.34375 8.796875 -34.351562 8.671875 -34.375 C 8.554688 -34.394531 8.414062 -34.40625 8.25 -34.40625 C 7.65625 -34.40625 7.109375 -34.40625 6.609375 -34.40625 C 6.109375 -34.40625 5.660156 -34.320312 5.265625 -34.15625 C 4.867188 -34 4.5 -33.738281 4.15625 -33.375 C 3.820312 -33.019531 3.535156 -32.460938 3.296875 -31.703125 C 3.171875 -31.347656 3.109375 -31.03125 3.109375 -30.75 C 3.109375 -30.226562 3.238281 -29.828125 3.5 -29.546875 C 3.757812 -29.273438 4.085938 -29.066406 4.484375 -28.921875 C 4.878906 -28.785156 5.285156 -28.695312 5.703125 -28.65625 C 6.128906 -28.613281 6.519531 -28.59375 6.875 -28.59375 C 7.039062 -28.59375 7.203125 -28.601562 7.359375 -28.625 C 7.515625 -28.644531 7.675781 -28.65625 7.84375 -28.65625 C 7.914062 -27.78125 8.007812 -26.660156 8.125 -25.296875 C 8.25 -23.941406 8.394531 -22.6875 8.5625 -21.53125 C 6.882812 -21.289062 5.585938 -21.019531 4.671875 -20.71875 C 3.753906 -20.425781 3.296875 -19.84375 3.296875 -18.96875 C 3.296875 -18.40625 3.382812 -17.929688 3.5625 -17.546875 C 3.738281 -17.171875 3.9375 -16.863281 4.15625 -16.625 C 4.375 -16.382812 4.59375 -16.207031 4.8125 -16.09375 C 5.03125 -15.976562 5.203125 -15.921875 5.328125 -15.921875 C 5.640625 -15.921875 6.082031 -15.9375 6.65625 -15.96875 C 7.238281 -16.007812 7.835938 -16.0625 8.453125 -16.125 C 9.078125 -16.1875 9.648438 -16.242188 10.171875 -16.296875 C 10.691406 -16.359375 11.050781 -16.429688 11.25 -16.515625 C 11.363281 -16.472656 11.539062 -16.453125 11.78125 -16.453125 C 12.539062 -16.453125 13.195312 -16.476562 13.75 -16.53125 C 14.3125 -16.59375 14.851562 -16.65625 15.375 -16.71875 C 15.894531 -16.78125 16.429688 -16.835938 16.984375 -16.890625 C 17.546875 -16.953125 18.1875 -16.984375 18.90625 -16.984375 C 19.46875 -16.984375 20.015625 -16.941406 20.546875 -16.859375 C 21.085938 -16.785156 21.894531 -16.75 22.96875 -16.75 C 23.53125 -16.75 23.988281 -16.75 24.34375 -16.75 C 24.707031 -16.75 25.023438 -16.804688 25.296875 -16.921875 C 25.578125 -17.046875 25.804688 -17.265625 25.984375 -17.578125 C 26.171875 -17.898438 26.363281 -18.363281 26.5625 -18.96875 C 26.6875 -19.25 26.75 -19.523438 26.75 -19.796875 C 26.75 -20.515625 26.328125 -21.113281 25.484375 -21.59375 Z M 33.625 2.390625 C 34.457031 1.515625 34.875 0.71875 34.875 0 C 34.875 -0.5625 34.65625 -1.082031 34.21875 -1.5625 C 33.78125 -2.039062 33.382812 -2.394531 33.03125 -2.625 C 32.3125 -2.507812 31.671875 -2.421875 31.109375 -2.359375 C 30.546875 -2.304688 30.035156 -2.25 29.578125 -2.1875 C 29.117188 -2.125 28.691406 -2.082031 28.296875 -2.0625 C 27.898438 -2.039062 27.460938 -2.03125 26.984375 -2.03125 C 26.347656 -2.03125 25.597656 -2.03125 24.734375 -2.03125 C 23.878906 -2.03125 23.15625 -2.050781 22.5625 -2.09375 C 22.394531 -2.769531 22.332031 -3.414062 22.375 -4.03125 C 22.414062 -4.65625 22.394531 -5.425781 22.3125 -6.34375 L 22.3125 -7.421875 C 22.3125 -7.898438 22.289062 -8.425781 22.25 -9 C 22.21875 -9.582031 22.160156 -10.132812 22.078125 -10.65625 C 20.835938 -11.332031 19.859375 -11.671875 19.140625 -11.671875 C 18.785156 -11.671875 18.457031 -11.597656 18.15625 -11.453125 C 17.851562 -11.316406 17.582031 -11.066406 17.34375 -10.703125 C 17.101562 -10.347656 16.914062 -9.847656 16.78125 -9.203125 C 16.644531 -8.566406 16.578125 -7.734375 16.578125 -6.703125 C 16.578125 -5.585938 16.625 -4.648438 16.71875 -3.890625 C 16.820312 -3.128906 16.953125 -2.25 17.109375 -1.25 C 17.023438 -0.851562 16.984375 -0.554688 16.984375 -0.359375 C 16.984375 0.796875 17.40625 1.953125 18.25 3.109375 C 18.726562 3.234375 19.222656 3.34375 19.734375 3.4375 C 20.253906 3.539062 20.734375 3.59375 21.171875 3.59375 C 21.410156 3.59375 21.691406 3.550781 22.015625 3.46875 C 22.410156 3.507812 22.867188 3.550781 23.390625 3.59375 C 23.910156 3.632812 24.429688 3.65625 24.953125 3.65625 C 26.109375 3.65625 27.101562 3.625 27.9375 3.5625 C 28.78125 3.5 29.53125 3.414062 30.1875 3.3125 C 30.84375 3.21875 31.4375 3.085938 31.96875 2.921875 C 32.507812 2.765625 33.0625 2.585938 33.625 2.390625 Z M 16.984375 -29.5 C 16.984375 -28.101562 16.921875 -26.882812 16.796875 -25.84375 C 16.679688 -24.8125 16.566406 -23.632812 16.453125 -22.3125 C 15.972656 -22.269531 15.523438 -22.238281 15.109375 -22.21875 C 14.691406 -22.207031 14.300781 -22.203125 13.9375 -22.203125 C 13.851562 -22.597656 13.800781 -23.070312 13.78125 -23.625 C 13.769531 -24.1875 13.742188 -24.773438 13.703125 -25.390625 C 13.660156 -26.015625 13.617188 -26.632812 13.578125 -27.25 C 13.535156 -27.863281 13.476562 -28.453125 13.40625 -29.015625 C 13.800781 -29.015625 14.359375 -29.09375 15.078125 -29.25 C 15.796875 -29.414062 16.296875 -29.5 16.578125 -29.5 Z M 16.984375 -29.5 "/></g></g></g><g fill="#8b6243" fill-opacity="1"><g transform="translate(105.43035, 233.299896)"><g><path d="M 22.140625 -30.9375 C 22.179688 -31.25 22.21875 -31.535156 22.25 -31.796875 C 22.289062 -32.054688 22.332031 -32.285156 22.375 -32.484375 C 23.6875 -32.640625 24.910156 -32.796875 26.046875 -32.953125 C 27.191406 -33.117188 28.519531 -33.28125 30.03125 -33.4375 C 30.707031 -33.800781 31.046875 -34.519531 31.046875 -35.59375 C 31.046875 -37.707031 30.367188 -38.804688 29.015625 -38.890625 L 27.15625 -38.59375 C 26.914062 -38.550781 26.695312 -38.519531 26.5 -38.5 C 26.300781 -38.476562 26.101562 -38.46875 25.90625 -38.46875 C 25.625 -38.46875 25.328125 -38.507812 25.015625 -38.59375 C 24.648438 -38.507812 24.316406 -38.414062 24.015625 -38.3125 C 23.722656 -38.21875 23.054688 -38.171875 22.015625 -38.171875 C 21.492188 -37.890625 20.804688 -37.695312 19.953125 -37.59375 C 19.097656 -37.5 18.332031 -37.289062 17.65625 -36.96875 C 17.613281 -36.8125 17.539062 -36.5625 17.4375 -36.21875 C 17.34375 -35.882812 17.234375 -35.488281 17.109375 -35.03125 C 16.992188 -34.570312 16.894531 -34.101562 16.8125 -33.625 C 16.726562 -33.144531 16.6875 -32.707031 16.6875 -32.3125 C 16.6875 -31.75 16.726562 -31.226562 16.8125 -30.75 C 16.894531 -30.269531 16.9375 -29.753906 16.9375 -29.203125 C 16.9375 -27.679688 16.863281 -26.140625 16.71875 -24.578125 C 16.582031 -23.023438 16.515625 -21.65625 16.515625 -20.46875 C 16.515625 -19.582031 16.832031 -18.644531 17.46875 -17.65625 C 17.988281 -17.414062 18.5 -17.179688 19 -16.953125 C 19.5 -16.734375 19.945312 -16.625 20.34375 -16.625 C 20.382812 -16.625 20.421875 -16.632812 20.453125 -16.65625 C 20.492188 -16.675781 20.554688 -16.6875 20.640625 -16.6875 L 21.59375 -16.515625 C 21.59375 -16.390625 21.582031 -16.265625 21.5625 -16.140625 C 21.539062 -16.023438 21.53125 -15.890625 21.53125 -15.734375 C 21.53125 -15.378906 21.550781 -15.019531 21.59375 -14.65625 C 21.632812 -14.300781 21.695312 -13.984375 21.78125 -13.703125 L 21.78125 -13.21875 C 21.78125 -12.90625 21.789062 -12.609375 21.8125 -12.328125 C 21.832031 -12.046875 21.84375 -11.707031 21.84375 -11.3125 C 21.4375 -11.269531 20.722656 -11.238281 19.703125 -11.21875 C 18.691406 -11.195312 17.65625 -11.175781 16.59375 -11.15625 C 15.539062 -11.132812 14.601562 -11.125 13.78125 -11.125 C 12.96875 -11.125 12.5625 -11.125 12.5625 -11.125 C 11.882812 -10.96875 11.15625 -10.898438 10.375 -10.921875 C 9.601562 -10.941406 8.882812 -10.890625 8.21875 -10.765625 C 7.5625 -10.648438 7.023438 -10.390625 6.609375 -9.984375 C 6.191406 -9.585938 5.984375 -8.890625 5.984375 -7.890625 C 5.984375 -7.097656 6.28125 -6.5 6.875 -6.09375 C 7.476562 -5.695312 8.578125 -5.5 10.171875 -5.5 L 12.859375 -5.6875 C 13.097656 -5.644531 13.347656 -5.625 13.609375 -5.625 C 13.867188 -5.625 14.140625 -5.625 14.421875 -5.625 C 14.972656 -5.625 15.488281 -5.632812 15.96875 -5.65625 C 16.445312 -5.675781 16.769531 -5.6875 16.9375 -5.6875 C 17.050781 -5.644531 17.207031 -5.625 17.40625 -5.625 C 17.601562 -5.625 17.820312 -5.625 18.0625 -5.625 C 18.539062 -5.625 19.0625 -5.632812 19.625 -5.65625 C 20.1875 -5.675781 20.710938 -5.703125 21.203125 -5.734375 C 21.703125 -5.773438 22.140625 -5.816406 22.515625 -5.859375 C 22.898438 -5.898438 23.171875 -5.941406 23.328125 -5.984375 C 23.566406 -5.941406 24.035156 -5.898438 24.734375 -5.859375 C 25.429688 -5.816406 26.140625 -5.785156 26.859375 -5.765625 C 27.578125 -5.753906 28.222656 -5.738281 28.796875 -5.71875 C 29.378906 -5.695312 29.691406 -5.6875 29.734375 -5.6875 L 30.8125 -5.6875 C 31.84375 -5.6875 32.785156 -5.632812 33.640625 -5.53125 C 34.503906 -5.4375 35.21875 -5.390625 35.78125 -5.390625 C 36.0625 -5.390625 36.257812 -5.40625 36.375 -5.4375 C 36.570312 -5.40625 36.859375 -5.367188 37.234375 -5.328125 C 37.617188 -5.285156 38.019531 -5.242188 38.4375 -5.203125 C 38.851562 -5.160156 39.28125 -5.128906 39.71875 -5.109375 C 40.164062 -5.085938 40.566406 -5.078125 40.921875 -5.078125 C 41.796875 -5.078125 42.382812 -5.316406 42.6875 -5.796875 C 42.988281 -6.273438 43.140625 -6.914062 43.140625 -7.71875 C 43.140625 -8.59375 42.847656 -9.25 42.265625 -9.6875 C 41.691406 -10.125 40.90625 -10.429688 39.90625 -10.609375 C 38.90625 -10.796875 37.726562 -10.898438 36.375 -10.921875 C 35.019531 -10.941406 33.582031 -10.988281 32.0625 -11.0625 L 27.28125 -11.3125 C 27.28125 -11.664062 27.289062 -12.03125 27.3125 -12.40625 C 27.332031 -12.789062 27.34375 -13.144531 27.34375 -13.46875 L 27.34375 -13.875 C 27.34375 -14.039062 27.351562 -14.210938 27.375 -14.390625 C 27.394531 -14.566406 27.40625 -14.753906 27.40625 -14.953125 C 27.40625 -15.148438 27.394531 -15.335938 27.375 -15.515625 C 27.351562 -15.703125 27.34375 -15.894531 27.34375 -16.09375 C 28.175781 -16.09375 28.984375 -16.238281 29.765625 -16.53125 C 30.546875 -16.832031 31.375 -17.046875 32.25 -17.171875 C 33.082031 -18.003906 33.5 -18.78125 33.5 -19.5 C 33.5 -20.0625 33.25 -20.59375 32.75 -21.09375 C 32.257812 -21.59375 31.894531 -21.921875 31.65625 -22.078125 C 31.207031 -22.078125 30.675781 -22.035156 30.0625 -21.953125 C 29.445312 -21.878906 28.976562 -21.820312 28.65625 -21.78125 C 28.5 -21.820312 28.347656 -21.84375 28.203125 -21.84375 C 28.066406 -21.84375 27.9375 -21.84375 27.8125 -21.84375 C 27.5 -21.84375 27.191406 -21.820312 26.890625 -21.78125 C 26.585938 -21.738281 26.257812 -21.71875 25.90625 -21.71875 C 25.1875 -21.71875 24.488281 -21.765625 23.8125 -21.859375 C 23.132812 -21.960938 22.515625 -22.035156 21.953125 -22.078125 C 21.910156 -22.273438 21.890625 -22.515625 21.890625 -22.796875 C 21.890625 -23.078125 21.890625 -23.375 21.890625 -23.6875 C 21.890625 -24.007812 21.890625 -24.316406 21.890625 -24.609375 C 21.890625 -24.910156 21.910156 -25.222656 21.953125 -25.546875 C 22.515625 -25.546875 23.023438 -25.546875 23.484375 -25.546875 C 23.941406 -25.546875 24.3125 -25.523438 24.59375 -25.484375 C 25.269531 -25.640625 26.066406 -25.773438 26.984375 -25.890625 C 27.898438 -26.015625 28.894531 -26.257812 29.96875 -26.625 C 30.09375 -26.945312 30.222656 -27.34375 30.359375 -27.8125 C 30.503906 -28.289062 30.578125 -28.769531 30.578125 -29.25 C 30.578125 -29.769531 30.460938 -30.171875 30.234375 -30.453125 C 30.015625 -30.734375 29.734375 -30.929688 29.390625 -31.046875 C 29.054688 -31.171875 28.671875 -31.242188 28.234375 -31.265625 C 27.796875 -31.285156 27.359375 -31.296875 26.921875 -31.296875 C 25.960938 -31.296875 25.171875 -31.234375 24.546875 -31.109375 C 23.929688 -30.992188 23.128906 -30.9375 22.140625 -30.9375 Z M 22.140625 -30.9375 "/></g></g></g><g fill="#8b6243" fill-opacity="1"><g transform="translate(154.49364, 233.299896)"><g><path d="M 39.671875 -18.0625 C 39.671875 -18.5 39.6875 -19.007812 39.71875 -19.59375 C 39.757812 -20.175781 39.78125 -20.742188 39.78125 -21.296875 C 39.78125 -21.773438 39.757812 -22.242188 39.71875 -22.703125 C 39.6875 -23.160156 39.628906 -23.609375 39.546875 -24.046875 C 39.585938 -24.210938 39.609375 -24.472656 39.609375 -24.828125 C 39.609375 -25.546875 39.515625 -26.363281 39.328125 -27.28125 C 39.148438 -28.195312 39.003906 -29.113281 38.890625 -30.03125 C 38.410156 -30.707031 37.691406 -31.046875 36.734375 -31.046875 C 35.859375 -31.046875 35.148438 -30.863281 34.609375 -30.5 C 34.066406 -30.144531 33.796875 -29.570312 33.796875 -28.78125 C 33.796875 -28.34375 33.816406 -27.851562 33.859375 -27.3125 C 33.898438 -26.769531 33.941406 -26.28125 33.984375 -25.84375 C 34.097656 -25.519531 34.164062 -24.953125 34.1875 -24.140625 C 34.207031 -23.328125 34.28125 -22.640625 34.40625 -22.078125 C 34.28125 -21.398438 34.21875 -20.601562 34.21875 -19.6875 C 34.21875 -19.25 34.226562 -18.910156 34.25 -18.671875 C 34.269531 -18.429688 34.300781 -18.226562 34.34375 -18.0625 C 34.382812 -17.90625 34.40625 -17.738281 34.40625 -17.5625 C 34.40625 -17.382812 34.40625 -17.132812 34.40625 -16.8125 C 34.40625 -15.457031 34.375 -14.421875 34.3125 -13.703125 C 34.25 -12.984375 34.1875 -12.394531 34.125 -11.9375 C 34.070312 -11.476562 34.015625 -11.054688 33.953125 -10.671875 C 33.890625 -10.296875 33.859375 -9.789062 33.859375 -9.15625 C 33.859375 -8.550781 34.054688 -7.96875 34.453125 -7.40625 C 34.859375 -6.851562 35.578125 -6.578125 36.609375 -6.578125 C 37.210938 -6.578125 37.691406 -6.773438 38.046875 -7.171875 C 38.410156 -7.578125 38.703125 -8.085938 38.921875 -8.703125 C 39.140625 -9.316406 39.273438 -9.984375 39.328125 -10.703125 C 39.390625 -11.421875 39.421875 -12.117188 39.421875 -12.796875 L 39.421875 -13.28125 L 39.71875 -15.5 C 39.757812 -15.738281 39.78125 -15.96875 39.78125 -16.1875 C 39.78125 -16.40625 39.78125 -16.613281 39.78125 -16.8125 C 39.78125 -17.050781 39.78125 -17.269531 39.78125 -17.46875 C 39.78125 -17.664062 39.742188 -17.863281 39.671875 -18.0625 Z M 23.75 -12.984375 C 23.550781 -13.140625 23.222656 -13.238281 22.765625 -13.28125 C 22.304688 -13.320312 21.738281 -13.382812 21.0625 -13.46875 L 18.375 -13.703125 C 17.8125 -13.703125 17.359375 -13.710938 17.015625 -13.734375 C 16.679688 -13.753906 16.382812 -13.769531 16.125 -13.78125 C 15.863281 -13.800781 15.625 -13.832031 15.40625 -13.875 C 15.1875 -13.914062 14.9375 -13.976562 14.65625 -14.0625 C 14.570312 -14.0625 14.488281 -14.050781 14.40625 -14.03125 C 14.332031 -14.007812 14.238281 -14 14.125 -14 C 13.882812 -14 13.5625 -14.019531 13.15625 -14.0625 C 12.757812 -14.101562 12.351562 -14.160156 11.9375 -14.234375 C 11.519531 -14.316406 11.128906 -14.382812 10.765625 -14.4375 C 10.410156 -14.5 10.113281 -14.570312 9.875 -14.65625 C 9.875 -15.132812 9.941406 -15.757812 10.078125 -16.53125 C 10.222656 -17.3125 10.453125 -18.0625 10.765625 -18.78125 C 11.847656 -18.976562 12.894531 -19.132812 13.90625 -19.25 C 14.925781 -19.375 15.773438 -19.4375 16.453125 -19.4375 L 17.46875 -19.4375 C 17.75 -19.5625 18.273438 -19.660156 19.046875 -19.734375 C 19.828125 -19.816406 20.414062 -19.941406 20.8125 -20.109375 C 21.53125 -21.335938 22.066406 -22.707031 22.421875 -24.21875 C 22.785156 -25.738281 22.96875 -27.019531 22.96875 -28.0625 C 22.96875 -28.5 22.914062 -28.96875 22.8125 -29.46875 C 22.71875 -29.96875 22.472656 -30.414062 22.078125 -30.8125 L 18.421875 -31.53125 C 16.828125 -31.851562 15.929688 -32.015625 15.734375 -32.015625 L 15.5 -32.015625 C 15.175781 -32.015625 14.765625 -32.039062 14.265625 -32.09375 C 13.765625 -32.15625 13.257812 -32.207031 12.75 -32.25 C 12.300781 -32.40625 11.695312 -32.503906 10.9375 -32.546875 C 10.1875 -32.585938 9.53125 -32.707031 8.96875 -32.90625 C 7.9375 -32.269531 7.421875 -31.3125 7.421875 -30.03125 C 7.421875 -29.394531 7.519531 -28.90625 7.71875 -28.5625 C 7.914062 -28.226562 8.179688 -27.96875 8.515625 -27.78125 C 8.859375 -27.601562 9.269531 -27.484375 9.75 -27.421875 C 10.226562 -27.367188 10.75 -27.300781 11.3125 -27.21875 L 14.234375 -26.984375 C 14.472656 -26.898438 14.867188 -26.785156 15.421875 -26.640625 C 15.984375 -26.503906 16.523438 -26.398438 17.046875 -26.328125 C 16.972656 -25.765625 16.863281 -25.363281 16.71875 -25.125 C 16.582031 -24.882812 16.414062 -24.722656 16.21875 -24.640625 C 16.019531 -24.566406 15.789062 -24.53125 15.53125 -24.53125 C 15.269531 -24.53125 15 -24.488281 14.71875 -24.40625 C 14.59375 -24.40625 14.46875 -24.414062 14.34375 -24.4375 C 14.226562 -24.457031 14.113281 -24.46875 14 -24.46875 C 13.4375 -24.46875 12.847656 -24.425781 12.234375 -24.34375 C 11.617188 -24.269531 10.972656 -24.234375 10.296875 -24.234375 C 10.085938 -24.109375 9.804688 -24.003906 9.453125 -23.921875 C 9.097656 -23.847656 8.71875 -23.800781 8.3125 -23.78125 C 7.914062 -23.757812 7.535156 -23.726562 7.171875 -23.6875 C 6.816406 -23.644531 6.5625 -23.585938 6.40625 -23.515625 C 6.082031 -23.148438 5.769531 -22.597656 5.46875 -21.859375 C 5.175781 -21.128906 5.03125 -20.460938 5.03125 -19.859375 C 5.03125 -19.785156 5.035156 -19.726562 5.046875 -19.6875 C 5.066406 -19.644531 5.078125 -19.582031 5.078125 -19.5 C 5.078125 -19.34375 5.015625 -18.972656 4.890625 -18.390625 C 4.773438 -17.816406 4.660156 -17.207031 4.546875 -16.5625 C 4.429688 -15.925781 4.320312 -15.335938 4.21875 -14.796875 C 4.113281 -14.265625 4.0625 -13.957031 4.0625 -13.875 C 4.0625 -13.519531 4.160156 -13.09375 4.359375 -12.59375 C 4.566406 -12.09375 4.828125 -11.503906 5.140625 -10.828125 C 5.941406 -10.390625 6.507812 -10.070312 6.84375 -9.875 C 7.1875 -9.675781 7.597656 -9.554688 8.078125 -9.515625 L 13.515625 -8.796875 C 14.515625 -8.597656 15.441406 -8.476562 16.296875 -8.4375 C 17.160156 -8.394531 17.953125 -8.375 18.671875 -8.375 C 19.265625 -8.375 19.8125 -8.382812 20.3125 -8.40625 C 20.8125 -8.425781 21.238281 -8.4375 21.59375 -8.4375 C 21.757812 -8.4375 21.898438 -8.425781 22.015625 -8.40625 C 22.140625 -8.382812 22.257812 -8.375 22.375 -8.375 C 22.695312 -8.457031 23.078125 -8.828125 23.515625 -9.484375 C 23.953125 -10.140625 24.171875 -10.882812 24.171875 -11.71875 C 24.171875 -12.125 24.03125 -12.546875 23.75 -12.984375 Z M 23.75 -12.984375 "/></g></g></g><g fill="#8b6243" fill-opacity="1"><g transform="translate(203.55693, 233.299896)"><g><path d="M 47.625 -15.3125 C 48.457031 -15.789062 48.875 -16.390625 48.875 -17.109375 C 48.875 -17.867188 48.753906 -18.457031 48.515625 -18.875 C 48.273438 -19.289062 47.992188 -19.597656 47.671875 -19.796875 C 47.359375 -20.003906 47 -20.125 46.59375 -20.15625 C 46.195312 -20.195312 45.863281 -20.21875 45.59375 -20.21875 C 45.070312 -20.21875 44.5625 -20.195312 44.0625 -20.15625 C 43.5625 -20.125 43.15625 -20.066406 42.84375 -19.984375 L 42.296875 -19.984375 C 41.660156 -19.984375 41.082031 -19.953125 40.5625 -19.890625 C 40.039062 -19.828125 39.539062 -19.742188 39.0625 -19.640625 C 38.582031 -19.546875 38.101562 -19.46875 37.625 -19.40625 C 37.144531 -19.351562 36.609375 -19.328125 36.015625 -19.328125 L 36.015625 -20.28125 C 36.015625 -20.519531 36.015625 -20.738281 36.015625 -20.9375 C 36.015625 -21.132812 35.972656 -21.332031 35.890625 -21.53125 C 35.929688 -21.65625 35.953125 -21.914062 35.953125 -22.3125 C 35.953125 -22.789062 35.921875 -23.304688 35.859375 -23.859375 C 35.804688 -24.421875 35.78125 -24.84375 35.78125 -25.125 L 35.234375 -28 C 35.078125 -28.875 34.910156 -29.5625 34.734375 -30.0625 C 34.554688 -30.5625 34.347656 -30.929688 34.109375 -31.171875 C 33.867188 -31.410156 33.578125 -31.554688 33.234375 -31.609375 C 32.890625 -31.671875 32.5 -31.703125 32.0625 -31.703125 C 29.988281 -31.703125 28.953125 -31.003906 28.953125 -29.609375 C 28.953125 -29.410156 28.972656 -29.210938 29.015625 -29.015625 C 29.054688 -28.816406 29.117188 -28.617188 29.203125 -28.421875 L 29.5625 -26.75 C 29.632812 -26.300781 29.707031 -25.90625 29.78125 -25.5625 C 29.863281 -25.226562 29.945312 -24.960938 30.03125 -24.765625 C 30.03125 -24.691406 30.019531 -24.601562 30 -24.5 C 29.976562 -24.394531 29.96875 -24.285156 29.96875 -24.171875 C 29.96875 -23.890625 29.988281 -23.539062 30.03125 -23.125 C 30.070312 -22.707031 30.117188 -22.273438 30.171875 -21.828125 C 30.234375 -21.390625 30.285156 -20.992188 30.328125 -20.640625 C 30.367188 -20.285156 30.390625 -20.046875 30.390625 -19.921875 C 30.390625 -19.679688 30.378906 -19.351562 30.359375 -18.9375 C 30.335938 -18.519531 30.304688 -17.972656 30.265625 -17.296875 L 30.265625 -14.59375 C 30.265625 -14.476562 30.253906 -14.269531 30.234375 -13.96875 C 30.222656 -13.664062 30.207031 -13.316406 30.1875 -12.921875 C 30.164062 -12.523438 30.144531 -12.132812 30.125 -11.75 C 30.101562 -11.375 30.09375 -11.066406 30.09375 -10.828125 C 30.09375 -10.710938 30.101562 -10.59375 30.125 -10.46875 C 30.144531 -10.351562 30.15625 -10.253906 30.15625 -10.171875 L 29.734375 -7.59375 C 29.691406 -7.28125 29.660156 -6.984375 29.640625 -6.703125 C 29.617188 -6.421875 29.609375 -6.179688 29.609375 -5.984375 C 29.609375 -5.179688 29.878906 -4.660156 30.421875 -4.421875 C 30.960938 -4.179688 31.609375 -4.0625 32.359375 -4.0625 C 33.046875 -4.0625 33.597656 -4.179688 34.015625 -4.421875 C 34.429688 -4.660156 34.757812 -5.128906 35 -5.828125 C 35.238281 -6.523438 35.40625 -7.507812 35.5 -8.78125 C 35.601562 -10.0625 35.71875 -11.757812 35.84375 -13.875 L 41.046875 -14.421875 L 41.453125 -14.421875 C 41.816406 -14.421875 42.226562 -14.4375 42.6875 -14.46875 C 43.144531 -14.507812 43.65625 -14.570312 44.21875 -14.65625 Z M 21.71875 -24.890625 C 21.039062 -25.328125 20.332031 -25.703125 19.59375 -26.015625 C 18.851562 -26.335938 18.101562 -26.5 17.34375 -26.5 L 16.9375 -26.5 C 16.257812 -26.625 15.660156 -26.742188 15.140625 -26.859375 C 14.617188 -26.984375 14.03125 -27.101562 13.375 -27.21875 C 12.71875 -27.34375 11.9375 -27.429688 11.03125 -27.484375 C 10.132812 -27.546875 8.988281 -27.578125 7.59375 -27.578125 C 7.476562 -27.535156 7.300781 -27.425781 7.0625 -27.25 C 6.820312 -27.070312 6.582031 -26.851562 6.34375 -26.59375 C 6.101562 -26.332031 5.890625 -26.039062 5.703125 -25.71875 C 5.523438 -25.40625 5.4375 -25.066406 5.4375 -24.703125 C 5.4375 -24.109375 5.660156 -23.429688 6.109375 -22.671875 C 7.023438 -22.472656 7.78125 -22.3125 8.375 -22.1875 C 8.96875 -22.070312 9.546875 -22.015625 10.109375 -22.015625 L 11.1875 -22.015625 C 11.707031 -22.015625 12.394531 -21.929688 13.25 -21.765625 C 14.101562 -21.609375 14.890625 -21.453125 15.609375 -21.296875 C 15.492188 -20.898438 15.207031 -20.242188 14.75 -19.328125 C 14.289062 -18.410156 13.582031 -17.472656 12.625 -16.515625 C 12.425781 -16.148438 12.242188 -15.816406 12.078125 -15.515625 C 11.921875 -15.222656 11.722656 -14.90625 11.484375 -14.5625 C 11.242188 -14.226562 10.972656 -13.847656 10.671875 -13.421875 C 10.378906 -13.003906 10.015625 -12.5 9.578125 -11.90625 C 9.816406 -11.101562 10.070312 -10.394531 10.34375 -9.78125 C 10.625 -9.164062 11.222656 -8.859375 12.140625 -8.859375 C 12.742188 -8.859375 13.363281 -8.9375 14 -9.09375 C 14.351562 -9.613281 14.828125 -10.191406 15.421875 -10.828125 C 16.023438 -11.460938 16.425781 -12.039062 16.625 -12.5625 C 17.3125 -13.675781 17.910156 -14.640625 18.421875 -15.453125 C 18.941406 -16.273438 19.34375 -17.007812 19.625 -17.65625 C 20.101562 -18.40625 20.597656 -19.296875 21.109375 -20.328125 C 21.628906 -21.367188 21.890625 -22.347656 21.890625 -23.265625 C 21.890625 -23.742188 21.832031 -24.285156 21.71875 -24.890625 Z M 21.71875 -24.890625 "/></g></g></g><g fill="#8b6243" fill-opacity="1"><g transform="translate(252.62022, 233.299896)"><g/></g></g><g fill="#8b6243" fill-opacity="1"><g transform="translate(277.750201, 233.299896)"><g><path d="M 15.96875 -27.8125 C 15.375 -27.9375 14.816406 -28.054688 14.296875 -28.171875 C 13.773438 -28.296875 13.195312 -28.40625 12.5625 -28.5 C 11.925781 -28.601562 11.164062 -28.6875 10.28125 -28.75 C 9.40625 -28.8125 8.289062 -28.84375 6.9375 -28.84375 C 6.863281 -28.800781 6.707031 -28.6875 6.46875 -28.5 C 6.226562 -28.320312 5.988281 -28.101562 5.75 -27.84375 C 5.507812 -27.59375 5.296875 -27.304688 5.109375 -26.984375 C 4.929688 -26.660156 4.84375 -26.320312 4.84375 -25.96875 C 4.84375 -25.363281 5.0625 -24.6875 5.5 -23.9375 C 6.382812 -23.726562 7.144531 -23.5625 7.78125 -23.4375 C 8.414062 -23.320312 8.972656 -23.265625 9.453125 -23.265625 L 10.53125 -23.265625 C 11.007812 -23.265625 11.488281 -23.1875 11.96875 -23.03125 L 12.203125 -23.03125 C 12.523438 -23.03125 12.84375 -23 13.15625 -22.9375 C 13.476562 -22.882812 13.800781 -22.816406 14.125 -22.734375 C 13.800781 -22.296875 13.445312 -21.847656 13.0625 -21.390625 C 12.6875 -20.929688 12.398438 -20.601562 12.203125 -20.40625 L 8.96875 -15.609375 C 8.613281 -14.972656 8.164062 -14.242188 7.625 -13.421875 C 7.09375 -12.609375 6.785156 -11.863281 6.703125 -11.1875 C 6.703125 -11.070312 6.789062 -10.882812 6.96875 -10.625 C 7.144531 -10.363281 7.382812 -10.101562 7.6875 -9.84375 C 7.988281 -9.582031 8.316406 -9.34375 8.671875 -9.125 C 9.035156 -8.90625 9.394531 -8.796875 9.75 -8.796875 C 10.351562 -8.796875 10.863281 -9.046875 11.28125 -9.546875 C 11.695312 -10.046875 12.304688 -10.851562 13.109375 -11.96875 C 13.140625 -12.164062 13.253906 -12.421875 13.453125 -12.734375 C 13.660156 -13.054688 13.890625 -13.382812 14.140625 -13.71875 C 14.398438 -14.0625 14.660156 -14.363281 14.921875 -14.625 C 15.179688 -14.882812 15.375 -15.054688 15.5 -15.140625 C 15.570312 -15.421875 15.726562 -15.707031 15.96875 -16 C 16.207031 -16.300781 16.425781 -16.59375 16.625 -16.875 C 17.101562 -16.46875 17.550781 -16.015625 17.96875 -15.515625 C 18.394531 -15.023438 18.828125 -14.539062 19.265625 -14.0625 C 19.703125 -13.582031 20.171875 -13.171875 20.671875 -12.828125 C 21.171875 -12.492188 21.738281 -12.265625 22.375 -12.140625 C 22.5 -12.179688 22.6875 -12.3125 22.9375 -12.53125 C 23.195312 -12.75 23.445312 -12.988281 23.6875 -13.25 C 23.925781 -13.507812 24.132812 -13.796875 24.3125 -14.109375 C 24.5 -14.429688 24.59375 -14.753906 24.59375 -15.078125 C 24.59375 -15.472656 24.507812 -15.867188 24.34375 -16.265625 C 24.1875 -16.671875 24 -17.03125 23.78125 -17.34375 C 23.5625 -17.664062 23.351562 -17.925781 23.15625 -18.125 C 22.957031 -18.320312 22.816406 -18.460938 22.734375 -18.546875 C 22.453125 -18.785156 22.09375 -19.164062 21.65625 -19.6875 C 21.21875 -20.207031 20.679688 -20.6875 20.046875 -21.125 C 20.398438 -21.5625 20.664062 -22.066406 20.84375 -22.640625 C 21.03125 -23.222656 21.125 -23.851562 21.125 -24.53125 C 21.125 -25.53125 20.78125 -26.238281 20.09375 -26.65625 C 19.414062 -27.070312 18.660156 -27.378906 17.828125 -27.578125 C 19.109375 -28.535156 19.75 -29.453125 19.75 -30.328125 C 19.75 -30.492188 19.707031 -30.695312 19.625 -30.9375 C 19.582031 -31.207031 19.429688 -31.550781 19.171875 -31.96875 C 18.910156 -32.394531 18.582031 -32.835938 18.1875 -33.296875 C 17.789062 -33.753906 17.351562 -34.179688 16.875 -34.578125 C 16.394531 -34.972656 15.914062 -35.3125 15.4375 -35.59375 L 13.875 -36.5625 C 13.363281 -36.757812 12.925781 -36.859375 12.5625 -36.859375 C 12.207031 -36.859375 11.878906 -36.753906 11.578125 -36.546875 C 11.273438 -36.347656 11.015625 -36.085938 10.796875 -35.765625 C 10.578125 -35.453125 10.414062 -35.101562 10.3125 -34.71875 C 10.21875 -34.34375 10.171875 -33.976562 10.171875 -33.625 C 10.171875 -33.101562 10.28125 -32.691406 10.5 -32.390625 C 10.71875 -32.097656 10.992188 -31.84375 11.328125 -31.625 C 11.671875 -31.40625 12.019531 -31.179688 12.375 -30.953125 C 12.738281 -30.734375 13.0625 -30.445312 13.34375 -30.09375 C 13.5 -29.9375 13.851562 -29.632812 14.40625 -29.1875 C 14.96875 -28.75 15.488281 -28.289062 15.96875 -27.8125 Z M 42.234375 -15.734375 L 42.234375 -17.234375 C 42.234375 -17.785156 42.222656 -18.359375 42.203125 -18.953125 C 42.179688 -19.554688 42.132812 -20.019531 42.0625 -20.34375 C 42.101562 -20.539062 42.128906 -20.726562 42.140625 -20.90625 C 42.160156 -21.082031 42.171875 -21.273438 42.171875 -21.484375 C 42.171875 -21.835938 42.179688 -22.0625 42.203125 -22.15625 C 42.222656 -22.257812 42.234375 -22.453125 42.234375 -22.734375 C 42.234375 -23.015625 42.203125 -23.460938 42.140625 -24.078125 C 42.085938 -24.703125 42 -25.671875 41.875 -26.984375 L 41.875 -27.46875 C 41.875 -27.78125 41.851562 -28.09375 41.8125 -28.40625 C 41.78125 -28.726562 41.722656 -29.113281 41.640625 -29.5625 L 41.21875 -31.828125 C 40.9375 -32.304688 40.578125 -32.625 40.140625 -32.78125 C 39.703125 -32.945312 39.144531 -33.03125 38.46875 -33.03125 C 37.707031 -33.03125 37.078125 -32.859375 36.578125 -32.515625 C 36.085938 -32.179688 35.84375 -31.691406 35.84375 -31.046875 C 35.84375 -30.492188 35.898438 -29.859375 36.015625 -29.140625 C 36.140625 -28.421875 36.203125 -27.660156 36.203125 -26.859375 L 36.203125 -26.078125 C 36.203125 -25.804688 36.226562 -25.507812 36.28125 -25.1875 C 36.34375 -24.863281 36.375 -24.363281 36.375 -23.6875 C 35.738281 -23.644531 34.96875 -23.59375 34.0625 -23.53125 C 33.164062 -23.476562 32.539062 -23.410156 32.1875 -23.328125 L 31.65625 -23.328125 C 31.332031 -23.328125 30.953125 -23.304688 30.515625 -23.265625 C 30.078125 -23.234375 29.597656 -23.175781 29.078125 -23.09375 L 25.671875 -22.4375 C 24.867188 -21.957031 24.46875 -21.335938 24.46875 -20.578125 C 24.46875 -19.898438 24.664062 -19.25 25.0625 -18.625 C 25.46875 -18.007812 25.769531 -17.644531 25.96875 -17.53125 C 26.25 -17.488281 26.585938 -17.46875 26.984375 -17.46875 C 27.378906 -17.46875 27.796875 -17.46875 28.234375 -17.46875 C 29.117188 -17.46875 29.910156 -17.503906 30.609375 -17.578125 C 31.304688 -17.660156 31.972656 -17.753906 32.609375 -17.859375 C 33.242188 -17.960938 33.867188 -18.050781 34.484375 -18.125 C 35.109375 -18.207031 35.78125 -18.25 36.5 -18.25 C 36.5 -17.882812 36.488281 -17.300781 36.46875 -16.5 C 36.445312 -15.707031 36.425781 -14.898438 36.40625 -14.078125 C 36.382812 -13.265625 36.363281 -12.539062 36.34375 -11.90625 C 36.320312 -11.269531 36.3125 -10.929688 36.3125 -10.890625 L 36.3125 -10.109375 C 36.3125 -9.710938 36.269531 -9.132812 36.1875 -8.375 C 36.113281 -7.613281 36.078125 -6.992188 36.078125 -6.515625 C 36.078125 -4.679688 37.054688 -3.765625 39.015625 -3.765625 C 40.046875 -3.765625 40.800781 -4.191406 41.28125 -5.046875 C 41.757812 -5.910156 42 -7.578125 42 -10.046875 C 42 -10.242188 41.988281 -10.421875 41.96875 -10.578125 C 41.945312 -10.742188 41.9375 -10.90625 41.9375 -11.0625 C 41.976562 -11.300781 42.019531 -11.671875 42.0625 -12.171875 C 42.101562 -12.671875 42.128906 -13.179688 42.140625 -13.703125 C 42.160156 -14.222656 42.179688 -14.679688 42.203125 -15.078125 C 42.222656 -15.472656 42.234375 -15.691406 42.234375 -15.734375 Z M 42.234375 -15.734375 "/></g></g></g><g fill="#8b6243" fill-opacity="1"><g transform="translate(326.813492, 233.299896)"><g><path d="M 32.421875 -34.765625 C 32.421875 -35.003906 32.320312 -35.332031 32.125 -35.75 C 31.925781 -36.164062 31.6875 -36.625 31.40625 -37.125 C 31.125 -37.625 30.820312 -38.128906 30.5 -38.640625 C 30.1875 -39.160156 29.890625 -39.625 29.609375 -40.03125 C 28.535156 -40.34375 27.519531 -40.628906 26.5625 -40.890625 C 25.601562 -41.148438 24.707031 -41.28125 23.875 -41.28125 C 23.195312 -41.28125 22.304688 -40.96875 21.203125 -40.34375 C 20.109375 -39.726562 19.003906 -38.644531 17.890625 -37.09375 C 17.734375 -36.289062 17.59375 -35.59375 17.46875 -35 C 17.351562 -34.40625 17.296875 -33.828125 17.296875 -33.265625 C 17.296875 -32.867188 17.3125 -32.488281 17.34375 -32.125 C 17.382812 -31.769531 17.503906 -31.390625 17.703125 -30.984375 C 17.910156 -30.585938 18.222656 -30.128906 18.640625 -29.609375 C 19.054688 -29.097656 19.644531 -28.460938 20.40625 -27.703125 C 20.445312 -27.578125 20.664062 -27.460938 21.0625 -27.359375 C 21.457031 -27.265625 21.894531 -27.175781 22.375 -27.09375 C 22.851562 -27.019531 23.289062 -26.941406 23.6875 -26.859375 C 24.09375 -26.785156 24.332031 -26.726562 24.40625 -26.6875 C 24.644531 -26.601562 24.863281 -26.5625 25.0625 -26.5625 C 25.382812 -26.5625 25.785156 -26.617188 26.265625 -26.734375 C 26.742188 -26.859375 27.210938 -26.988281 27.671875 -27.125 C 28.128906 -27.269531 28.546875 -27.421875 28.921875 -27.578125 C 29.304688 -27.734375 29.578125 -27.875 29.734375 -28 C 30.015625 -28.15625 30.242188 -28.320312 30.421875 -28.5 C 30.597656 -28.6875 30.765625 -28.910156 30.921875 -29.171875 C 31.085938 -29.429688 31.269531 -29.726562 31.46875 -30.0625 C 31.664062 -30.40625 31.945312 -30.816406 32.3125 -31.296875 C 32.3125 -31.691406 32.335938 -32.144531 32.390625 -32.65625 C 32.453125 -33.175781 32.484375 -33.660156 32.484375 -34.109375 C 32.484375 -34.222656 32.472656 -34.335938 32.453125 -34.453125 C 32.429688 -34.578125 32.421875 -34.679688 32.421875 -34.765625 Z M 42 -19.75 L 39.421875 -20.21875 C 38.867188 -20.300781 38.390625 -20.390625 37.984375 -20.484375 C 37.585938 -20.585938 37.226562 -20.617188 36.90625 -20.578125 L 36.5625 -20.578125 C 35.476562 -20.773438 34.535156 -20.914062 33.734375 -21 C 32.941406 -21.082031 32.207031 -21.128906 31.53125 -21.140625 C 30.851562 -21.160156 30.203125 -21.160156 29.578125 -21.140625 C 28.960938 -21.128906 28.316406 -21.125 27.640625 -21.125 C 27.242188 -21.125 26.90625 -21.125 26.625 -21.125 C 26.34375 -21.125 26.101562 -21.101562 25.90625 -21.0625 C 25.507812 -21.132812 24.832031 -21.203125 23.875 -21.265625 C 22.914062 -21.328125 22.035156 -21.359375 21.234375 -21.359375 C 21.035156 -21.359375 20.847656 -21.347656 20.671875 -21.328125 C 20.492188 -21.304688 20.34375 -21.296875 20.21875 -21.296875 C 20.019531 -21.296875 19.539062 -21.304688 18.78125 -21.328125 C 18.03125 -21.347656 17.054688 -21.359375 15.859375 -21.359375 C 15.378906 -21.359375 14.957031 -21.359375 14.59375 -21.359375 C 14.238281 -21.359375 13.941406 -21.335938 13.703125 -21.296875 C 13.421875 -21.335938 13.097656 -21.359375 12.734375 -21.359375 C 12.378906 -21.359375 11.984375 -21.359375 11.546875 -21.359375 C 10.347656 -21.359375 9.378906 -21.304688 8.640625 -21.203125 C 7.898438 -21.109375 7.332031 -20.96875 6.9375 -20.78125 C 6.539062 -20.601562 6.28125 -20.363281 6.15625 -20.0625 C 6.039062 -19.769531 5.984375 -19.425781 5.984375 -19.03125 C 5.984375 -17.832031 6.320312 -16.953125 7 -16.390625 C 7.675781 -15.835938 8.414062 -15.5625 9.21875 -15.5625 C 9.695312 -15.5625 10.285156 -15.609375 10.984375 -15.703125 C 11.679688 -15.804688 12.207031 -15.859375 12.5625 -15.859375 C 12.882812 -15.859375 13.113281 -15.828125 13.25 -15.765625 C 13.394531 -15.703125 13.625 -15.671875 13.9375 -15.671875 C 14.09375 -15.671875 14.453125 -15.679688 15.015625 -15.703125 C 15.578125 -15.722656 16.195312 -15.753906 16.875 -15.796875 C 17.550781 -15.835938 18.21875 -15.867188 18.875 -15.890625 C 19.53125 -15.910156 20.0625 -15.921875 20.46875 -15.921875 C 21.21875 -15.921875 21.65625 -15.898438 21.78125 -15.859375 L 22.4375 -15.859375 C 22.71875 -15.859375 23.164062 -15.847656 23.78125 -15.828125 C 24.394531 -15.804688 25.082031 -15.773438 25.84375 -15.734375 C 26.601562 -15.691406 27.378906 -15.648438 28.171875 -15.609375 C 28.972656 -15.578125 29.703125 -15.539062 30.359375 -15.5 C 31.015625 -15.457031 31.539062 -15.425781 31.9375 -15.40625 C 32.34375 -15.382812 32.546875 -15.375 32.546875 -15.375 C 32.941406 -15.375 33.546875 -15.332031 34.359375 -15.25 C 35.179688 -15.175781 36.03125 -15.085938 36.90625 -14.984375 C 37.789062 -14.890625 38.609375 -14.800781 39.359375 -14.71875 C 40.117188 -14.632812 40.660156 -14.59375 40.984375 -14.59375 C 41.742188 -14.59375 42.28125 -14.867188 42.59375 -15.421875 C 42.914062 -15.984375 43.078125 -16.664062 43.078125 -17.46875 C 43.078125 -18.507812 42.71875 -19.269531 42 -19.75 Z M 33.203125 -5.140625 L 33.203125 -5.75 C 33.203125 -6.625 33.148438 -7.359375 33.046875 -7.953125 C 32.953125 -8.554688 32.804688 -9.132812 32.609375 -9.6875 C 31.523438 -10.050781 30.523438 -10.28125 29.609375 -10.375 C 28.691406 -10.476562 27.894531 -10.570312 27.21875 -10.65625 C 26.90625 -10.769531 26.554688 -10.847656 26.171875 -10.890625 C 25.796875 -10.929688 25.410156 -10.953125 25.015625 -10.953125 C 24.253906 -10.953125 23.441406 -10.910156 22.578125 -10.828125 C 21.722656 -10.742188 20.914062 -10.648438 20.15625 -10.546875 C 19.40625 -10.453125 18.757812 -10.332031 18.21875 -10.1875 C 17.675781 -10.050781 17.347656 -9.925781 17.234375 -9.8125 C 16.992188 -9.375 16.832031 -8.820312 16.75 -8.15625 C 16.664062 -7.5 16.625 -6.851562 16.625 -6.21875 C 16.625 -5.21875 16.753906 -4.207031 17.015625 -3.1875 C 17.273438 -2.175781 17.40625 -0.894531 17.40625 0.65625 C 17.40625 1.414062 17.554688 2.191406 17.859375 2.984375 C 18.160156 3.785156 18.46875 4.445312 18.78125 4.96875 C 19.144531 5.039062 19.566406 5.085938 20.046875 5.109375 C 20.523438 5.128906 20.984375 5.140625 21.421875 5.140625 C 21.859375 5.140625 22.265625 5.128906 22.640625 5.109375 C 23.023438 5.085938 23.316406 5.078125 23.515625 5.078125 C 23.753906 5.078125 23.984375 5.085938 24.203125 5.109375 C 24.421875 5.128906 24.628906 5.140625 24.828125 5.140625 C 24.984375 5.140625 25.25 5.109375 25.625 5.046875 C 26.007812 4.992188 26.421875 4.925781 26.859375 4.84375 C 27.296875 4.757812 27.734375 4.6875 28.171875 4.625 C 28.617188 4.570312 29 4.546875 29.3125 4.546875 L 29.90625 4.546875 C 30.425781 4.546875 31.085938 4.46875 31.890625 4.3125 C 32.242188 3.632812 32.476562 2.914062 32.59375 2.15625 C 32.71875 1.394531 32.78125 0.71875 32.78125 0.125 L 32.78125 -0.53125 C 32.863281 -1.21875 32.941406 -1.976562 33.015625 -2.8125 C 33.097656 -3.644531 33.160156 -4.421875 33.203125 -5.140625 Z M 26.796875 -33.203125 C 26.765625 -33.085938 26.566406 -32.847656 26.203125 -32.484375 C 25.847656 -32.128906 25.347656 -31.953125 24.703125 -31.953125 C 24.503906 -31.953125 24.1875 -32.007812 23.75 -32.125 C 23.3125 -32.25 23.015625 -32.585938 22.859375 -33.140625 C 22.898438 -33.703125 23.035156 -34.25 23.265625 -34.78125 C 23.503906 -35.320312 23.847656 -35.632812 24.296875 -35.71875 C 24.691406 -35.675781 25.046875 -35.65625 25.359375 -35.65625 C 25.679688 -35.65625 25.953125 -35.59375 26.171875 -35.46875 C 26.390625 -35.351562 26.554688 -35.15625 26.671875 -34.875 C 26.796875 -34.601562 26.859375 -34.1875 26.859375 -33.625 C 26.859375 -33.539062 26.847656 -33.457031 26.828125 -33.375 C 26.804688 -33.300781 26.796875 -33.242188 26.796875 -33.203125 Z M 27.765625 -4.96875 C 27.765625 -4.570312 27.734375 -4.191406 27.671875 -3.828125 C 27.609375 -3.472656 27.539062 -3.070312 27.46875 -2.625 L 27.46875 -2.28125 C 27.46875 -1.832031 27.445312 -1.410156 27.40625 -1.015625 C 27.363281 -0.617188 27.082031 -0.421875 26.5625 -0.421875 L 25.609375 -0.421875 C 24.890625 -0.421875 24.289062 -0.390625 23.8125 -0.328125 C 23.332031 -0.265625 22.972656 -0.234375 22.734375 -0.234375 C 22.648438 -0.472656 22.578125 -0.820312 22.515625 -1.28125 C 22.460938 -1.738281 22.414062 -2.21875 22.375 -2.71875 C 22.332031 -3.21875 22.289062 -3.695312 22.25 -4.15625 C 22.21875 -4.613281 22.203125 -4.960938 22.203125 -5.203125 C 22.441406 -5.203125 22.671875 -5.210938 22.890625 -5.234375 C 23.109375 -5.253906 23.316406 -5.265625 23.515625 -5.265625 C 24.546875 -5.265625 25.359375 -5.242188 25.953125 -5.203125 C 26.554688 -5.160156 27.160156 -5.082031 27.765625 -4.96875 Z M 27.765625 -4.96875 "/></g></g></g><g fill="#8b6243" fill-opacity="1"><g transform="translate(375.876782, 233.299896)"><g><path d="M 38.46875 -18.1875 C 38.46875 -18.625 38.488281 -19.128906 38.53125 -19.703125 C 38.570312 -20.285156 38.59375 -20.878906 38.59375 -21.484375 C 38.59375 -21.960938 38.570312 -22.429688 38.53125 -22.890625 C 38.488281 -23.347656 38.425781 -23.796875 38.34375 -24.234375 C 38.382812 -24.390625 38.40625 -24.648438 38.40625 -25.015625 C 38.40625 -25.722656 38.316406 -26.546875 38.140625 -27.484375 C 37.960938 -28.421875 37.8125 -29.347656 37.6875 -30.265625 C 37.207031 -30.910156 36.507812 -31.234375 35.59375 -31.234375 C 34.71875 -31.234375 34 -31.0625 33.4375 -30.71875 C 32.882812 -30.382812 32.609375 -29.796875 32.609375 -28.953125 C 32.609375 -28.515625 32.625 -28.023438 32.65625 -27.484375 C 32.695312 -26.953125 32.738281 -26.46875 32.78125 -26.03125 C 32.945312 -25.707031 33.03125 -25.132812 33.03125 -24.3125 C 33.03125 -23.5 33.109375 -22.8125 33.265625 -22.25 C 33.179688 -22.007812 33.117188 -21.738281 33.078125 -21.4375 C 33.046875 -21.144531 33.03125 -20.820312 33.03125 -20.46875 C 33.03125 -19.863281 33.035156 -19.398438 33.046875 -19.078125 C 33.066406 -18.765625 33.097656 -18.5 33.140625 -18.28125 C 33.179688 -18.0625 33.210938 -17.859375 33.234375 -17.671875 C 33.253906 -17.492188 33.265625 -17.25 33.265625 -16.9375 C 33.265625 -15.570312 33.234375 -14.507812 33.171875 -13.75 C 33.109375 -13 33.046875 -12.382812 32.984375 -11.90625 C 32.929688 -11.425781 32.875 -10.992188 32.8125 -10.609375 C 32.75 -10.234375 32.71875 -9.726562 32.71875 -9.09375 C 32.71875 -8.457031 32.945312 -7.878906 33.40625 -7.359375 C 33.875 -6.835938 34.566406 -6.578125 35.484375 -6.578125 C 36.398438 -6.578125 37.085938 -7.101562 37.546875 -8.15625 C 38.003906 -9.21875 38.234375 -10.726562 38.234375 -12.6875 L 38.234375 -13.34375 L 38.53125 -15.609375 C 38.570312 -15.847656 38.59375 -16.078125 38.59375 -16.296875 C 38.59375 -16.515625 38.59375 -16.726562 38.59375 -16.9375 C 38.59375 -17.175781 38.59375 -17.394531 38.59375 -17.59375 C 38.59375 -17.789062 38.550781 -17.988281 38.46875 -18.1875 Z M 21.71875 -20.21875 C 21.632812 -20.457031 21.484375 -20.847656 21.265625 -21.390625 C 21.046875 -21.929688 20.785156 -22.5 20.484375 -23.09375 C 20.191406 -23.6875 19.894531 -24.253906 19.59375 -24.796875 C 19.289062 -25.335938 19.019531 -25.707031 18.78125 -25.90625 C 17.90625 -26.582031 16.789062 -27.007812 15.4375 -27.1875 C 14.082031 -27.375 12.609375 -27.503906 11.015625 -27.578125 C 10.566406 -27.265625 10.070312 -26.90625 9.53125 -26.5 C 9 -26.101562 8.484375 -25.695312 7.984375 -25.28125 C 7.484375 -24.863281 7.050781 -24.472656 6.6875 -24.109375 C 6.332031 -23.753906 6.117188 -23.472656 6.046875 -23.265625 C 5.847656 -22.796875 5.664062 -22.191406 5.5 -21.453125 C 5.34375 -20.710938 5.164062 -20.144531 4.96875 -19.75 C 5.207031 -18.863281 5.351562 -18.160156 5.40625 -17.640625 C 5.46875 -17.128906 5.578125 -16.660156 5.734375 -16.234375 C 5.898438 -15.816406 6.191406 -15.398438 6.609375 -14.984375 C 7.023438 -14.566406 7.710938 -14.039062 8.671875 -13.40625 C 9.828125 -12.601562 10.644531 -12.179688 11.125 -12.140625 L 11.25 -12.140625 C 11.289062 -12.140625 11.46875 -12.109375 11.78125 -12.046875 C 12.101562 -11.992188 12.472656 -11.925781 12.890625 -11.84375 C 13.304688 -11.757812 13.722656 -11.6875 14.140625 -11.625 C 14.566406 -11.570312 14.898438 -11.546875 15.140625 -11.546875 C 15.335938 -11.546875 15.445312 -11.535156 15.46875 -11.515625 C 15.488281 -11.492188 15.523438 -11.503906 15.578125 -11.546875 C 15.640625 -11.585938 15.78125 -11.664062 16 -11.78125 C 16.21875 -11.90625 16.628906 -12.125 17.234375 -12.4375 L 19.265625 -13.515625 C 19.742188 -13.992188 20.117188 -14.484375 20.390625 -14.984375 C 20.671875 -15.484375 20.890625 -15.992188 21.046875 -16.515625 C 21.210938 -17.035156 21.332031 -17.601562 21.40625 -18.21875 C 21.488281 -18.832031 21.59375 -19.5 21.71875 -20.21875 Z M 15.734375 -17.765625 C 15.617188 -17.328125 15.347656 -17.046875 14.921875 -16.921875 C 14.503906 -16.804688 14.117188 -16.75 13.765625 -16.75 C 13.203125 -16.75 12.71875 -16.867188 12.3125 -17.109375 C 11.914062 -17.347656 11.585938 -17.632812 11.328125 -17.96875 C 11.078125 -18.3125 10.890625 -18.632812 10.765625 -18.9375 C 10.648438 -19.238281 10.59375 -19.445312 10.59375 -19.5625 L 10.59375 -19.6875 L 11.125 -21.125 C 11.289062 -21.476562 11.472656 -21.734375 11.671875 -21.890625 C 11.867188 -22.054688 12.066406 -22.175781 12.265625 -22.25 C 12.941406 -22.25 13.878906 -22.050781 15.078125 -21.65625 C 15.472656 -21.21875 15.71875 -20.707031 15.8125 -20.125 C 15.914062 -19.550781 15.96875 -19.164062 15.96875 -18.96875 C 15.96875 -18.644531 15.890625 -18.242188 15.734375 -17.765625 Z M 15.734375 -17.765625 "/></g></g></g><g fill="#8b6243" fill-opacity="1"><g transform="translate(424.940072, 233.299896)"><g><path d="M 38.46875 -26.265625 C 38.46875 -26.703125 38.488281 -27.140625 38.53125 -27.578125 C 38.570312 -28.015625 38.59375 -28.472656 38.59375 -28.953125 C 38.59375 -29.710938 38.507812 -30.472656 38.34375 -31.234375 C 38.382812 -31.429688 38.40625 -31.75 38.40625 -32.1875 C 38.40625 -32.988281 38.332031 -33.835938 38.1875 -34.734375 C 38.050781 -35.628906 37.882812 -36.535156 37.6875 -37.453125 C 37.207031 -38.128906 36.488281 -38.46875 35.53125 -38.46875 C 34.738281 -38.46875 34.0625 -38.285156 33.5 -37.921875 C 32.945312 -37.566406 32.671875 -37.050781 32.671875 -36.375 C 32.671875 -35.851562 32.675781 -35.300781 32.6875 -34.71875 C 32.707031 -34.144531 32.738281 -33.597656 32.78125 -33.078125 C 32.945312 -32.765625 33.03125 -32.195312 33.03125 -31.375 C 33.03125 -30.5625 33.109375 -29.875 33.265625 -29.3125 C 33.140625 -28.632812 33.078125 -28.019531 33.078125 -27.46875 C 33.078125 -27.144531 33.085938 -26.890625 33.109375 -26.703125 C 33.128906 -26.523438 33.148438 -26.359375 33.171875 -26.203125 C 33.191406 -26.046875 33.210938 -25.882812 33.234375 -25.71875 C 33.253906 -25.5625 33.265625 -25.34375 33.265625 -25.0625 C 33.265625 -23.832031 33.234375 -22.867188 33.171875 -22.171875 C 33.109375 -21.472656 33.046875 -20.898438 32.984375 -20.453125 C 32.929688 -20.015625 32.875 -19.625 32.8125 -19.28125 C 32.75 -18.945312 32.71875 -18.503906 32.71875 -17.953125 C 32.71875 -17.390625 32.9375 -16.847656 33.375 -16.328125 C 33.820312 -15.816406 34.503906 -15.5625 35.421875 -15.5625 C 35.972656 -15.5625 36.425781 -15.75 36.78125 -16.125 C 37.144531 -16.5 37.4375 -16.96875 37.65625 -17.53125 C 37.875 -18.09375 38.023438 -18.722656 38.109375 -19.421875 C 38.191406 -20.117188 38.234375 -20.785156 38.234375 -21.421875 L 38.234375 -21.890625 C 38.304688 -22.210938 38.382812 -22.679688 38.46875 -23.296875 C 38.550781 -23.921875 38.59375 -24.507812 38.59375 -25.0625 C 38.59375 -25.257812 38.582031 -25.457031 38.5625 -25.65625 C 38.539062 -25.863281 38.507812 -26.066406 38.46875 -26.265625 Z M 23.6875 -23.15625 C 23.375 -23.875 23.035156 -24.398438 22.671875 -24.734375 C 22.316406 -25.078125 21.96875 -25.347656 21.625 -25.546875 C 21.289062 -25.742188 20.953125 -25.972656 20.609375 -26.234375 C 20.273438 -26.492188 19.945312 -26.90625 19.625 -27.46875 C 19.257812 -27.695312 18.988281 -27.921875 18.8125 -28.140625 C 18.632812 -28.367188 18.445312 -28.601562 18.25 -28.84375 C 18.53125 -29.238281 18.835938 -29.773438 19.171875 -30.453125 C 19.515625 -31.128906 19.707031 -31.6875 19.75 -32.125 C 19.425781 -32.84375 19.015625 -33.351562 18.515625 -33.65625 C 18.015625 -33.957031 17.367188 -34.109375 16.578125 -34.109375 C 16.097656 -34.109375 15.738281 -34.097656 15.5 -34.078125 C 15.257812 -34.054688 15.046875 -33.960938 14.859375 -33.796875 C 14.679688 -33.640625 14.503906 -33.390625 14.328125 -33.046875 C 14.148438 -32.710938 13.863281 -32.25 13.46875 -31.65625 C 13.019531 -30.96875 12.675781 -30.460938 12.4375 -30.140625 C 12.195312 -29.828125 11.988281 -29.582031 11.8125 -29.40625 C 11.632812 -29.226562 11.472656 -29.035156 11.328125 -28.828125 C 11.191406 -28.628906 10.984375 -28.3125 10.703125 -27.875 C 10.222656 -27.082031 9.742188 -26.382812 9.265625 -25.78125 C 8.796875 -25.1875 8.347656 -24.609375 7.921875 -24.046875 C 7.503906 -23.492188 7.144531 -22.914062 6.84375 -22.3125 C 6.550781 -21.71875 6.363281 -21.039062 6.28125 -20.28125 C 6.28125 -20.164062 6.367188 -19.988281 6.546875 -19.75 C 6.734375 -19.507812 6.960938 -19.25 7.234375 -18.96875 C 7.515625 -18.6875 7.832031 -18.445312 8.1875 -18.25 C 8.550781 -18.050781 8.910156 -17.953125 9.265625 -17.953125 C 9.585938 -17.953125 9.859375 -18.007812 10.078125 -18.125 C 10.296875 -18.25 10.515625 -18.429688 10.734375 -18.671875 C 10.953125 -18.910156 11.179688 -19.21875 11.421875 -19.59375 C 11.660156 -19.96875 11.984375 -20.4375 12.390625 -21 C 12.421875 -21.394531 12.585938 -21.753906 12.890625 -22.078125 C 13.191406 -22.398438 13.484375 -22.640625 13.765625 -22.796875 C 13.835938 -22.992188 13.984375 -23.269531 14.203125 -23.625 C 14.421875 -23.988281 14.632812 -24.332031 14.84375 -24.65625 C 15.039062 -24.375 15.175781 -24.210938 15.25 -24.171875 C 15.332031 -24.128906 15.453125 -24.066406 15.609375 -23.984375 C 16.328125 -23.429688 16.90625 -22.894531 17.34375 -22.375 C 17.789062 -21.851562 18.203125 -21.394531 18.578125 -21 C 18.953125 -20.601562 19.347656 -20.273438 19.765625 -20.015625 C 20.191406 -19.753906 20.742188 -19.5625 21.421875 -19.4375 C 21.535156 -19.476562 21.722656 -19.597656 21.984375 -19.796875 C 22.242188 -20.003906 22.515625 -20.253906 22.796875 -20.546875 C 23.078125 -20.847656 23.316406 -21.164062 23.515625 -21.5 C 23.710938 -21.84375 23.8125 -22.175781 23.8125 -22.5 C 23.8125 -22.613281 23.769531 -22.832031 23.6875 -23.15625 Z M 31.34375 2.390625 C 32.144531 1.472656 32.546875 0.695312 32.546875 0.0625 C 32.546875 -0.5 32.328125 -1.03125 31.890625 -1.53125 C 31.453125 -2.03125 31.050781 -2.394531 30.6875 -2.625 C 29.21875 -2.425781 28.082031 -2.273438 27.28125 -2.171875 C 26.476562 -2.078125 25.640625 -2.03125 24.765625 -2.03125 C 24.128906 -2.03125 23.390625 -2.03125 22.546875 -2.03125 C 21.710938 -2.03125 21 -2.050781 20.40625 -2.09375 C 20.238281 -2.769531 20.175781 -3.414062 20.21875 -4.03125 C 20.257812 -4.65625 20.238281 -5.425781 20.15625 -6.34375 C 20.15625 -6.5 20.164062 -6.6875 20.1875 -6.90625 C 20.207031 -7.125 20.21875 -7.351562 20.21875 -7.59375 C 20.21875 -8.070312 20.1875 -8.582031 20.125 -9.125 C 20.070312 -9.664062 19.984375 -10.175781 19.859375 -10.65625 C 18.703125 -11.332031 17.765625 -11.671875 17.046875 -11.671875 C 16.691406 -11.671875 16.363281 -11.597656 16.0625 -11.453125 C 15.757812 -11.316406 15.488281 -11.066406 15.25 -10.703125 C 15.007812 -10.347656 14.820312 -9.847656 14.6875 -9.203125 C 14.550781 -8.566406 14.484375 -7.734375 14.484375 -6.703125 C 14.484375 -5.585938 14.53125 -4.648438 14.625 -3.890625 C 14.726562 -3.128906 14.859375 -2.25 15.015625 -1.25 C 14.929688 -0.851562 14.890625 -0.554688 14.890625 -0.359375 C 14.890625 0.796875 15.3125 1.953125 16.15625 3.109375 C 16.632812 3.234375 17.128906 3.34375 17.640625 3.4375 C 18.160156 3.539062 18.640625 3.59375 19.078125 3.59375 C 19.316406 3.59375 19.554688 3.550781 19.796875 3.46875 C 20.203125 3.507812 20.660156 3.550781 21.171875 3.59375 C 21.691406 3.632812 22.210938 3.65625 22.734375 3.65625 C 23.890625 3.65625 24.882812 3.625 25.71875 3.5625 C 26.5625 3.5 27.3125 3.414062 27.96875 3.3125 C 28.625 3.21875 29.210938 3.085938 29.734375 2.921875 C 30.253906 2.765625 30.789062 2.585938 31.34375 2.390625 Z M 31.34375 2.390625 "/></g></g></g><g fill="#8b6243" fill-opacity="1"><g transform="translate(474.003362, 233.299896)"><g><path d="M 47.625 -15.3125 C 48.457031 -15.789062 48.875 -16.390625 48.875 -17.109375 C 48.875 -17.867188 48.753906 -18.457031 48.515625 -18.875 C 48.273438 -19.289062 47.992188 -19.597656 47.671875 -19.796875 C 47.359375 -20.003906 47 -20.125 46.59375 -20.15625 C 46.195312 -20.195312 45.863281 -20.21875 45.59375 -20.21875 C 45.070312 -20.21875 44.5625 -20.195312 44.0625 -20.15625 C 43.5625 -20.125 43.15625 -20.066406 42.84375 -19.984375 L 42.296875 -19.984375 C 41.660156 -19.984375 41.082031 -19.953125 40.5625 -19.890625 C 40.039062 -19.828125 39.539062 -19.742188 39.0625 -19.640625 C 38.582031 -19.546875 38.101562 -19.46875 37.625 -19.40625 C 37.144531 -19.351562 36.609375 -19.328125 36.015625 -19.328125 L 36.015625 -20.28125 C 36.015625 -20.519531 36.015625 -20.738281 36.015625 -20.9375 C 36.015625 -21.132812 35.972656 -21.332031 35.890625 -21.53125 C 35.929688 -21.65625 35.953125 -21.914062 35.953125 -22.3125 C 35.953125 -22.789062 35.921875 -23.304688 35.859375 -23.859375 C 35.804688 -24.421875 35.78125 -24.84375 35.78125 -25.125 L 35.234375 -28 C 35.078125 -28.875 34.910156 -29.5625 34.734375 -30.0625 C 34.554688 -30.5625 34.347656 -30.929688 34.109375 -31.171875 C 33.867188 -31.410156 33.578125 -31.554688 33.234375 -31.609375 C 32.890625 -31.671875 32.5 -31.703125 32.0625 -31.703125 C 29.988281 -31.703125 28.953125 -31.003906 28.953125 -29.609375 C 28.953125 -29.410156 28.972656 -29.210938 29.015625 -29.015625 C 29.054688 -28.816406 29.117188 -28.617188 29.203125 -28.421875 L 29.5625 -26.75 C 29.632812 -26.300781 29.707031 -25.90625 29.78125 -25.5625 C 29.863281 -25.226562 29.945312 -24.960938 30.03125 -24.765625 C 30.03125 -24.691406 30.019531 -24.601562 30 -24.5 C 29.976562 -24.394531 29.96875 -24.285156 29.96875 -24.171875 C 29.96875 -23.890625 29.988281 -23.539062 30.03125 -23.125 C 30.070312 -22.707031 30.117188 -22.273438 30.171875 -21.828125 C 30.234375 -21.390625 30.285156 -20.992188 30.328125 -20.640625 C 30.367188 -20.285156 30.390625 -20.046875 30.390625 -19.921875 C 30.390625 -19.679688 30.378906 -19.351562 30.359375 -18.9375 C 30.335938 -18.519531 30.304688 -17.972656 30.265625 -17.296875 L 30.265625 -14.59375 C 30.265625 -14.476562 30.253906 -14.269531 30.234375 -13.96875 C 30.222656 -13.664062 30.207031 -13.316406 30.1875 -12.921875 C 30.164062 -12.523438 30.144531 -12.132812 30.125 -11.75 C 30.101562 -11.375 30.09375 -11.066406 30.09375 -10.828125 C 30.09375 -10.710938 30.101562 -10.59375 30.125 -10.46875 C 30.144531 -10.351562 30.15625 -10.253906 30.15625 -10.171875 L 29.734375 -7.59375 C 29.691406 -7.28125 29.660156 -6.984375 29.640625 -6.703125 C 29.617188 -6.421875 29.609375 -6.179688 29.609375 -5.984375 C 29.609375 -5.179688 29.878906 -4.660156 30.421875 -4.421875 C 30.960938 -4.179688 31.609375 -4.0625 32.359375 -4.0625 C 33.046875 -4.0625 33.597656 -4.179688 34.015625 -4.421875 C 34.429688 -4.660156 34.757812 -5.128906 35 -5.828125 C 35.238281 -6.523438 35.40625 -7.507812 35.5 -8.78125 C 35.601562 -10.0625 35.71875 -11.757812 35.84375 -13.875 L 41.046875 -14.421875 L 41.453125 -14.421875 C 41.816406 -14.421875 42.226562 -14.4375 42.6875 -14.46875 C 43.144531 -14.507812 43.65625 -14.570312 44.21875 -14.65625 Z M 21.71875 -24.890625 C 21.039062 -25.328125 20.332031 -25.703125 19.59375 -26.015625 C 18.851562 -26.335938 18.101562 -26.5 17.34375 -26.5 L 16.9375 -26.5 C 16.257812 -26.625 15.660156 -26.742188 15.140625 -26.859375 C 14.617188 -26.984375 14.03125 -27.101562 13.375 -27.21875 C 12.71875 -27.34375 11.9375 -27.429688 11.03125 -27.484375 C 10.132812 -27.546875 8.988281 -27.578125 7.59375 -27.578125 C 7.476562 -27.535156 7.300781 -27.425781 7.0625 -27.25 C 6.820312 -27.070312 6.582031 -26.851562 6.34375 -26.59375 C 6.101562 -26.332031 5.890625 -26.039062 5.703125 -25.71875 C 5.523438 -25.40625 5.4375 -25.066406 5.4375 -24.703125 C 5.4375 -24.109375 5.660156 -23.429688 6.109375 -22.671875 C 7.023438 -22.472656 7.78125 -22.3125 8.375 -22.1875 C 8.96875 -22.070312 9.546875 -22.015625 10.109375 -22.015625 L 11.1875 -22.015625 C 11.707031 -22.015625 12.394531 -21.929688 13.25 -21.765625 C 14.101562 -21.609375 14.890625 -21.453125 15.609375 -21.296875 C 15.492188 -20.898438 15.207031 -20.242188 14.75 -19.328125 C 14.289062 -18.410156 13.582031 -17.472656 12.625 -16.515625 C 12.425781 -16.148438 12.242188 -15.816406 12.078125 -15.515625 C 11.921875 -15.222656 11.722656 -14.90625 11.484375 -14.5625 C 11.242188 -14.226562 10.972656 -13.847656 10.671875 -13.421875 C 10.378906 -13.003906 10.015625 -12.5 9.578125 -11.90625 C 9.816406 -11.101562 10.070312 -10.394531 10.34375 -9.78125 C 10.625 -9.164062 11.222656 -8.859375 12.140625 -8.859375 C 12.742188 -8.859375 13.363281 -8.9375 14 -9.09375 C 14.351562 -9.613281 14.828125 -10.191406 15.421875 -10.828125 C 16.023438 -11.460938 16.425781 -12.039062 16.625 -12.5625 C 17.3125 -13.675781 17.910156 -14.640625 18.421875 -15.453125 C 18.941406 -16.273438 19.34375 -17.007812 19.625 -17.65625 C 20.101562 -18.40625 20.597656 -19.296875 21.109375 -20.328125 C 21.628906 -21.367188 21.890625 -22.347656 21.890625 -23.265625 C 21.890625 -23.742188 21.832031 -24.285156 21.71875 -24.890625 Z M 21.71875 -24.890625 "/></g></g></g><g fill="#8b6243" fill-opacity="1"><g transform="translate(523.066676, 233.299896)"><g><path d="M 32.359375 -27.703125 C 32.359375 -27.898438 32.257812 -28.207031 32.0625 -28.625 C 31.863281 -29.039062 31.625 -29.5 31.34375 -30 C 31.070312 -30.5 30.773438 -31.007812 30.453125 -31.53125 C 30.128906 -32.050781 29.832031 -32.488281 29.5625 -32.84375 C 28.476562 -33.164062 27.457031 -33.457031 26.5 -33.71875 C 25.539062 -33.976562 24.644531 -34.109375 23.8125 -34.109375 C 23.53125 -34.109375 23.03125 -33.992188 22.3125 -33.765625 C 21.59375 -33.546875 20.851562 -33.144531 20.09375 -32.5625 C 19.34375 -31.988281 18.675781 -31.203125 18.09375 -30.203125 C 17.519531 -29.210938 17.234375 -27.941406 17.234375 -26.390625 C 17.234375 -25.941406 17.25 -25.546875 17.28125 -25.203125 C 17.320312 -24.867188 17.441406 -24.492188 17.640625 -24.078125 C 17.847656 -23.660156 18.160156 -23.191406 18.578125 -22.671875 C 18.992188 -22.148438 19.582031 -21.53125 20.34375 -20.8125 C 20.382812 -20.695312 20.601562 -20.585938 21 -20.484375 C 21.394531 -20.390625 21.832031 -20.300781 22.3125 -20.21875 C 22.789062 -20.144531 23.226562 -20.066406 23.625 -19.984375 C 24.03125 -19.898438 24.269531 -19.835938 24.34375 -19.796875 C 24.582031 -19.722656 24.804688 -19.6875 25.015625 -19.6875 C 25.765625 -19.6875 26.476562 -19.796875 27.15625 -20.015625 C 27.832031 -20.234375 28.429688 -20.476562 28.953125 -20.75 C 29.472656 -21.03125 29.890625 -21.3125 30.203125 -21.59375 C 30.523438 -21.875 30.726562 -22.09375 30.8125 -22.25 C 30.925781 -22.457031 31.101562 -22.738281 31.34375 -23.09375 C 31.582031 -23.445312 31.90625 -23.863281 32.3125 -24.34375 L 32.3125 -24.59375 C 32.3125 -24.945312 32.328125 -25.332031 32.359375 -25.75 C 32.398438 -26.175781 32.421875 -26.585938 32.421875 -26.984375 C 32.421875 -27.304688 32.398438 -27.546875 32.359375 -27.703125 Z M 44.265625 -4.484375 C 45.109375 -4.921875 45.53125 -5.78125 45.53125 -7.0625 C 45.53125 -7.9375 45.179688 -8.59375 44.484375 -9.03125 C 43.785156 -9.46875 42.828125 -9.773438 41.609375 -9.953125 C 40.390625 -10.140625 38.972656 -10.242188 37.359375 -10.265625 C 35.742188 -10.285156 34.039062 -10.332031 32.25 -10.40625 C 32.289062 -11.082031 32.316406 -11.898438 32.328125 -12.859375 C 32.347656 -13.816406 32.359375 -14.851562 32.359375 -15.96875 C 32.359375 -17.445312 32.160156 -18.453125 31.765625 -18.984375 C 31.367188 -19.523438 30.710938 -19.796875 29.796875 -19.796875 C 28.441406 -19.796875 27.601562 -19.503906 27.28125 -18.921875 C 26.957031 -18.347656 26.796875 -17.566406 26.796875 -16.578125 C 26.796875 -15.253906 26.828125 -14.289062 26.890625 -13.6875 C 26.953125 -13.09375 26.984375 -12.695312 26.984375 -12.5 C 26.984375 -11.820312 26.921875 -11.1875 26.796875 -10.59375 L 22.4375 -10.59375 L 22.4375 -12.140625 C 22.4375 -12.460938 22.425781 -13.039062 22.40625 -13.875 C 22.382812 -14.71875 22.289062 -15.566406 22.125 -16.421875 C 21.96875 -17.273438 21.707031 -18.039062 21.34375 -18.71875 C 20.988281 -19.40625 20.472656 -19.75 19.796875 -19.75 C 19.117188 -19.75 18.472656 -19.554688 17.859375 -19.171875 C 17.242188 -18.796875 16.851562 -18.488281 16.6875 -18.25 C 16.644531 -17.925781 16.601562 -17.4375 16.5625 -16.78125 C 16.53125 -16.125 16.515625 -15.335938 16.515625 -14.421875 C 16.515625 -13.785156 16.53125 -13.265625 16.5625 -12.859375 C 16.601562 -12.460938 16.644531 -12.132812 16.6875 -11.875 C 16.726562 -11.613281 16.769531 -11.363281 16.8125 -11.125 C 16.851562 -10.882812 16.875 -10.625 16.875 -10.34375 L 13.765625 -10.34375 C 13.117188 -10.34375 12.597656 -10.363281 12.203125 -10.40625 C 11.804688 -10.445312 11.53125 -10.445312 11.375 -10.40625 C 10.8125 -10.289062 9.769531 -10.234375 8.25 -10.234375 L 7.171875 -10.234375 C 5.898438 -10.234375 4.984375 -10.003906 4.421875 -9.546875 C 3.867188 -9.085938 3.59375 -8.316406 3.59375 -7.234375 C 3.59375 -6.398438 3.898438 -5.789062 4.515625 -5.40625 C 5.128906 -5.03125 6.394531 -4.84375 8.3125 -4.84375 L 11.671875 -5.03125 C 11.910156 -4.988281 12.1875 -4.957031 12.5 -4.9375 C 12.820312 -4.914062 13.179688 -4.90625 13.578125 -4.90625 C 14.015625 -4.90625 14.484375 -4.925781 14.984375 -4.96875 C 15.484375 -5.007812 15.875 -5.03125 16.15625 -5.03125 C 16.351562 -5.03125 16.5 -5.019531 16.59375 -5 C 16.695312 -4.976562 16.789062 -4.96875 16.875 -4.96875 C 17.070312 -4.96875 17.476562 -4.976562 18.09375 -5 C 18.71875 -5.019531 19.382812 -5.046875 20.09375 -5.078125 C 20.8125 -5.117188 21.476562 -5.160156 22.09375 -5.203125 C 22.71875 -5.242188 23.128906 -5.285156 23.328125 -5.328125 C 23.609375 -5.285156 24.128906 -5.242188 24.890625 -5.203125 C 25.648438 -5.160156 26.425781 -5.128906 27.21875 -5.109375 C 28.019531 -5.085938 28.726562 -5.066406 29.34375 -5.046875 C 29.957031 -5.035156 30.285156 -5.03125 30.328125 -5.03125 L 31.890625 -5.03125 C 32.804688 -5.03125 33.769531 -4.976562 34.78125 -4.875 C 35.800781 -4.769531 36.628906 -4.71875 37.265625 -4.71875 C 37.472656 -4.71875 37.644531 -4.726562 37.78125 -4.75 C 37.914062 -4.769531 38.046875 -4.78125 38.171875 -4.78125 C 38.367188 -4.738281 38.664062 -4.695312 39.0625 -4.65625 C 39.46875 -4.625 39.910156 -4.585938 40.390625 -4.546875 C 40.867188 -4.503906 41.351562 -4.472656 41.84375 -4.453125 C 42.34375 -4.429688 42.8125 -4.421875 43.25 -4.421875 C 43.769531 -4.421875 44.109375 -4.441406 44.265625 -4.484375 Z M 26.75 -26.203125 C 26.707031 -26.085938 26.503906 -25.847656 26.140625 -25.484375 C 25.785156 -25.128906 25.289062 -24.953125 24.65625 -24.953125 C 24.445312 -24.953125 24.125 -25.007812 23.6875 -25.125 C 23.25 -25.25 22.953125 -25.585938 22.796875 -26.140625 C 22.835938 -26.703125 22.976562 -27.238281 23.21875 -27.75 C 23.457031 -28.269531 23.796875 -28.570312 24.234375 -28.65625 C 24.628906 -28.613281 24.992188 -28.582031 25.328125 -28.5625 C 25.671875 -28.539062 25.941406 -28.476562 26.140625 -28.375 C 26.335938 -28.28125 26.492188 -28.101562 26.609375 -27.84375 C 26.734375 -27.59375 26.796875 -27.226562 26.796875 -26.75 C 26.796875 -26.425781 26.78125 -26.242188 26.75 -26.203125 Z M 26.75 -26.203125 "/></g></g></g><g fill="#8b6243" fill-opacity="1"><g transform="translate(572.129989, 233.299896)"><g><path d="M 26.5625 -26.859375 C 26.28125 -25.785156 26.007812 -24.816406 25.75 -23.953125 C 25.488281 -23.097656 25.160156 -22.320312 24.765625 -21.625 C 24.367188 -20.925781 23.878906 -20.265625 23.296875 -19.640625 C 22.722656 -19.023438 22 -18.421875 21.125 -17.828125 C 19.925781 -17.023438 19.035156 -16.34375 18.453125 -15.78125 C 17.878906 -15.226562 17.484375 -14.734375 17.265625 -14.296875 C 17.046875 -13.859375 16.941406 -13.445312 16.953125 -13.0625 C 16.972656 -12.6875 16.96875 -12.300781 16.9375 -11.90625 C 16.570312 -10.59375 15.632812 -9.9375 14.125 -9.9375 C 13.082031 -9.9375 12.410156 -10.285156 12.109375 -10.984375 C 11.816406 -11.679688 11.671875 -12.40625 11.671875 -13.15625 C 11.671875 -13.71875 11.75 -14.335938 11.90625 -15.015625 C 12.0625 -15.691406 12.316406 -16.359375 12.671875 -17.015625 C 13.035156 -17.679688 13.515625 -18.332031 14.109375 -18.96875 C 14.710938 -19.601562 15.453125 -20.160156 16.328125 -20.640625 C 17.722656 -21.441406 18.742188 -22.238281 19.390625 -23.03125 C 19.546875 -23.1875 20.140625 -24.484375 21.171875 -26.921875 C 21.097656 -27.753906 20.878906 -28.441406 20.515625 -28.984375 C 20.160156 -29.523438 19.742188 -29.941406 19.265625 -30.234375 C 18.785156 -30.535156 18.296875 -30.742188 17.796875 -30.859375 C 17.296875 -30.984375 16.90625 -31.046875 16.625 -31.046875 C 16.070312 -31.046875 15.554688 -30.992188 15.078125 -30.890625 C 14.597656 -30.796875 14.128906 -30.578125 13.671875 -30.234375 C 13.210938 -29.898438 12.753906 -29.40625 12.296875 -28.75 C 11.835938 -28.09375 11.347656 -27.222656 10.828125 -26.140625 C 10.390625 -25.546875 9.753906 -25.25 8.921875 -25.25 C 8.160156 -25.25 7.476562 -25.503906 6.875 -26.015625 C 6.28125 -26.535156 5.984375 -27.253906 5.984375 -28.171875 C 6.660156 -30.085938 7.488281 -31.582031 8.46875 -32.65625 C 9.445312 -33.738281 10.441406 -34.554688 11.453125 -35.109375 C 12.472656 -35.671875 13.460938 -36.019531 14.421875 -36.15625 C 15.378906 -36.300781 16.15625 -36.375 16.75 -36.375 C 18.539062 -36.375 19.992188 -36.113281 21.109375 -35.59375 C 22.234375 -35.070312 23.15625 -34.382812 23.875 -33.53125 C 24.59375 -32.675781 25.140625 -31.671875 25.515625 -30.515625 C 25.890625 -29.359375 26.238281 -28.140625 26.5625 -26.859375 Z M 17.53125 -1.203125 C 17.53125 -0.835938 17.421875 -0.472656 17.203125 -0.109375 C 16.984375 0.242188 16.703125 0.550781 16.359375 0.8125 C 16.023438 1.070312 15.644531 1.289062 15.21875 1.46875 C 14.800781 1.644531 14.414062 1.734375 14.0625 1.734375 C 13.101562 1.734375 12.320312 1.601562 11.71875 1.34375 C 11.125 1.082031 10.675781 0.753906 10.375 0.359375 C 10.082031 -0.0351562 9.882812 -0.460938 9.78125 -0.921875 C 9.675781 -1.378906 9.625 -1.8125 9.625 -2.21875 C 9.625 -3.207031 9.960938 -4.148438 10.640625 -5.046875 C 11.328125 -5.953125 12.207031 -6.40625 13.28125 -6.40625 C 13.632812 -6.40625 14.0625 -6.363281 14.5625 -6.28125 C 15.0625 -6.195312 15.53125 -5.972656 15.96875 -5.609375 C 16.40625 -5.253906 16.773438 -4.726562 17.078125 -4.03125 C 17.378906 -3.332031 17.53125 -2.390625 17.53125 -1.203125 Z M 17.53125 -1.203125 "/></g></g></g></svg>