<svg xmlns="http://www.w3.org/2000/svg" xmlns:xlink="http://www.w3.org/1999/xlink" width="883" zoomAndPan="magnify" viewBox="0 0 662.25 252.749997" height="337" preserveAspectRatio="xMidYMid meet" version="1.0"><defs><g/><clipPath id="e94109bc54"><path d="M 258.28125 0.0195312 L 372 0.0195312 L 372 152.84375 L 258.28125 152.84375 Z M 258.28125 0.0195312 " clip-rule="nonzero"/></clipPath></defs><g clip-path="url(#e94109bc54)"><path fill="#744c28" d="M 304.535156 19.597656 C 305.164062 15.839844 305.691406 12.277344 306.382812 8.746094 C 306.679688 7.304688 307.144531 5.921875 307.777344 4.589844 C 307.914062 4.242188 308.082031 3.910156 308.277344 3.589844 C 308.472656 3.269531 308.699219 2.972656 308.949219 2.695312 C 309.199219 2.414062 309.476562 2.164062 309.773438 1.933594 C 310.070312 1.707031 310.386719 1.507812 310.71875 1.335938 C 311.050781 1.164062 311.398438 1.023438 311.757812 0.917969 C 312.117188 0.808594 312.484375 0.734375 312.855469 0.695312 C 313.226562 0.652344 313.601562 0.644531 313.976562 0.671875 C 314.347656 0.699219 314.71875 0.757812 315.078125 0.851562 C 317.597656 1.335938 320.101562 1.910156 322.605469 2.457031 C 323.9375 2.714844 325.285156 2.9375 326.632812 3.082031 C 329.699219 3.339844 330.96875 5.3125 330.292969 8.363281 C 329.507812 11.859375 328.898438 15.421875 328.238281 18.96875 C 328.195312 19.570312 328.195312 20.167969 328.238281 20.769531 C 330.132812 21.136719 331.976562 21.425781 333.773438 21.875 C 338.707031 22.9375 343.472656 24.5 348.074219 26.5625 C 351.171875 28.113281 354.035156 30.023438 356.660156 32.289062 C 361.359375 36.164062 365.167969 40.777344 368.085938 46.121094 C 369.515625 48.730469 370.554688 51.488281 371.207031 54.390625 C 371.859375 57.292969 372.097656 60.226562 371.921875 63.199219 C 371.921875 64.511719 371.761719 65.8125 371.597656 67.113281 C 371.53125 67.902344 371.3125 68.644531 370.941406 69.34375 C 370.3125 70.523438 370.09375 71.777344 370.285156 73.097656 C 371.03125 83.433594 370.398438 93.683594 368.390625 103.847656 C 366.710938 112.542969 363.601562 120.695312 359.066406 128.304688 C 357.027344 131.667969 354.761719 134.878906 352.277344 137.929688 C 350.761719 139.808594 349.078125 141.523438 347.230469 143.078125 C 345.378906 144.632812 343.402344 145.996094 341.289062 147.167969 C 339.179688 148.339844 336.976562 149.300781 334.683594 150.050781 C 332.386719 150.800781 330.042969 151.324219 327.644531 151.621094 C 320.4375 152.589844 313.253906 152.445312 306.09375 151.1875 C 299.753906 150.152344 293.714844 148.195312 287.976562 145.3125 C 284.882812 143.832031 281.976562 142.042969 279.257812 139.953125 C 276.542969 137.859375 274.070312 135.507812 271.847656 132.898438 C 269.621094 130.285156 267.695312 127.472656 266.0625 124.457031 C 264.429688 121.441406 263.125 118.289062 262.15625 115 C 260.371094 109.503906 259.300781 103.871094 258.945312 98.101562 C 258.382812 90.902344 258.269531 83.699219 258.609375 76.484375 C 259.019531 71.84375 259.75 67.253906 260.808594 62.714844 C 260.933594 62.257812 260.996094 61.792969 261 61.320312 C 260.996094 60.863281 260.851562 60.457031 260.566406 60.101562 C 259.980469 59.523438 259.535156 58.851562 259.230469 58.085938 C 258.929688 57.320312 258.796875 56.527344 258.832031 55.703125 C 258.675781 51.890625 259.296875 48.210938 260.695312 44.664062 C 262.28125 40.652344 264.351562 36.90625 266.90625 33.429688 C 270.460938 29.144531 274.742188 25.78125 279.742188 23.335938 C 280.144531 23.09375 280.578125 22.902344 280.996094 22.675781 C 282.671875 21.785156 284.414062 21.042969 286.21875 20.453125 C 288.023438 19.859375 289.867188 19.425781 291.75 19.152344 C 293.628906 18.878906 295.519531 18.769531 297.417969 18.824219 C 299.316406 18.875 301.199219 19.089844 303.058594 19.46875 C 303.621094 19.5 304.023438 19.597656 304.535156 19.597656 Z M 362.804688 74.640625 C 362.484375 74.695312 362.167969 74.769531 361.859375 74.863281 C 356.867188 76.621094 351.726562 77.453125 346.4375 77.367188 C 339.070312 77.367188 331.6875 77.207031 324.324219 77.09375 C 315.707031 77.027344 307.238281 75.867188 298.917969 73.613281 C 290.726562 71.320312 282.703125 68.542969 274.847656 65.285156 C 272.777344 64.433594 270.675781 63.679688 268.589844 62.828125 C 268.589844 62.925781 268.429688 62.988281 268.414062 63.085938 C 267.417969 67.363281 266.675781 71.6875 266.183594 76.050781 C 265.785156 83.054688 265.855469 90.050781 266.390625 97.042969 C 266.71875 102.871094 267.835938 108.546875 269.746094 114.070312 C 274.304688 127.546875 283.691406 136.117188 296.769531 140.996094 C 301.269531 142.625 305.894531 143.695312 310.652344 144.207031 C 317.433594 145.113281 324.152344 144.765625 330.804688 143.164062 C 333.390625 142.527344 335.832031 141.539062 338.132812 140.203125 C 340.429688 138.871094 342.5 137.242188 344.335938 135.316406 C 348.273438 131.152344 351.585938 126.539062 354.277344 121.476562 C 356.96875 116.417969 358.9375 111.09375 360.191406 105.5 C 361.160156 101.160156 361.902344 96.785156 362.421875 92.371094 C 363.042969 86.472656 363.171875 80.5625 362.804688 74.640625 Z M 266.40625 53.296875 C 268.316406 54.164062 269.90625 54.902344 271.527344 55.640625 C 279.609375 59.261719 287.882812 62.367188 296.351562 64.960938 C 300.558594 66.214844 304.839844 67.273438 309.191406 68.171875 C 315.855469 69.320312 322.570312 69.820312 329.332031 69.664062 C 335.75 69.664062 342.167969 69.777344 348.585938 69.777344 C 353.667969 69.605469 358.53125 68.488281 363.175781 66.421875 C 363.464844 66.289062 363.742188 66.132812 364.007812 65.957031 C 364.277344 64.398438 364.402344 62.832031 364.378906 61.25 C 364.355469 59.667969 364.1875 58.101562 363.875 56.554688 C 363.558594 55.003906 363.105469 53.496094 362.507812 52.03125 C 361.914062 50.566406 361.1875 49.167969 360.335938 47.839844 C 357.988281 44.074219 355.105469 40.777344 351.683594 37.953125 C 348.972656 35.527344 345.921875 33.644531 342.539062 32.304688 C 337.097656 30.1875 331.472656 28.800781 325.671875 28.148438 C 325.136719 28.15625 324.625 28.050781 324.132812 27.835938 C 323.644531 27.617188 323.21875 27.3125 322.863281 26.914062 C 321.5625 25.53125 320.824219 23.894531 320.648438 22.003906 C 320.5625 19.382812 320.761719 16.78125 321.242188 14.203125 C 321.5 12.839844 321.753906 11.476562 322.011719 10.03125 L 314.195312 8.363281 C 313.765625 10.433594 313.28125 12.292969 313.007812 14.203125 C 312.511719 17.621094 312.191406 21.054688 311.710938 24.457031 C 311.695312 24.757812 311.644531 25.046875 311.5625 25.335938 C 311.480469 25.621094 311.367188 25.894531 311.21875 26.152344 C 311.074219 26.410156 310.898438 26.652344 310.699219 26.871094 C 310.496094 27.089844 310.273438 27.28125 310.023438 27.449219 C 309.777344 27.617188 309.515625 27.753906 309.238281 27.859375 C 308.960938 27.964844 308.671875 28.039062 308.378906 28.078125 C 308.082031 28.121094 307.785156 28.125 307.492188 28.097656 C 307.195312 28.066406 306.90625 28.003906 306.621094 27.910156 C 304.777344 27.492188 302.964844 26.996094 301.101562 26.738281 C 296.734375 25.9375 292.457031 26.265625 288.265625 27.730469 C 283.949219 29.429688 279.96875 31.714844 276.324219 34.585938 C 275.265625 35.445312 274.304688 36.402344 273.4375 37.457031 C 270.605469 41.035156 268.496094 45 267.113281 49.347656 C 266.777344 50.644531 266.539062 51.960938 266.40625 53.296875 Z M 326.730469 98.9375 C 326.804688 98.449219 326.785156 97.96875 326.671875 97.492188 C 326.5625 97.015625 326.367188 96.574219 326.085938 96.175781 C 325.804688 95.773438 325.457031 95.4375 325.050781 95.167969 C 324.640625 94.898438 324.195312 94.714844 323.714844 94.617188 C 323.230469 94.542969 322.75 94.5625 322.269531 94.671875 C 321.792969 94.78125 321.351562 94.972656 320.949219 95.25 C 320.542969 95.527344 320.207031 95.871094 319.929688 96.277344 C 319.65625 96.683594 319.46875 97.125 319.363281 97.605469 C 319.285156 97.910156 319.269531 98.230469 319.171875 98.535156 C 319.019531 99.03125 318.816406 99.507812 318.5625 99.960938 C 317.433594 101.714844 315.949219 103.082031 314.117188 104.070312 C 313.109375 104.660156 312.039062 104.816406 310.90625 104.535156 C 310.199219 104.398438 309.523438 104.160156 308.878906 103.828125 C 308.238281 103.492188 307.65625 103.074219 307.136719 102.574219 C 306.613281 102.074219 306.171875 101.511719 305.8125 100.882812 C 305.453125 100.257812 305.1875 99.589844 305.019531 98.886719 C 304.808594 98.132812 304.714844 97.28125 304.519531 96.59375 C 304.40625 96.046875 304.179688 95.554688 303.839844 95.109375 C 303.503906 94.664062 303.089844 94.316406 302.59375 94.058594 C 302.011719 93.722656 301.382812 93.570312 300.710938 93.601562 C 300.039062 93.628906 299.425781 93.835938 298.871094 94.21875 C 298.566406 94.421875 298.296875 94.667969 298.066406 94.953125 C 297.832031 95.238281 297.644531 95.550781 297.5 95.886719 C 297.359375 96.226562 297.265625 96.578125 297.226562 96.945312 C 297.1875 97.3125 297.199219 97.675781 297.265625 98.035156 C 297.347656 99.230469 297.5625 100.398438 297.917969 101.539062 C 298.273438 102.679688 298.753906 103.765625 299.367188 104.792969 C 299.976562 105.820312 300.699219 106.761719 301.53125 107.617188 C 302.363281 108.476562 303.285156 109.222656 304.296875 109.863281 C 305.039062 110.40625 305.835938 110.859375 306.679688 111.222656 C 307.527344 111.589844 308.398438 111.859375 309.304688 112.03125 C 310.207031 112.207031 311.121094 112.277344 312.039062 112.25 C 312.960938 112.222656 313.867188 112.097656 314.757812 111.871094 C 316.003906 111.496094 317.199219 110.996094 318.339844 110.371094 C 319.480469 109.742188 320.542969 109 321.523438 108.148438 C 322.507812 107.292969 323.386719 106.347656 324.167969 105.304688 C 324.949219 104.261719 325.609375 103.152344 326.152344 101.96875 C 326.402344 100.96875 326.59375 99.957031 326.730469 98.9375 Z M 333.148438 95.324219 C 333.167969 95.75 333.277344 96.152344 333.46875 96.527344 C 333.71875 97.152344 334.113281 97.660156 334.652344 98.054688 C 335.195312 98.449219 335.800781 98.667969 336.472656 98.710938 C 336.8125 98.757812 337.148438 98.753906 337.488281 98.695312 C 337.824219 98.640625 338.148438 98.535156 338.453125 98.382812 C 338.761719 98.230469 339.035156 98.035156 339.285156 97.796875 C 339.53125 97.5625 339.738281 97.292969 339.90625 96.992188 C 340.207031 96.496094 340.410156 95.960938 340.515625 95.390625 C 340.867188 93.125 341.222656 90.863281 341.445312 88.585938 C 341.515625 88.113281 341.492188 87.644531 341.378906 87.183594 C 341.265625 86.71875 341.070312 86.296875 340.789062 85.910156 C 340.507812 85.523438 340.164062 85.207031 339.757812 84.957031 C 339.351562 84.703125 338.914062 84.539062 338.445312 84.460938 C 336.679688 84.109375 334.996094 85.132812 334.082031 87.429688 C 333.503906 90.03125 333.1875 92.660156 333.132812 95.324219 Z M 293.882812 84.683594 C 293.914062 84.476562 293.914062 84.269531 293.882812 84.058594 C 293.808594 83.65625 293.671875 83.277344 293.476562 82.921875 C 293.277344 82.5625 293.03125 82.246094 292.726562 81.96875 C 292.425781 81.695312 292.089844 81.476562 291.714844 81.3125 C 291.339844 81.144531 290.949219 81.046875 290.542969 81.011719 C 290.136719 80.976562 289.734375 81.007812 289.339844 81.109375 C 288.945312 81.207031 288.578125 81.371094 288.238281 81.59375 C 287.894531 81.816406 287.601562 82.09375 287.351562 82.414062 C 287.105469 82.738281 286.917969 83.09375 286.789062 83.480469 C 286.625 83.980469 286.511719 84.488281 286.449219 85.007812 C 286.210938 86.609375 285.96875 88.214844 285.746094 89.820312 C 285.644531 90.441406 285.601562 91.070312 285.617188 91.699219 C 285.621094 92.132812 285.695312 92.550781 285.847656 92.960938 C 285.996094 93.367188 286.210938 93.734375 286.492188 94.066406 C 286.773438 94.398438 287.101562 94.671875 287.476562 94.886719 C 287.851562 95.105469 288.253906 95.25 288.679688 95.324219 C 289.128906 95.375 289.570312 95.34375 290.011719 95.238281 C 290.449219 95.132812 290.855469 94.953125 291.230469 94.703125 C 291.605469 94.457031 291.925781 94.148438 292.195312 93.789062 C 292.460938 93.425781 292.660156 93.027344 292.789062 92.597656 C 293.421875 89.996094 293.785156 87.359375 293.882812 84.683594 Z M 293.882812 84.683594 " fill-opacity="1" fill-rule="nonzero"/></g><g fill="#8b6243" fill-opacity="1"><g transform="translate(59.624037, 217.654233)"><g><path d="M 13.84375 -16.125 C 13.6875 -15.726562 13.488281 -15.367188 13.25 -15.046875 C 13.050781 -14.765625 12.800781 -14.523438 12.5 -14.328125 C 12.195312 -14.128906 11.828125 -14.03125 11.390625 -14.03125 C 10.867188 -14.03125 10.488281 -14.257812 10.25 -14.71875 C 10.007812 -15.175781 9.890625 -15.523438 9.890625 -15.765625 C 9.890625 -15.878906 9.925781 -16.085938 10 -16.390625 C 10.082031 -16.691406 10.242188 -17.101562 10.484375 -17.625 C 11.566406 -18.019531 12.347656 -18.21875 12.828125 -18.21875 C 13.179688 -18.019531 13.4375 -17.648438 13.59375 -17.109375 C 13.757812 -16.566406 13.84375 -16.238281 13.84375 -16.125 Z M 14.6875 -27.8125 C 14.007812 -27.925781 13.398438 -28.023438 12.859375 -28.109375 C 12.316406 -28.191406 11.742188 -28.269531 11.140625 -28.34375 C 10.546875 -28.425781 9.847656 -28.503906 9.046875 -28.578125 C 8.253906 -28.660156 7.238281 -28.804688 6 -29.015625 L 5.15625 -29.015625 C 4.3125 -29.015625 3.679688 -29.003906 3.265625 -28.984375 C 2.847656 -28.960938 2.53125 -28.890625 2.3125 -28.765625 C 2.09375 -28.648438 1.898438 -28.484375 1.734375 -28.265625 C 1.578125 -28.046875 1.359375 -27.734375 1.078125 -27.328125 C 0.753906 -26.890625 0.59375 -26.429688 0.59375 -25.953125 C 0.59375 -24.796875 1.160156 -24.054688 2.296875 -23.734375 C 3.441406 -23.410156 5.035156 -23.25 7.078125 -23.25 L 8.625 -23.25 C 9.3125 -23.25 9.921875 -23.226562 10.453125 -23.1875 C 10.992188 -23.15625 11.644531 -23.039062 12.40625 -22.84375 C 11.488281 -22.800781 10.628906 -22.71875 9.828125 -22.59375 C 9.023438 -22.476562 8.296875 -22.207031 7.640625 -21.78125 C 6.984375 -21.363281 6.394531 -20.742188 5.875 -19.921875 C 5.351562 -19.109375 4.914062 -18.019531 4.5625 -16.65625 C 4.675781 -15.820312 4.78125 -15.0625 4.875 -14.375 C 4.976562 -13.695312 5.179688 -13.078125 5.484375 -12.515625 C 5.785156 -11.960938 6.253906 -11.445312 6.890625 -10.96875 C 7.535156 -10.488281 8.457031 -10.007812 9.65625 -9.53125 C 9.65625 -9.445312 9.832031 -9.40625 10.1875 -9.40625 C 10.382812 -9.40625 10.65625 -9.425781 11 -9.46875 C 11.34375 -9.507812 11.679688 -9.554688 12.015625 -9.609375 C 12.359375 -9.671875 12.660156 -9.722656 12.921875 -9.765625 C 13.179688 -9.804688 13.328125 -9.828125 13.359375 -9.828125 L 13.484375 -9.828125 C 14.085938 -9.910156 14.664062 -10.140625 15.21875 -10.515625 C 15.78125 -10.898438 16.289062 -11.332031 16.75 -11.8125 C 17.207031 -12.289062 17.585938 -12.738281 17.890625 -13.15625 C 18.191406 -13.570312 18.363281 -13.863281 18.40625 -14.03125 C 18.4375 -14.425781 18.675781 -15.203125 19.125 -16.359375 C 18.84375 -16.765625 18.640625 -17.253906 18.515625 -17.828125 C 18.398438 -18.410156 18.242188 -18.878906 18.046875 -19.234375 C 17.921875 -19.597656 17.46875 -20.097656 16.6875 -20.734375 C 15.914062 -21.378906 15.128906 -21.976562 14.328125 -22.53125 C 14.960938 -22.457031 15.640625 -22.367188 16.359375 -22.265625 C 17.078125 -22.160156 17.773438 -22.109375 18.453125 -22.109375 C 19.335938 -22.109375 20.078125 -22.191406 20.671875 -22.359375 C 20.910156 -22.796875 21.148438 -23.289062 21.390625 -23.84375 C 21.628906 -24.40625 21.75 -24.988281 21.75 -25.59375 C 21.75 -25.875 21.578125 -26.132812 21.234375 -26.375 C 20.898438 -26.613281 20.484375 -26.8125 19.984375 -26.96875 C 19.484375 -27.132812 18.941406 -27.273438 18.359375 -27.390625 C 17.785156 -27.515625 17.238281 -27.613281 16.71875 -27.6875 C 18 -28.570312 18.640625 -29.472656 18.640625 -30.390625 C 18.640625 -30.429688 18.609375 -30.570312 18.546875 -30.8125 C 18.484375 -31.050781 18.269531 -31.390625 17.90625 -31.828125 C 17.550781 -32.265625 17.003906 -32.800781 16.265625 -33.4375 C 15.535156 -34.082031 14.488281 -34.804688 13.125 -35.609375 L 11.515625 -36.625 C 10.992188 -36.820312 10.550781 -36.921875 10.1875 -36.921875 C 9.382812 -36.921875 8.773438 -36.550781 8.359375 -35.8125 C 7.941406 -35.070312 7.734375 -34.363281 7.734375 -33.6875 C 7.734375 -33.25 7.84375 -32.804688 8.0625 -32.359375 C 8.28125 -31.921875 8.769531 -31.5625 9.53125 -31.28125 C 10.332031 -30.96875 10.890625 -30.59375 11.203125 -30.15625 C 11.367188 -29.988281 11.828125 -29.675781 12.578125 -29.21875 C 13.335938 -28.757812 14.039062 -28.289062 14.6875 -27.8125 Z M 45.546875 -17.6875 C 45.546875 -18.125 45.566406 -18.5625 45.609375 -19 C 45.648438 -19.4375 45.671875 -19.875 45.671875 -20.3125 C 45.671875 -21.113281 45.59375 -21.894531 45.4375 -22.65625 C 45.476562 -22.8125 45.5 -23.070312 45.5 -23.4375 C 45.5 -24.195312 45.40625 -25.046875 45.21875 -25.984375 C 45.039062 -26.921875 44.890625 -27.847656 44.765625 -28.765625 C 44.285156 -29.367188 43.566406 -29.671875 42.609375 -29.671875 C 41.691406 -29.671875 40.941406 -29.519531 40.359375 -29.21875 C 39.785156 -28.914062 39.5 -28.367188 39.5 -27.578125 C 39.5 -26.773438 39.535156 -25.941406 39.609375 -25.078125 C 39.691406 -24.222656 39.851562 -23.335938 40.09375 -22.421875 C 40.050781 -22.296875 40.03125 -22.070312 40.03125 -21.75 C 38.914062 -21.675781 38.023438 -21.554688 37.359375 -21.390625 C 36.703125 -21.234375 35.957031 -21.15625 35.125 -21.15625 L 35.125 -22.0625 C 35.125 -23.738281 34.953125 -25.320312 34.609375 -26.8125 C 34.273438 -28.3125 33.882812 -29.664062 33.4375 -30.875 C 32.757812 -31.59375 31.921875 -31.953125 30.921875 -31.953125 C 29.085938 -31.953125 28.171875 -31.3125 28.171875 -30.03125 C 28.171875 -29.789062 28.179688 -29.609375 28.203125 -29.484375 C 28.222656 -29.367188 28.257812 -29.226562 28.3125 -29.0625 C 28.375 -28.90625 28.445312 -28.664062 28.53125 -28.34375 C 28.613281 -28.03125 28.691406 -27.550781 28.765625 -26.90625 C 29.046875 -25.46875 29.253906 -24.28125 29.390625 -23.34375 C 29.535156 -22.40625 29.609375 -21.597656 29.609375 -20.921875 C 29.609375 -20.441406 29.578125 -19.84375 29.515625 -19.125 C 29.453125 -18.40625 29.441406 -17.765625 29.484375 -17.203125 L 29.484375 -16.96875 C 29.484375 -16.84375 29.472656 -16.570312 29.453125 -16.15625 C 29.429688 -15.738281 29.410156 -15.269531 29.390625 -14.75 C 29.378906 -14.226562 29.363281 -13.726562 29.34375 -13.25 C 29.320312 -12.769531 29.3125 -12.390625 29.3125 -12.109375 C 29.3125 -11.953125 29.320312 -11.8125 29.34375 -11.6875 C 29.363281 -11.570312 29.375 -11.472656 29.375 -11.390625 C 29.332031 -11.191406 29.28125 -10.832031 29.21875 -10.3125 C 29.15625 -9.789062 29.09375 -9.238281 29.03125 -8.65625 C 28.976562 -8.082031 28.929688 -7.515625 28.890625 -6.953125 C 28.847656 -6.390625 28.828125 -5.96875 28.828125 -5.6875 C 28.828125 -5.007812 29.132812 -4.570312 29.75 -4.375 C 30.375 -4.175781 30.988281 -4.078125 31.59375 -4.078125 C 32.226562 -4.078125 32.742188 -4.222656 33.140625 -4.515625 C 33.546875 -4.816406 33.847656 -5.207031 34.046875 -5.6875 L 34.40625 -7.96875 C 34.644531 -9.488281 34.785156 -10.816406 34.828125 -11.953125 C 34.867188 -13.097656 34.90625 -14.328125 34.9375 -15.640625 L 39.5 -16.1875 L 40.03125 -16.1875 C 40.03125 -15.820312 40.03125 -15.421875 40.03125 -14.984375 C 40.03125 -14.546875 40.03125 -14.132812 40.03125 -13.75 C 40.03125 -13.375 40.019531 -13.054688 40 -12.796875 C 39.988281 -12.535156 39.984375 -12.382812 39.984375 -12.34375 L 39.984375 -11.875 C 39.984375 -11.269531 39.910156 -10.554688 39.765625 -9.734375 C 39.628906 -8.921875 39.5625 -8.171875 39.5625 -7.484375 C 39.5625 -6.847656 39.757812 -6.25 40.15625 -5.6875 C 40.550781 -5.132812 41.3125 -4.859375 42.4375 -4.859375 C 43 -4.859375 43.4375 -4.988281 43.75 -5.25 C 44.070312 -5.507812 44.332031 -5.9375 44.53125 -6.53125 C 44.726562 -7.132812 44.878906 -7.90625 44.984375 -8.84375 C 45.085938 -9.78125 45.195312 -10.910156 45.3125 -12.234375 L 45.546875 -14.796875 C 45.585938 -15.117188 45.617188 -15.421875 45.640625 -15.703125 C 45.660156 -15.984375 45.671875 -16.242188 45.671875 -16.484375 C 45.671875 -16.722656 45.660156 -16.929688 45.640625 -17.109375 C 45.617188 -17.285156 45.585938 -17.476562 45.546875 -17.6875 Z M 45.546875 -17.6875 "/></g></g></g><g fill="#8b6243" fill-opacity="1"><g transform="translate(108.768337, 217.654233)"><g><path d="M 49.515625 -22.296875 C 50.347656 -22.773438 50.765625 -23.375 50.765625 -24.09375 C 50.765625 -24.851562 50.65625 -25.441406 50.4375 -25.859375 C 50.21875 -26.285156 49.945312 -26.609375 49.625 -26.828125 C 49.3125 -27.046875 48.960938 -27.179688 48.578125 -27.234375 C 48.203125 -27.296875 47.875 -27.328125 47.59375 -27.328125 C 47.070312 -27.328125 46.550781 -27.296875 46.03125 -27.234375 C 45.507812 -27.179688 45.085938 -27.113281 44.765625 -27.03125 L 44.234375 -27.03125 C 43.597656 -27.03125 43.03125 -27 42.53125 -26.9375 C 42.03125 -26.882812 41.539062 -26.804688 41.0625 -26.703125 C 40.582031 -26.597656 40.09375 -26.515625 39.59375 -26.453125 C 39.09375 -26.398438 38.539062 -26.375 37.9375 -26.375 L 37.9375 -27.328125 C 37.9375 -27.609375 37.9375 -27.847656 37.9375 -28.046875 C 37.9375 -28.242188 37.898438 -28.445312 37.828125 -28.65625 C 37.828125 -28.726562 37.832031 -28.820312 37.84375 -28.9375 C 37.863281 -29.0625 37.875 -29.222656 37.875 -29.421875 C 37.875 -30.023438 37.832031 -30.734375 37.75 -31.546875 C 37.675781 -32.367188 37.578125 -33.179688 37.453125 -33.984375 C 37.335938 -34.785156 37.1875 -35.546875 37 -36.265625 C 36.820312 -36.984375 36.65625 -37.539062 36.5 -37.9375 C 35.863281 -38.613281 35.023438 -38.953125 33.984375 -38.953125 C 31.910156 -38.953125 30.875 -38.234375 30.875 -36.796875 C 30.875 -36.597656 30.890625 -36.398438 30.921875 -36.203125 C 30.960938 -36.003906 31.023438 -35.804688 31.109375 -35.609375 L 31.46875 -33.921875 C 31.789062 -32.484375 32.007812 -31.273438 32.125 -30.296875 C 32.25 -29.316406 32.3125 -28.507812 32.3125 -27.875 C 32.3125 -27.394531 32.28125 -26.796875 32.21875 -26.078125 C 32.15625 -25.359375 32.144531 -24.71875 32.1875 -24.15625 L 32.1875 -23.921875 C 32.1875 -23.796875 32.175781 -23.570312 32.15625 -23.25 C 32.132812 -22.9375 32.113281 -22.585938 32.09375 -22.203125 C 32.070312 -21.828125 32.050781 -21.4375 32.03125 -21.03125 C 32.007812 -20.632812 32 -20.316406 32 -20.078125 C 32 -19.960938 32.007812 -19.84375 32.03125 -19.71875 C 32.050781 -19.601562 32.0625 -19.503906 32.0625 -19.421875 L 31.640625 -16.71875 C 31.609375 -16.40625 31.582031 -16.109375 31.5625 -15.828125 C 31.539062 -15.546875 31.53125 -15.304688 31.53125 -15.109375 C 31.53125 -14.304688 31.796875 -13.785156 32.328125 -13.546875 C 32.867188 -13.304688 33.519531 -13.1875 34.28125 -13.1875 C 35.039062 -13.1875 35.640625 -13.375 36.078125 -13.75 C 36.515625 -14.132812 36.84375 -14.664062 37.0625 -15.34375 C 37.289062 -16.019531 37.441406 -16.828125 37.515625 -17.765625 C 37.597656 -18.710938 37.679688 -19.742188 37.765625 -20.859375 C 38.117188 -20.941406 38.535156 -20.984375 39.015625 -20.984375 C 39.492188 -20.984375 40.015625 -21.019531 40.578125 -21.09375 L 42.96875 -21.34375 L 43.328125 -21.34375 C 43.691406 -21.34375 44.101562 -21.367188 44.5625 -21.421875 C 45.019531 -21.484375 45.53125 -21.554688 46.09375 -21.640625 Z M 32.0625 -1.984375 C 32.0625 -2.054688 32.070312 -2.148438 32.09375 -2.265625 C 32.113281 -2.390625 32.125 -2.515625 32.125 -2.640625 C 32.125 -3.078125 32.082031 -3.625 32 -4.28125 C 31.925781 -4.945312 31.890625 -5.457031 31.890625 -5.8125 C 31.890625 -5.894531 31.898438 -5.972656 31.921875 -6.046875 C 31.941406 -6.128906 31.953125 -6.210938 31.953125 -6.296875 C 31.429688 -6.929688 31.039062 -7.46875 30.78125 -7.90625 C 30.519531 -8.351562 30.238281 -8.734375 29.9375 -9.046875 C 29.632812 -9.367188 29.242188 -9.640625 28.765625 -9.859375 C 28.285156 -10.078125 27.585938 -10.304688 26.671875 -10.546875 C 26.234375 -10.671875 25.832031 -10.769531 25.46875 -10.84375 C 25.113281 -10.925781 24.773438 -10.96875 24.453125 -10.96875 C 24.296875 -10.96875 24.175781 -10.945312 24.09375 -10.90625 C 24.007812 -10.863281 23.890625 -10.8125 23.734375 -10.75 C 23.578125 -10.695312 23.359375 -10.640625 23.078125 -10.578125 C 22.796875 -10.515625 22.394531 -10.460938 21.875 -10.421875 C 21.3125 -10.390625 20.921875 -10.351562 20.703125 -10.3125 C 20.484375 -10.269531 20.300781 -10.195312 20.15625 -10.09375 C 20.019531 -10 19.875 -9.84375 19.71875 -9.625 C 19.5625 -9.40625 19.28125 -9.09375 18.875 -8.6875 C 18.394531 -8.164062 18.015625 -7.710938 17.734375 -7.328125 C 17.460938 -6.953125 17.253906 -6.582031 17.109375 -6.21875 C 16.972656 -5.863281 16.894531 -5.503906 16.875 -5.140625 C 16.851562 -4.785156 16.84375 -4.390625 16.84375 -3.953125 C 16.84375 -3.273438 16.898438 -2.585938 17.015625 -1.890625 C 17.140625 -1.191406 17.28125 -0.441406 17.4375 0.359375 C 17.5625 0.515625 17.800781 0.789062 18.15625 1.1875 C 18.519531 1.59375 18.929688 2.015625 19.390625 2.453125 C 19.847656 2.890625 20.304688 3.289062 20.765625 3.65625 C 21.222656 4.019531 21.59375 4.238281 21.875 4.3125 C 22.269531 4.4375 22.726562 4.5 23.25 4.5 C 24.09375 4.5 25.015625 4.378906 26.015625 4.140625 C 27.015625 3.898438 28.09375 3.617188 29.25 3.296875 C 29.53125 2.898438 29.835938 2.429688 30.171875 1.890625 C 30.515625 1.347656 30.828125 0.828125 31.109375 0.328125 C 31.390625 -0.171875 31.617188 -0.628906 31.796875 -1.046875 C 31.972656 -1.460938 32.0625 -1.773438 32.0625 -1.984375 Z M 26.375 -4.375 C 26.414062 -4.289062 26.4375 -3.988281 26.4375 -3.46875 C 26.4375 -2.71875 26.363281 -2.171875 26.21875 -1.828125 C 26.082031 -1.484375 25.90625 -1.25 25.6875 -1.125 C 25.46875 -1.007812 25.195312 -0.960938 24.875 -0.984375 C 24.550781 -1.003906 24.210938 -0.992188 23.859375 -0.953125 C 23.296875 -1.191406 22.921875 -1.59375 22.734375 -2.15625 C 22.554688 -2.71875 22.453125 -3.28125 22.421875 -3.84375 C 22.492188 -4.5625 22.75 -5.03125 23.1875 -5.25 C 23.632812 -5.46875 24 -5.578125 24.28125 -5.578125 C 24.914062 -5.578125 25.410156 -5.425781 25.765625 -5.125 C 26.128906 -4.820312 26.332031 -4.570312 26.375 -4.375 Z M 11.8125 -21.703125 L 11.453125 -21.703125 C 11.410156 -21.703125 11.390625 -21.679688 11.390625 -21.640625 C 11.390625 -21.597656 11.457031 -21.523438 11.59375 -21.421875 C 11.738281 -21.328125 11.8125 -21.300781 11.8125 -21.34375 Z M 11.8125 -21.703125 L 11.8125 -22.890625 C 11.8125 -23.210938 11.8125 -23.523438 11.8125 -23.828125 C 11.8125 -24.128906 11.847656 -24.378906 11.921875 -24.578125 C 11.847656 -24.816406 11.8125 -25.066406 11.8125 -25.328125 C 11.8125 -25.585938 11.8125 -25.851562 11.8125 -26.125 C 11.8125 -26.8125 11.847656 -27.472656 11.921875 -28.109375 C 12.003906 -28.742188 12.085938 -29.285156 12.171875 -29.734375 C 12.960938 -29.804688 13.6875 -29.882812 14.34375 -29.96875 C 15.007812 -30.050781 15.722656 -30.113281 16.484375 -30.15625 L 19.84375 -30.6875 C 20.519531 -31.050781 20.859375 -31.8125 20.859375 -32.96875 C 20.859375 -35.082031 20.195312 -36.179688 18.875 -36.265625 L 17.015625 -35.84375 C 16.421875 -35.6875 15.882812 -35.609375 15.40625 -35.609375 C 15.164062 -35.609375 14.984375 -35.625 14.859375 -35.65625 C 14.617188 -35.582031 14.390625 -35.503906 14.171875 -35.421875 C 13.953125 -35.335938 13.648438 -35.265625 13.265625 -35.203125 C 12.890625 -35.148438 12.363281 -35.09375 11.6875 -35.03125 C 11.007812 -34.96875 10.09375 -34.9375 8.9375 -34.9375 C 8.695312 -34.9375 8.457031 -34.9375 8.21875 -34.9375 C 7.976562 -34.9375 7.753906 -34.921875 7.546875 -34.890625 C 7.472656 -34.679688 7.363281 -34.367188 7.21875 -33.953125 C 7.082031 -33.535156 6.953125 -33.066406 6.828125 -32.546875 C 6.710938 -32.023438 6.613281 -31.472656 6.53125 -30.890625 C 6.445312 -30.316406 6.40625 -29.789062 6.40625 -29.3125 C 6.40625 -28.632812 6.457031 -28.046875 6.5625 -27.546875 C 6.664062 -27.046875 6.71875 -26.554688 6.71875 -26.078125 C 6.71875 -25.515625 6.6875 -25.03125 6.625 -24.625 C 6.5625 -24.226562 6.5 -23.820312 6.4375 -23.40625 C 6.382812 -22.988281 6.335938 -22.5 6.296875 -21.9375 C 6.253906 -21.375 6.234375 -20.675781 6.234375 -19.84375 C 6.234375 -19.363281 6.320312 -18.898438 6.5 -18.453125 C 6.675781 -18.015625 6.90625 -17.519531 7.1875 -16.96875 C 7.707031 -16.726562 8.226562 -16.492188 8.75 -16.265625 C 9.269531 -16.046875 9.726562 -15.9375 10.125 -15.9375 C 10.164062 -15.9375 10.207031 -15.945312 10.25 -15.96875 C 10.289062 -15.988281 10.347656 -16 10.421875 -16 C 10.867188 -15.925781 11.300781 -15.847656 11.71875 -15.765625 C 12.132812 -15.679688 12.546875 -15.640625 12.953125 -15.640625 C 13.304688 -15.640625 13.582031 -15.679688 13.78125 -15.765625 C 14.90625 -15.523438 15.863281 -15.40625 16.65625 -15.40625 C 17.300781 -15.40625 17.863281 -15.453125 18.34375 -15.546875 C 18.820312 -15.648438 19.28125 -15.757812 19.71875 -15.875 C 20.15625 -16 20.613281 -16.109375 21.09375 -16.203125 C 21.570312 -16.304688 22.113281 -16.378906 22.71875 -16.421875 C 23.550781 -17.378906 23.96875 -18.179688 23.96875 -18.828125 C 23.96875 -19.378906 23.71875 -19.914062 23.21875 -20.4375 C 22.71875 -20.957031 22.347656 -21.296875 22.109375 -21.453125 C 21.671875 -21.453125 21.132812 -21.398438 20.5 -21.296875 C 19.863281 -21.203125 19.382812 -21.132812 19.0625 -21.09375 C 18.9375 -21.09375 18.8125 -21.101562 18.6875 -21.125 C 18.570312 -21.144531 18.457031 -21.15625 18.34375 -21.15625 C 17.9375 -21.15625 17.550781 -21.125 17.1875 -21.0625 C 16.832031 -21.007812 16.4375 -20.984375 16 -20.984375 C 14.925781 -20.984375 14.097656 -21.101562 13.515625 -21.34375 C 12.929688 -21.582031 12.363281 -21.703125 11.8125 -21.703125 Z M 11.8125 -21.703125 "/></g></g></g><g fill="#8b6243" fill-opacity="1"><g transform="translate(157.912638, 217.654233)"><g><path d="M 15.703125 -16.125 C 15.546875 -15.726562 15.347656 -15.367188 15.109375 -15.046875 C 14.898438 -14.765625 14.644531 -14.523438 14.34375 -14.328125 C 14.050781 -14.128906 13.6875 -14.03125 13.25 -14.03125 C 12.726562 -14.03125 12.347656 -14.257812 12.109375 -14.71875 C 11.867188 -15.175781 11.75 -15.523438 11.75 -15.765625 C 11.75 -15.878906 11.785156 -16.085938 11.859375 -16.390625 C 11.941406 -16.691406 12.101562 -17.101562 12.34375 -17.625 C 13.425781 -18.019531 14.207031 -18.21875 14.6875 -18.21875 C 15.039062 -18.019531 15.296875 -17.648438 15.453125 -17.109375 C 15.617188 -16.566406 15.703125 -16.238281 15.703125 -16.125 Z M 16.546875 -27.8125 C 15.867188 -27.925781 15.257812 -28.023438 14.71875 -28.109375 C 14.175781 -28.191406 13.601562 -28.269531 13 -28.34375 C 12.40625 -28.425781 11.707031 -28.503906 10.90625 -28.578125 C 10.101562 -28.660156 9.085938 -28.804688 7.859375 -29.015625 L 7.015625 -29.015625 C 6.171875 -29.015625 5.539062 -29.003906 5.125 -28.984375 C 4.707031 -28.960938 4.390625 -28.890625 4.171875 -28.765625 C 3.953125 -28.648438 3.757812 -28.484375 3.59375 -28.265625 C 3.4375 -28.046875 3.21875 -27.734375 2.9375 -27.328125 C 2.613281 -26.890625 2.453125 -26.429688 2.453125 -25.953125 C 2.453125 -24.796875 3.019531 -24.054688 4.15625 -23.734375 C 5.300781 -23.410156 6.894531 -23.25 8.9375 -23.25 L 10.484375 -23.25 C 11.171875 -23.25 11.78125 -23.226562 12.3125 -23.1875 C 12.851562 -23.15625 13.503906 -23.039062 14.265625 -22.84375 C 13.347656 -22.800781 12.488281 -22.71875 11.6875 -22.59375 C 10.882812 -22.476562 10.15625 -22.207031 9.5 -21.78125 C 8.84375 -21.363281 8.253906 -20.742188 7.734375 -19.921875 C 7.210938 -19.109375 6.769531 -18.019531 6.40625 -16.65625 C 6.53125 -15.820312 6.640625 -15.0625 6.734375 -14.375 C 6.835938 -13.695312 7.039062 -13.078125 7.34375 -12.515625 C 7.644531 -11.960938 8.113281 -11.445312 8.75 -10.96875 C 9.382812 -10.488281 10.304688 -10.007812 11.515625 -9.53125 C 11.515625 -9.445312 11.691406 -9.40625 12.046875 -9.40625 C 12.242188 -9.40625 12.507812 -9.425781 12.84375 -9.46875 C 13.1875 -9.507812 13.53125 -9.554688 13.875 -9.609375 C 14.21875 -9.671875 14.519531 -9.722656 14.78125 -9.765625 C 15.039062 -9.804688 15.1875 -9.828125 15.21875 -9.828125 L 15.34375 -9.828125 C 15.945312 -9.910156 16.523438 -10.140625 17.078125 -10.515625 C 17.640625 -10.898438 18.148438 -11.332031 18.609375 -11.8125 C 19.066406 -12.289062 19.445312 -12.738281 19.75 -13.15625 C 20.050781 -13.570312 20.222656 -13.863281 20.265625 -14.03125 C 20.296875 -14.425781 20.535156 -15.203125 20.984375 -16.359375 C 20.703125 -16.765625 20.5 -17.253906 20.375 -17.828125 C 20.257812 -18.410156 20.101562 -18.878906 19.90625 -19.234375 C 19.78125 -19.597656 19.328125 -20.097656 18.546875 -20.734375 C 17.765625 -21.378906 16.976562 -21.976562 16.1875 -22.53125 C 16.820312 -22.457031 17.5 -22.367188 18.21875 -22.265625 C 18.9375 -22.160156 19.632812 -22.109375 20.3125 -22.109375 C 21.195312 -22.109375 21.9375 -22.191406 22.53125 -22.359375 C 22.769531 -22.796875 23.007812 -23.289062 23.25 -23.84375 C 23.488281 -24.40625 23.609375 -24.988281 23.609375 -25.59375 C 23.609375 -25.875 23.4375 -26.132812 23.09375 -26.375 C 22.757812 -26.613281 22.34375 -26.8125 21.84375 -26.96875 C 21.34375 -27.132812 20.800781 -27.273438 20.21875 -27.390625 C 19.644531 -27.515625 19.097656 -27.613281 18.578125 -27.6875 C 19.859375 -28.570312 20.5 -29.472656 20.5 -30.390625 C 20.5 -30.429688 20.46875 -30.570312 20.40625 -30.8125 C 20.34375 -31.050781 20.128906 -31.390625 19.765625 -31.828125 C 19.410156 -32.265625 18.863281 -32.800781 18.125 -33.4375 C 17.382812 -34.082031 16.335938 -34.804688 14.984375 -35.609375 L 13.359375 -36.625 C 12.847656 -36.820312 12.410156 -36.921875 12.046875 -36.921875 C 11.242188 -36.921875 10.632812 -36.550781 10.21875 -35.8125 C 9.800781 -35.070312 9.59375 -34.363281 9.59375 -33.6875 C 9.59375 -33.25 9.703125 -32.804688 9.921875 -32.359375 C 10.140625 -31.921875 10.628906 -31.5625 11.390625 -31.28125 C 12.191406 -30.96875 12.75 -30.59375 13.0625 -30.15625 C 13.226562 -29.988281 13.6875 -29.675781 14.4375 -29.21875 C 15.195312 -28.757812 15.898438 -28.289062 16.546875 -27.8125 Z M 49.515625 -15.40625 C 50.347656 -15.882812 50.765625 -16.484375 50.765625 -17.203125 C 50.765625 -17.960938 50.65625 -18.550781 50.4375 -18.96875 C 50.21875 -19.382812 49.9375 -19.703125 49.59375 -19.921875 C 49.257812 -20.148438 48.898438 -20.28125 48.515625 -20.3125 C 48.140625 -20.351562 47.8125 -20.375 47.53125 -20.375 C 47.007812 -20.375 46.488281 -20.34375 45.96875 -20.28125 C 45.445312 -20.226562 45.03125 -20.160156 44.71875 -20.078125 L 44.171875 -20.078125 C 43.535156 -20.078125 42.96875 -20.046875 42.46875 -19.984375 C 41.96875 -19.929688 41.476562 -19.851562 41 -19.75 C 40.519531 -19.644531 40.03125 -19.5625 39.53125 -19.5 C 39.03125 -19.445312 38.476562 -19.421875 37.875 -19.421875 L 37.875 -20.375 C 37.875 -20.65625 37.875 -20.894531 37.875 -21.09375 C 37.875 -21.289062 37.835938 -21.492188 37.765625 -21.703125 C 37.804688 -21.816406 37.828125 -22.054688 37.828125 -22.421875 C 37.828125 -23.015625 37.804688 -23.5 37.765625 -23.875 C 37.722656 -24.257812 37.671875 -24.640625 37.609375 -25.015625 C 37.546875 -25.398438 37.460938 -25.820312 37.359375 -26.28125 C 37.265625 -26.738281 37.160156 -27.367188 37.046875 -28.171875 C 36.878906 -29.046875 36.707031 -29.734375 36.53125 -30.234375 C 36.351562 -30.734375 36.144531 -31.101562 35.90625 -31.34375 C 35.664062 -31.582031 35.375 -31.734375 35.03125 -31.796875 C 34.695312 -31.859375 34.304688 -31.890625 33.859375 -31.890625 C 31.785156 -31.890625 30.75 -31.1875 30.75 -29.78125 C 30.75 -29.582031 30.769531 -29.382812 30.8125 -29.1875 C 30.851562 -28.988281 30.910156 -28.789062 30.984375 -28.59375 L 31.34375 -26.90625 C 31.425781 -26.46875 31.503906 -26.078125 31.578125 -25.734375 C 31.660156 -25.398438 31.742188 -25.132812 31.828125 -24.9375 C 31.828125 -24.851562 31.816406 -24.75 31.796875 -24.625 C 31.773438 -24.507812 31.765625 -24.410156 31.765625 -24.328125 C 31.765625 -24.054688 31.785156 -23.707031 31.828125 -23.28125 C 31.867188 -22.863281 31.914062 -22.4375 31.96875 -22 C 32.03125 -21.5625 32.082031 -21.160156 32.125 -20.796875 C 32.164062 -20.441406 32.1875 -20.179688 32.1875 -20.015625 C 32.1875 -19.816406 32.175781 -19.5 32.15625 -19.0625 C 32.132812 -18.625 32.101562 -18.0625 32.0625 -17.375 L 32.0625 -14.6875 C 32.0625 -14.5625 32.050781 -14.347656 32.03125 -14.046875 C 32.007812 -13.753906 31.988281 -13.40625 31.96875 -13 C 31.957031 -12.601562 31.941406 -12.210938 31.921875 -11.828125 C 31.898438 -11.453125 31.890625 -11.144531 31.890625 -10.90625 C 31.890625 -10.789062 31.898438 -10.671875 31.921875 -10.546875 C 31.941406 -10.429688 31.953125 -10.332031 31.953125 -10.25 L 31.53125 -7.609375 C 31.488281 -7.285156 31.457031 -6.984375 31.4375 -6.703125 C 31.414062 -6.429688 31.40625 -6.195312 31.40625 -6 C 31.40625 -5.195312 31.675781 -4.675781 32.21875 -4.4375 C 32.757812 -4.195312 33.425781 -4.078125 34.21875 -4.078125 C 34.863281 -4.078125 35.394531 -4.195312 35.8125 -4.4375 C 36.226562 -4.675781 36.554688 -5.15625 36.796875 -5.875 C 37.035156 -6.59375 37.210938 -7.585938 37.328125 -8.859375 C 37.453125 -10.140625 37.578125 -11.84375 37.703125 -13.96875 C 38.054688 -14.039062 38.472656 -14.078125 38.953125 -14.078125 C 39.429688 -14.078125 39.953125 -14.117188 40.515625 -14.203125 L 42.921875 -14.4375 L 43.328125 -14.4375 C 43.648438 -14.4375 44.050781 -14.457031 44.53125 -14.5 C 45.007812 -14.539062 45.53125 -14.625 46.09375 -14.75 Z M 49.515625 -15.40625 "/></g></g></g><g fill="#8b6243" fill-opacity="1"><g transform="translate(207.056939, 217.654233)"><g><path d="M 32.3125 -27.6875 C 33.101562 -28.570312 33.5 -29.332031 33.5 -29.96875 C 33.5 -30.53125 33.28125 -31.039062 32.84375 -31.5 C 32.40625 -31.957031 32.003906 -32.304688 31.640625 -32.546875 C 30.921875 -32.460938 30.332031 -32.367188 29.875 -32.265625 C 29.414062 -32.171875 29.003906 -32.082031 28.640625 -32 C 28.285156 -31.925781 27.9375 -31.859375 27.59375 -31.796875 C 27.257812 -31.734375 26.832031 -31.703125 26.3125 -31.703125 C 26.03125 -31.703125 25.648438 -31.710938 25.171875 -31.734375 C 24.691406 -31.753906 24.210938 -31.796875 23.734375 -31.859375 C 23.253906 -31.921875 22.84375 -32 22.5 -32.09375 C 22.164062 -32.195312 22 -32.328125 22 -32.484375 C 22 -32.960938 22.035156 -33.421875 22.109375 -33.859375 C 22.191406 -34.304688 22.269531 -34.804688 22.34375 -35.359375 C 22.425781 -35.921875 22.507812 -36.570312 22.59375 -37.3125 C 22.675781 -38.050781 22.71875 -38.957031 22.71875 -40.03125 C 22.71875 -40.394531 22.566406 -40.707031 22.265625 -40.96875 C 21.960938 -41.226562 21.628906 -41.4375 21.265625 -41.59375 C 20.910156 -41.757812 20.570312 -41.878906 20.25 -41.953125 C 19.9375 -42.035156 19.738281 -42.078125 19.65625 -42.078125 C 19.21875 -42.078125 18.796875 -41.945312 18.390625 -41.6875 C 17.992188 -41.425781 17.644531 -40.894531 17.34375 -40.09375 C 17.050781 -39.300781 16.800781 -38.175781 16.59375 -36.71875 C 16.394531 -35.257812 16.296875 -33.328125 16.296875 -30.921875 C 16.296875 -29.847656 16.675781 -28.710938 17.4375 -27.515625 C 18.519531 -26.992188 19.628906 -26.648438 20.765625 -26.484375 C 21.898438 -26.328125 22.867188 -26.25 23.671875 -26.25 C 25.753906 -26.25 27.453125 -26.390625 28.765625 -26.671875 C 30.085938 -26.953125 31.269531 -27.289062 32.3125 -27.6875 Z M 42.078125 -19.84375 L 39.5 -20.265625 C 39.019531 -20.335938 38.328125 -20.414062 37.421875 -20.5 C 36.523438 -20.582031 35.617188 -20.671875 34.703125 -20.765625 C 33.785156 -20.867188 32.984375 -20.945312 32.296875 -21 C 31.617188 -21.0625 31.265625 -21.09375 31.234375 -21.09375 C 31.023438 -21.09375 30.628906 -21.101562 30.046875 -21.125 C 29.472656 -21.144531 28.6875 -21.15625 27.6875 -21.15625 C 27.289062 -21.15625 26.953125 -21.15625 26.671875 -21.15625 C 26.390625 -21.15625 26.148438 -21.132812 25.953125 -21.09375 C 25.753906 -21.132812 25.425781 -21.164062 24.96875 -21.1875 C 24.507812 -21.207031 24.019531 -21.238281 23.5 -21.28125 C 22.976562 -21.320312 22.46875 -21.347656 21.96875 -21.359375 C 21.46875 -21.378906 21.078125 -21.390625 20.796875 -21.390625 L 20.265625 -21.390625 C 20.054688 -21.390625 19.582031 -21.398438 18.84375 -21.421875 C 18.101562 -21.441406 17.15625 -21.453125 16 -21.453125 C 15.476562 -21.453125 15.023438 -21.441406 14.640625 -21.421875 C 14.265625 -21.398438 13.957031 -21.375 13.71875 -21.34375 C 13.476562 -21.375 13.21875 -21.398438 12.9375 -21.421875 C 12.664062 -21.441406 12.367188 -21.453125 12.046875 -21.453125 C 10.691406 -21.453125 9.613281 -21.398438 8.8125 -21.296875 C 8.007812 -21.203125 7.398438 -21.066406 6.984375 -20.890625 C 6.566406 -20.710938 6.296875 -20.472656 6.171875 -20.171875 C 6.054688 -19.867188 6 -19.519531 6 -19.125 C 6 -17.925781 6.335938 -17.046875 7.015625 -16.484375 C 7.691406 -15.921875 8.429688 -15.640625 9.234375 -15.640625 C 9.710938 -15.640625 10.300781 -15.6875 11 -15.78125 C 11.695312 -15.882812 12.226562 -15.9375 12.59375 -15.9375 C 12.90625 -15.9375 13.128906 -15.90625 13.265625 -15.84375 C 13.410156 -15.789062 13.644531 -15.765625 13.96875 -15.765625 C 14.125 -15.765625 14.484375 -15.773438 15.046875 -15.796875 C 15.609375 -15.816406 16.226562 -15.84375 16.90625 -15.875 C 17.582031 -15.914062 18.25 -15.945312 18.90625 -15.96875 C 19.570312 -15.988281 20.101562 -16 20.5 -16 C 21.257812 -16 21.695312 -15.976562 21.8125 -15.9375 L 22.46875 -15.9375 C 22.75 -15.9375 23.195312 -15.925781 23.8125 -15.90625 C 24.4375 -15.894531 25.128906 -15.867188 25.890625 -15.828125 C 26.648438 -15.785156 27.425781 -15.742188 28.21875 -15.703125 C 29.019531 -15.660156 29.75 -15.617188 30.40625 -15.578125 C 31.070312 -15.546875 31.601562 -15.519531 32 -15.5 C 32.40625 -15.476562 32.609375 -15.46875 32.609375 -15.46875 C 33.003906 -15.46875 33.609375 -15.425781 34.421875 -15.34375 C 35.242188 -15.257812 36.09375 -15.164062 36.96875 -15.0625 C 37.851562 -14.96875 38.675781 -14.878906 39.4375 -14.796875 C 40.195312 -14.722656 40.738281 -14.6875 41.0625 -14.6875 C 41.820312 -14.6875 42.359375 -14.960938 42.671875 -15.515625 C 42.992188 -16.078125 43.15625 -16.757812 43.15625 -17.5625 C 43.15625 -18.601562 42.796875 -19.363281 42.078125 -19.84375 Z M 32.84375 2.390625 C 33.6875 1.554688 34.109375 0.78125 34.109375 0.0625 C 34.109375 -0.539062 33.882812 -1.082031 33.4375 -1.5625 C 33 -2.039062 32.601562 -2.398438 32.25 -2.640625 C 31.53125 -2.515625 30.890625 -2.410156 30.328125 -2.328125 C 29.765625 -2.253906 29.253906 -2.1875 28.796875 -2.125 C 28.335938 -2.0625 27.90625 -2.019531 27.5 -2 C 27.101562 -1.988281 26.664062 -1.984375 26.1875 -1.984375 C 25.550781 -1.984375 24.8125 -1.988281 23.96875 -2 C 23.132812 -2.019531 22.414062 -2.050781 21.8125 -2.09375 C 21.65625 -2.738281 21.597656 -3.367188 21.640625 -3.984375 C 21.679688 -4.609375 21.660156 -5.378906 21.578125 -6.296875 C 21.578125 -6.453125 21.585938 -6.640625 21.609375 -6.859375 C 21.628906 -7.078125 21.640625 -7.304688 21.640625 -7.546875 C 21.640625 -8.023438 21.609375 -8.535156 21.546875 -9.078125 C 21.484375 -9.617188 21.394531 -10.128906 21.28125 -10.609375 C 20.039062 -11.285156 19.082031 -11.625 18.40625 -11.625 C 18.039062 -11.625 17.707031 -11.550781 17.40625 -11.40625 C 17.113281 -11.269531 16.847656 -11.019531 16.609375 -10.65625 C 16.367188 -10.300781 16.175781 -9.804688 16.03125 -9.171875 C 15.894531 -8.535156 15.828125 -7.695312 15.828125 -6.65625 C 15.828125 -5.53125 15.875 -4.597656 15.96875 -3.859375 C 16.070312 -3.117188 16.179688 -2.253906 16.296875 -1.265625 C 16.265625 -1.054688 16.25 -0.773438 16.25 -0.421875 C 16.25 0.816406 16.664062 1.992188 17.5 3.109375 C 17.976562 3.234375 18.476562 3.34375 19 3.4375 C 19.519531 3.539062 20 3.59375 20.4375 3.59375 C 20.71875 3.59375 20.976562 3.550781 21.21875 3.46875 C 21.613281 3.507812 22.070312 3.550781 22.59375 3.59375 C 23.113281 3.632812 23.632812 3.65625 24.15625 3.65625 C 25.3125 3.65625 26.316406 3.625 27.171875 3.5625 C 28.035156 3.5 28.796875 3.414062 29.453125 3.3125 C 30.117188 3.21875 30.707031 3.09375 31.21875 2.9375 C 31.738281 2.78125 32.28125 2.597656 32.84375 2.390625 Z M 32.84375 2.390625 "/></g></g></g><g fill="#8b6243" fill-opacity="1"><g transform="translate(256.201239, 217.654233)"><g/></g></g><g fill="#8b6243" fill-opacity="1"><g transform="translate(281.372713, 217.654233)"><g><path d="M 45.546875 -17.5625 C 45.546875 -18 45.566406 -18.4375 45.609375 -18.875 C 45.648438 -19.320312 45.671875 -19.765625 45.671875 -20.203125 C 45.671875 -20.992188 45.59375 -21.769531 45.4375 -22.53125 C 45.476562 -22.695312 45.5 -22.957031 45.5 -23.3125 C 45.5 -24.03125 45.40625 -24.859375 45.21875 -25.796875 C 45.039062 -26.742188 44.890625 -27.675781 44.765625 -28.59375 C 44.285156 -29.226562 43.566406 -29.546875 42.609375 -29.546875 C 41.816406 -29.546875 41.109375 -29.394531 40.484375 -29.09375 C 39.867188 -28.800781 39.5625 -28.3125 39.5625 -27.625 C 39.5625 -26.789062 39.578125 -25.921875 39.609375 -25.015625 C 39.648438 -24.117188 39.832031 -23.210938 40.15625 -22.296875 C 40.070312 -22.054688 40.03125 -21.859375 40.03125 -21.703125 C 39 -21.617188 38.140625 -21.484375 37.453125 -21.296875 C 36.773438 -21.117188 36.019531 -21.03125 35.1875 -21.03125 L 35.1875 -21.9375 C 35.1875 -23.019531 35.132812 -24.140625 35.03125 -25.296875 C 34.9375 -26.453125 34.738281 -27.507812 34.4375 -28.46875 C 34.132812 -29.425781 33.710938 -30.210938 33.171875 -30.828125 C 32.628906 -31.453125 31.921875 -31.765625 31.046875 -31.765625 C 29.210938 -31.765625 28.296875 -31.125 28.296875 -29.84375 C 28.296875 -29.601562 28.300781 -29.421875 28.3125 -29.296875 C 28.332031 -29.179688 28.375 -29.046875 28.4375 -28.890625 C 28.5 -28.734375 28.566406 -28.503906 28.640625 -28.203125 C 28.722656 -27.898438 28.804688 -27.429688 28.890625 -26.796875 C 29.171875 -25.359375 29.378906 -24.164062 29.515625 -23.21875 C 29.660156 -22.28125 29.734375 -21.472656 29.734375 -20.796875 C 29.734375 -20.316406 29.703125 -19.726562 29.640625 -19.03125 C 29.578125 -18.332031 29.566406 -17.703125 29.609375 -17.140625 L 29.609375 -16.90625 C 29.609375 -16.78125 29.597656 -16.507812 29.578125 -16.09375 C 29.554688 -15.675781 29.535156 -15.207031 29.515625 -14.6875 C 29.492188 -14.164062 29.472656 -13.664062 29.453125 -13.1875 C 29.429688 -12.707031 29.421875 -12.328125 29.421875 -12.046875 C 29.421875 -11.890625 29.429688 -11.75 29.453125 -11.625 C 29.472656 -11.507812 29.484375 -11.410156 29.484375 -11.328125 C 29.441406 -11.128906 29.390625 -10.804688 29.328125 -10.359375 C 29.273438 -9.921875 29.21875 -9.453125 29.15625 -8.953125 C 29.09375 -8.460938 29.039062 -7.945312 29 -7.40625 C 28.96875 -6.863281 28.953125 -6.410156 28.953125 -6.046875 C 28.953125 -5.253906 29.21875 -4.726562 29.75 -4.46875 C 30.289062 -4.207031 30.921875 -4.078125 31.640625 -4.078125 C 32.285156 -4.078125 32.816406 -4.222656 33.234375 -4.515625 C 33.648438 -4.816406 33.960938 -5.207031 34.171875 -5.6875 L 34.46875 -7.96875 C 34.664062 -9.40625 34.8125 -10.710938 34.90625 -11.890625 C 35.007812 -13.078125 35.039062 -14.304688 35 -15.578125 L 39.5625 -16.125 L 40.09375 -16.125 C 40.09375 -15.757812 40.09375 -15.359375 40.09375 -14.921875 C 40.09375 -14.484375 40.082031 -14.070312 40.0625 -13.6875 C 40.039062 -13.3125 40.019531 -12.992188 40 -12.734375 C 39.988281 -12.472656 39.984375 -12.320312 39.984375 -12.28125 L 39.984375 -11.8125 C 39.984375 -11.207031 39.921875 -10.460938 39.796875 -9.578125 C 39.679688 -8.703125 39.625 -7.96875 39.625 -7.375 C 39.625 -6.726562 39.832031 -6.144531 40.25 -5.625 C 40.664062 -5.113281 41.394531 -4.859375 42.4375 -4.859375 C 43 -4.859375 43.4375 -4.988281 43.75 -5.25 C 44.070312 -5.507812 44.332031 -5.9375 44.53125 -6.53125 C 44.726562 -7.132812 44.878906 -7.894531 44.984375 -8.8125 C 45.085938 -9.726562 45.195312 -10.847656 45.3125 -12.171875 L 45.546875 -14.75 C 45.585938 -15.0625 45.617188 -15.347656 45.640625 -15.609375 C 45.660156 -15.867188 45.671875 -16.117188 45.671875 -16.359375 C 45.671875 -16.765625 45.628906 -17.164062 45.546875 -17.5625 Z M 21.28125 -12.046875 C 22.113281 -12.921875 22.53125 -13.703125 22.53125 -14.390625 C 22.53125 -14.941406 22.28125 -15.46875 21.78125 -15.96875 C 21.28125 -16.46875 20.894531 -16.800781 20.625 -16.96875 C 19.820312 -16.96875 19.109375 -16.925781 18.484375 -16.84375 C 17.867188 -16.757812 17.257812 -16.65625 16.65625 -16.53125 C 16.0625 -16.414062 15.441406 -16.316406 14.796875 -16.234375 C 14.160156 -16.160156 13.425781 -16.125 12.59375 -16.125 C 11.90625 -16.125 11.300781 -16.171875 10.78125 -16.265625 C 10.269531 -16.367188 9.773438 -16.441406 9.296875 -16.484375 L 9.296875 -17.140625 C 9.296875 -17.535156 9.3125 -17.941406 9.34375 -18.359375 C 9.382812 -18.785156 9.46875 -19.179688 9.59375 -19.546875 C 9.550781 -19.742188 9.53125 -20.039062 9.53125 -20.4375 C 9.53125 -21.351562 9.578125 -22.140625 9.671875 -22.796875 C 9.773438 -23.460938 9.828125 -24.078125 9.828125 -24.640625 C 9.828125 -24.953125 9.816406 -25.304688 9.796875 -25.703125 C 9.773438 -26.109375 9.765625 -26.570312 9.765625 -27.09375 C 8.972656 -27.726562 8.175781 -28.046875 7.375 -28.046875 C 6.695312 -28.046875 6.054688 -27.835938 5.453125 -27.421875 C 4.859375 -27.003906 4.519531 -26.695312 4.4375 -26.5 C 4.394531 -26.414062 4.316406 -25.535156 4.203125 -23.859375 L 3.953125 -20.375 C 3.953125 -20.09375 3.941406 -19.832031 3.921875 -19.59375 C 3.898438 -19.351562 3.890625 -19.113281 3.890625 -18.875 C 3.890625 -18.394531 3.898438 -17.9375 3.921875 -17.5 C 3.941406 -17.0625 3.953125 -16.582031 3.953125 -16.0625 C 3.878906 -15.863281 3.820312 -15.65625 3.78125 -15.4375 C 3.738281 -15.21875 3.71875 -15.003906 3.71875 -14.796875 C 3.71875 -14.359375 3.804688 -13.921875 3.984375 -13.484375 C 4.160156 -13.046875 4.390625 -12.566406 4.671875 -12.046875 C 5.910156 -11.441406 6.988281 -11.070312 7.90625 -10.9375 C 8.832031 -10.800781 9.65625 -10.734375 10.375 -10.734375 C 10.53125 -10.734375 10.664062 -10.738281 10.78125 -10.75 C 10.90625 -10.769531 11.046875 -10.800781 11.203125 -10.84375 C 11.679688 -10.726562 12.160156 -10.671875 12.640625 -10.671875 C 13.117188 -10.671875 13.566406 -10.695312 13.984375 -10.75 C 14.410156 -10.8125 14.820312 -10.84375 15.21875 -10.84375 L 15.765625 -10.84375 C 16.804688 -10.925781 17.796875 -11.117188 18.734375 -11.421875 C 19.671875 -11.722656 20.519531 -11.929688 21.28125 -12.046875 Z M 21.28125 -12.046875 "/></g></g></g><g fill="#8b6243" fill-opacity="1"><g transform="translate(330.517014, 217.654233)"><g><path d="M 32.421875 -34.828125 C 32.421875 -35.066406 32.320312 -35.394531 32.125 -35.8125 C 31.925781 -36.226562 31.6875 -36.6875 31.40625 -37.1875 C 31.125 -37.6875 30.820312 -38.195312 30.5 -38.71875 C 30.1875 -39.238281 29.890625 -39.695312 29.609375 -40.09375 C 28.523438 -40.414062 27.503906 -40.707031 26.546875 -40.96875 C 25.585938 -41.226562 24.691406 -41.359375 23.859375 -41.359375 C 23.578125 -41.359375 23.078125 -41.238281 22.359375 -41 C 21.640625 -40.757812 20.898438 -40.347656 20.140625 -39.765625 C 19.378906 -39.191406 18.707031 -38.394531 18.125 -37.375 C 17.550781 -36.351562 17.265625 -35.0625 17.265625 -33.5 C 17.265625 -33.0625 17.28125 -32.660156 17.3125 -32.296875 C 17.351562 -31.941406 17.472656 -31.554688 17.671875 -31.140625 C 17.878906 -30.722656 18.191406 -30.253906 18.609375 -29.734375 C 19.023438 -29.210938 19.613281 -28.570312 20.375 -27.8125 C 20.414062 -27.65625 20.632812 -27.523438 21.03125 -27.421875 C 21.4375 -27.316406 21.878906 -27.222656 22.359375 -27.140625 C 22.835938 -27.066406 23.273438 -27 23.671875 -26.9375 C 24.078125 -26.882812 24.316406 -26.835938 24.390625 -26.796875 C 24.628906 -26.710938 24.847656 -26.671875 25.046875 -26.671875 C 25.804688 -26.671875 26.523438 -26.78125 27.203125 -27 C 27.890625 -27.21875 28.488281 -27.46875 29 -27.75 C 29.519531 -28.03125 29.941406 -28.316406 30.265625 -28.609375 C 30.585938 -28.910156 30.789062 -29.144531 30.875 -29.3125 C 30.988281 -29.507812 31.164062 -29.785156 31.40625 -30.140625 C 31.644531 -30.503906 31.960938 -30.925781 32.359375 -31.40625 L 32.359375 -31.640625 C 32.359375 -32.003906 32.378906 -32.40625 32.421875 -32.84375 C 32.460938 -33.28125 32.484375 -33.703125 32.484375 -34.109375 C 32.484375 -34.421875 32.460938 -34.660156 32.421875 -34.828125 Z M 44.359375 -12.890625 C 45.191406 -13.328125 45.609375 -14.207031 45.609375 -15.53125 C 45.609375 -16.40625 45.257812 -17.070312 44.5625 -17.53125 C 43.863281 -17.988281 42.914062 -18.304688 41.71875 -18.484375 C 40.519531 -18.671875 39.109375 -18.773438 37.484375 -18.796875 C 35.867188 -18.816406 34.144531 -18.863281 32.3125 -18.9375 C 32.382812 -19.5 32.429688 -20.117188 32.453125 -20.796875 C 32.472656 -21.472656 32.484375 -22.15625 32.484375 -22.84375 C 32.484375 -24.351562 32.289062 -25.378906 31.90625 -25.921875 C 31.53125 -26.460938 30.863281 -26.734375 29.90625 -26.734375 C 29.1875 -26.734375 28.625 -26.640625 28.21875 -26.453125 C 27.820312 -26.273438 27.523438 -26.046875 27.328125 -25.765625 C 27.128906 -25.492188 27.007812 -25.175781 26.96875 -24.8125 C 26.925781 -24.457031 26.90625 -24.078125 26.90625 -23.671875 C 26.90625 -23.035156 26.925781 -22.515625 26.96875 -22.109375 C 27.007812 -21.710938 27.03125 -21.351562 27.03125 -21.03125 C 27.03125 -20.351562 26.972656 -19.71875 26.859375 -19.125 L 22.46875 -19.125 L 22.46875 -20.671875 C 22.46875 -21.148438 22.4375 -21.726562 22.375 -22.40625 C 22.320312 -23.09375 22.203125 -23.753906 22.015625 -24.390625 C 21.835938 -25.035156 21.566406 -25.585938 21.203125 -26.046875 C 20.847656 -26.503906 20.394531 -26.734375 19.84375 -26.734375 C 19.164062 -26.734375 18.503906 -26.53125 17.859375 -26.125 C 17.222656 -25.726562 16.84375 -25.429688 16.71875 -25.234375 C 16.675781 -24.910156 16.644531 -24.539062 16.625 -24.125 C 16.613281 -23.707031 16.609375 -23.28125 16.609375 -22.84375 C 16.609375 -21.800781 16.65625 -21.019531 16.75 -20.5 C 16.851562 -19.976562 16.90625 -19.4375 16.90625 -18.875 L 13.78125 -18.875 C 13.144531 -18.875 12.625 -18.894531 12.21875 -18.9375 C 11.820312 -18.976562 11.546875 -18.976562 11.390625 -18.9375 C 10.585938 -18.738281 9.734375 -18.660156 8.828125 -18.703125 C 7.929688 -18.742188 7.09375 -18.722656 6.3125 -18.640625 C 5.539062 -18.554688 4.894531 -18.304688 4.375 -17.890625 C 3.851562 -17.472656 3.59375 -16.722656 3.59375 -15.640625 C 3.59375 -14.804688 3.898438 -14.1875 4.515625 -13.78125 C 5.140625 -13.382812 6.410156 -13.1875 8.328125 -13.1875 C 9.128906 -13.1875 9.804688 -13.210938 10.359375 -13.265625 C 10.921875 -13.328125 11.363281 -13.378906 11.6875 -13.421875 C 12.207031 -13.304688 12.882812 -13.25 13.71875 -13.25 C 14.320312 -13.25 14.894531 -13.265625 15.4375 -13.296875 C 15.976562 -13.335938 16.367188 -13.359375 16.609375 -13.359375 C 16.804688 -13.359375 16.953125 -13.347656 17.046875 -13.328125 C 17.148438 -13.316406 17.300781 -13.3125 17.5 -13.3125 C 17.863281 -13.3125 18.332031 -13.328125 18.90625 -13.359375 C 19.488281 -13.398438 20.078125 -13.441406 20.671875 -13.484375 C 21.273438 -13.523438 21.828125 -13.566406 22.328125 -13.609375 C 22.828125 -13.648438 23.175781 -13.6875 23.375 -13.71875 C 23.65625 -13.6875 24.175781 -13.648438 24.9375 -13.609375 C 25.695312 -13.566406 26.472656 -13.535156 27.265625 -13.515625 C 28.066406 -13.492188 28.773438 -13.472656 29.390625 -13.453125 C 30.015625 -13.429688 30.347656 -13.421875 30.390625 -13.421875 L 31.953125 -13.421875 C 32.941406 -13.421875 33.992188 -13.359375 35.109375 -13.234375 C 36.234375 -13.117188 37.078125 -13.0625 37.640625 -13.0625 C 37.765625 -13.0625 37.875 -13.070312 37.96875 -13.09375 C 38.070312 -13.113281 38.160156 -13.125 38.234375 -13.125 C 38.398438 -13.125 38.679688 -13.101562 39.078125 -13.0625 C 39.472656 -13.019531 39.921875 -12.976562 40.421875 -12.9375 C 40.921875 -12.90625 41.421875 -12.878906 41.921875 -12.859375 C 42.421875 -12.835938 42.890625 -12.828125 43.328125 -12.828125 C 43.847656 -12.828125 44.191406 -12.847656 44.359375 -12.890625 Z M 32.421875 -1.984375 C 32.421875 -2.054688 32.429688 -2.160156 32.453125 -2.296875 C 32.472656 -2.441406 32.484375 -2.613281 32.484375 -2.8125 C 32.484375 -3.25 32.453125 -3.773438 32.390625 -4.390625 C 32.335938 -5.015625 32.3125 -5.488281 32.3125 -5.8125 C 32.3125 -5.894531 32.316406 -5.972656 32.328125 -6.046875 C 32.347656 -6.128906 32.359375 -6.210938 32.359375 -6.296875 C 31.804688 -6.972656 31.410156 -7.519531 31.171875 -7.9375 C 30.929688 -8.363281 30.671875 -8.722656 30.390625 -9.015625 C 30.109375 -9.316406 29.726562 -9.578125 29.25 -9.796875 C 28.769531 -10.015625 28.050781 -10.265625 27.09375 -10.546875 C 26.65625 -10.671875 26.253906 -10.769531 25.890625 -10.84375 C 25.535156 -10.925781 25.195312 -10.96875 24.875 -10.96875 C 24.71875 -10.96875 24.597656 -10.945312 24.515625 -10.90625 C 24.429688 -10.863281 24.3125 -10.8125 24.15625 -10.75 C 24 -10.695312 23.78125 -10.640625 23.5 -10.578125 C 23.21875 -10.515625 22.816406 -10.460938 22.296875 -10.421875 C 21.734375 -10.390625 21.34375 -10.351562 21.125 -10.3125 C 20.90625 -10.269531 20.722656 -10.195312 20.578125 -10.09375 C 20.441406 -10 20.296875 -9.84375 20.140625 -9.625 C 19.984375 -9.40625 19.703125 -9.09375 19.296875 -8.6875 C 18.816406 -8.164062 18.4375 -7.710938 18.15625 -7.328125 C 17.875 -6.953125 17.664062 -6.582031 17.53125 -6.21875 C 17.394531 -5.863281 17.316406 -5.503906 17.296875 -5.140625 C 17.273438 -4.785156 17.265625 -4.367188 17.265625 -3.890625 C 17.265625 -3.210938 17.320312 -2.523438 17.4375 -1.828125 C 17.5625 -1.128906 17.703125 -0.398438 17.859375 0.359375 C 17.984375 0.515625 18.222656 0.789062 18.578125 1.1875 C 18.941406 1.59375 19.351562 2.015625 19.8125 2.453125 C 20.269531 2.890625 20.726562 3.289062 21.1875 3.65625 C 21.644531 4.019531 22.015625 4.238281 22.296875 4.3125 C 22.691406 4.4375 23.148438 4.5 23.671875 4.5 C 24.515625 4.5 25.4375 4.378906 26.4375 4.140625 C 27.4375 3.898438 28.492188 3.617188 29.609375 3.296875 C 29.890625 2.898438 30.195312 2.429688 30.53125 1.890625 C 30.875 1.347656 31.1875 0.828125 31.46875 0.328125 C 31.75 -0.171875 31.976562 -0.628906 32.15625 -1.046875 C 32.332031 -1.460938 32.421875 -1.773438 32.421875 -1.984375 Z M 26.796875 -33.265625 C 26.753906 -33.140625 26.550781 -32.894531 26.1875 -32.53125 C 25.832031 -32.175781 25.332031 -32 24.6875 -32 C 24.488281 -32 24.171875 -32.054688 23.734375 -32.171875 C 23.296875 -32.296875 23 -32.640625 22.84375 -33.203125 C 22.875 -33.765625 23.007812 -34.320312 23.25 -34.875 C 23.488281 -35.4375 23.832031 -35.757812 24.28125 -35.84375 C 24.675781 -35.800781 25.039062 -35.769531 25.375 -35.75 C 25.71875 -35.726562 25.988281 -35.65625 26.1875 -35.53125 C 26.394531 -35.414062 26.554688 -35.21875 26.671875 -34.9375 C 26.796875 -34.664062 26.859375 -34.25 26.859375 -33.6875 C 26.859375 -33.601562 26.847656 -33.519531 26.828125 -33.4375 C 26.804688 -33.363281 26.796875 -33.304688 26.796875 -33.265625 Z M 26.796875 -4.375 C 26.835938 -4.289062 26.859375 -3.988281 26.859375 -3.46875 C 26.859375 -2.75 26.796875 -2.21875 26.671875 -1.875 C 26.554688 -1.539062 26.382812 -1.3125 26.15625 -1.1875 C 25.9375 -1.070312 25.664062 -1.015625 25.34375 -1.015625 C 25.03125 -1.015625 24.675781 -0.992188 24.28125 -0.953125 C 23.71875 -1.191406 23.34375 -1.570312 23.15625 -2.09375 C 22.976562 -2.613281 22.875 -3.195312 22.84375 -3.84375 C 22.914062 -4.59375 23.179688 -5.054688 23.640625 -5.234375 C 24.097656 -5.421875 24.46875 -5.515625 24.75 -5.515625 C 25.351562 -5.515625 25.832031 -5.375 26.1875 -5.09375 C 26.550781 -4.8125 26.753906 -4.570312 26.796875 -4.375 Z M 26.796875 -4.375 "/></g></g></g><g fill="#8b6243" fill-opacity="1"><g transform="translate(379.661315, 217.654233)"><g><path d="M 38.546875 -18.21875 C 38.546875 -18.65625 38.5625 -19.164062 38.59375 -19.75 C 38.632812 -20.332031 38.65625 -20.921875 38.65625 -21.515625 C 38.65625 -21.992188 38.632812 -22.460938 38.59375 -22.921875 C 38.5625 -23.378906 38.503906 -23.832031 38.421875 -24.28125 C 38.460938 -24.4375 38.484375 -24.691406 38.484375 -25.046875 C 38.484375 -25.765625 38.390625 -26.59375 38.203125 -27.53125 C 38.023438 -28.476562 37.878906 -29.410156 37.765625 -30.328125 C 37.285156 -30.960938 36.582031 -31.28125 35.65625 -31.28125 C 34.78125 -31.28125 34.0625 -31.109375 33.5 -30.765625 C 32.945312 -30.429688 32.671875 -29.847656 32.671875 -29.015625 C 32.671875 -28.566406 32.6875 -28.070312 32.71875 -27.53125 C 32.757812 -27 32.800781 -26.515625 32.84375 -26.078125 C 33 -25.753906 33.078125 -25.179688 33.078125 -24.359375 C 33.078125 -23.546875 33.160156 -22.859375 33.328125 -22.296875 C 33.242188 -22.054688 33.179688 -21.785156 33.140625 -21.484375 C 33.097656 -21.179688 33.078125 -20.851562 33.078125 -20.5 C 33.078125 -19.894531 33.085938 -19.429688 33.109375 -19.109375 C 33.128906 -18.796875 33.160156 -18.53125 33.203125 -18.3125 C 33.242188 -18.09375 33.273438 -17.890625 33.296875 -17.703125 C 33.316406 -17.523438 33.328125 -17.28125 33.328125 -16.96875 C 33.328125 -15.601562 33.296875 -14.539062 33.234375 -13.78125 C 33.171875 -13.019531 33.109375 -12.398438 33.046875 -11.921875 C 32.992188 -11.441406 32.9375 -11.007812 32.875 -10.625 C 32.8125 -10.25 32.78125 -9.742188 32.78125 -9.109375 C 32.78125 -8.472656 33.007812 -7.894531 33.46875 -7.375 C 33.9375 -6.851562 34.628906 -6.59375 35.546875 -6.59375 C 36.460938 -6.59375 37.148438 -7.117188 37.609375 -8.171875 C 38.066406 -9.234375 38.296875 -10.742188 38.296875 -12.703125 L 38.296875 -13.359375 L 38.59375 -15.640625 C 38.632812 -15.878906 38.65625 -16.109375 38.65625 -16.328125 C 38.65625 -16.546875 38.65625 -16.757812 38.65625 -16.96875 C 38.65625 -17.207031 38.65625 -17.425781 38.65625 -17.625 C 38.65625 -17.820312 38.617188 -18.019531 38.546875 -18.21875 Z M 21.75 -20.265625 C 21.675781 -20.503906 21.53125 -20.890625 21.3125 -21.421875 C 21.09375 -21.960938 20.832031 -22.53125 20.53125 -23.125 C 20.226562 -23.726562 19.925781 -24.300781 19.625 -24.84375 C 19.332031 -25.382812 19.066406 -25.753906 18.828125 -25.953125 C 17.941406 -26.628906 16.816406 -27.054688 15.453125 -27.234375 C 14.097656 -27.421875 12.625 -27.550781 11.03125 -27.625 C 10.59375 -27.3125 10.101562 -26.953125 9.5625 -26.546875 C 9.019531 -26.148438 8.5 -25.738281 8 -25.3125 C 7.5 -24.894531 7.066406 -24.503906 6.703125 -24.140625 C 6.347656 -23.785156 6.128906 -23.507812 6.046875 -23.3125 C 5.847656 -22.832031 5.671875 -22.222656 5.515625 -21.484375 C 5.359375 -20.742188 5.175781 -20.175781 4.96875 -19.78125 C 5.207031 -18.894531 5.359375 -18.191406 5.421875 -17.671875 C 5.484375 -17.160156 5.59375 -16.691406 5.75 -16.265625 C 5.914062 -15.847656 6.207031 -15.429688 6.625 -15.015625 C 7.039062 -14.597656 7.726562 -14.066406 8.6875 -13.421875 C 9.84375 -12.628906 10.660156 -12.210938 11.140625 -12.171875 L 11.265625 -12.171875 C 11.304688 -12.171875 11.484375 -12.140625 11.796875 -12.078125 C 12.117188 -12.015625 12.488281 -11.941406 12.90625 -11.859375 C 13.332031 -11.785156 13.753906 -11.71875 14.171875 -11.65625 C 14.585938 -11.59375 14.921875 -11.5625 15.171875 -11.5625 C 15.367188 -11.5625 15.476562 -11.550781 15.5 -11.53125 C 15.519531 -11.519531 15.554688 -11.53125 15.609375 -11.5625 C 15.671875 -11.601562 15.8125 -11.679688 16.03125 -11.796875 C 16.25 -11.921875 16.660156 -12.144531 17.265625 -12.46875 L 19.296875 -13.546875 C 19.773438 -14.023438 20.15625 -14.515625 20.4375 -15.015625 C 20.71875 -15.515625 20.9375 -16.023438 21.09375 -16.546875 C 21.257812 -17.066406 21.378906 -17.632812 21.453125 -18.25 C 21.535156 -18.875 21.632812 -19.546875 21.75 -20.265625 Z M 15.765625 -17.796875 C 15.640625 -17.359375 15.367188 -17.078125 14.953125 -16.953125 C 14.535156 -16.835938 14.144531 -16.78125 13.78125 -16.78125 C 13.226562 -16.78125 12.75 -16.898438 12.34375 -17.140625 C 11.945312 -17.378906 11.617188 -17.664062 11.359375 -18 C 11.097656 -18.34375 10.90625 -18.664062 10.78125 -18.96875 C 10.664062 -19.269531 10.609375 -19.476562 10.609375 -19.59375 L 10.609375 -19.71875 L 11.140625 -21.15625 C 11.304688 -21.519531 11.488281 -21.78125 11.6875 -21.9375 C 11.882812 -22.09375 12.082031 -22.210938 12.28125 -22.296875 C 12.96875 -22.296875 13.910156 -22.097656 15.109375 -21.703125 C 15.503906 -21.253906 15.75 -20.738281 15.84375 -20.15625 C 15.945312 -19.582031 16 -19.195312 16 -19 C 16 -18.675781 15.921875 -18.273438 15.765625 -17.796875 Z M 15.765625 -17.796875 "/></g></g></g><g fill="#8b6243" fill-opacity="1"><g transform="translate(428.805615, 217.654233)"><g/></g></g><g fill="#8b6243" fill-opacity="1"><g transform="translate(453.977066, 217.654233)"><g><path d="M 41.71875 -22.59375 L 41.71875 -24.03125 C 41.71875 -24.59375 41.707031 -25.191406 41.6875 -25.828125 C 41.664062 -26.472656 41.613281 -26.953125 41.53125 -27.265625 C 41.570312 -27.472656 41.601562 -27.664062 41.625 -27.84375 C 41.644531 -28.019531 41.65625 -28.207031 41.65625 -28.40625 C 41.65625 -28.726562 41.664062 -28.957031 41.6875 -29.09375 C 41.707031 -29.238281 41.71875 -29.457031 41.71875 -29.75 C 41.71875 -30.050781 41.6875 -30.507812 41.625 -31.125 C 41.5625 -31.75 41.472656 -32.722656 41.359375 -34.046875 L 41.359375 -34.53125 C 41.359375 -34.84375 41.335938 -35.164062 41.296875 -35.5 C 41.253906 -35.84375 41.191406 -36.238281 41.109375 -36.6875 L 40.703125 -39.078125 C 40.421875 -39.554688 40.054688 -39.875 39.609375 -40.03125 C 39.171875 -40.195312 38.613281 -40.28125 37.9375 -40.28125 C 37.257812 -40.28125 36.648438 -40.109375 36.109375 -39.765625 C 35.566406 -39.429688 35.296875 -38.921875 35.296875 -38.234375 C 35.296875 -37.679688 35.351562 -37.046875 35.46875 -36.328125 C 35.59375 -35.609375 35.65625 -34.828125 35.65625 -33.984375 L 35.65625 -33.140625 C 35.65625 -32.859375 35.695312 -32.46875 35.78125 -31.96875 C 35.863281 -31.476562 35.925781 -30.875 35.96875 -30.15625 C 35.5625 -30.070312 35.117188 -30.019531 34.640625 -30 C 34.160156 -29.976562 33.601562 -29.945312 32.96875 -29.90625 L 30.515625 -29.734375 L 29.90625 -29.734375 C 29.144531 -29.734375 28.34375 -29.679688 27.5 -29.578125 C 26.664062 -29.472656 25.898438 -29.320312 25.203125 -29.125 C 24.503906 -28.925781 23.925781 -28.632812 23.46875 -28.25 C 23.007812 -27.875 22.78125 -27.425781 22.78125 -26.90625 C 22.78125 -26.226562 22.976562 -25.566406 23.375 -24.921875 C 23.769531 -24.285156 24.070312 -23.910156 24.28125 -23.796875 C 24.550781 -23.753906 24.882812 -23.734375 25.28125 -23.734375 C 25.6875 -23.734375 26.109375 -23.734375 26.546875 -23.734375 C 27.546875 -23.734375 28.425781 -23.769531 29.1875 -23.84375 C 29.945312 -23.925781 30.664062 -24.023438 31.34375 -24.140625 C 32.019531 -24.265625 32.71875 -24.367188 33.4375 -24.453125 C 34.164062 -24.535156 35.007812 -24.578125 35.96875 -24.578125 C 35.96875 -24.210938 35.957031 -23.707031 35.9375 -23.0625 C 35.914062 -22.425781 35.894531 -21.800781 35.875 -21.1875 C 35.851562 -20.570312 35.832031 -20.023438 35.8125 -19.546875 C 35.789062 -19.066406 35.78125 -18.785156 35.78125 -18.703125 C 35.820312 -18.535156 35.84375 -18.253906 35.84375 -17.859375 C 35.84375 -17.503906 35.800781 -17.046875 35.71875 -16.484375 C 35.644531 -15.921875 35.609375 -15.484375 35.609375 -15.171875 C 35.609375 -14.367188 35.882812 -13.742188 36.4375 -13.296875 C 37 -12.859375 37.738281 -12.640625 38.65625 -12.640625 C 39.613281 -12.640625 40.320312 -13.039062 40.78125 -13.84375 C 41.25 -14.644531 41.484375 -16.003906 41.484375 -17.921875 C 41.484375 -18.117188 41.472656 -18.296875 41.453125 -18.453125 C 41.429688 -18.617188 41.421875 -18.78125 41.421875 -18.9375 C 41.535156 -19.613281 41.601562 -20.332031 41.625 -21.09375 C 41.644531 -21.851562 41.675781 -22.351562 41.71875 -22.59375 Z M 21.8125 -27.09375 C 21.738281 -27.332031 21.585938 -27.75 21.359375 -28.34375 C 21.140625 -28.945312 20.878906 -29.554688 20.578125 -30.171875 C 20.285156 -30.796875 19.988281 -31.375 19.6875 -31.90625 C 19.382812 -32.445312 19.113281 -32.820312 18.875 -33.03125 C 18 -33.707031 16.867188 -34.132812 15.484375 -34.3125 C 14.109375 -34.488281 12.625 -34.617188 11.03125 -34.703125 C 10.59375 -34.378906 10.101562 -34.007812 9.5625 -33.59375 C 9.019531 -33.175781 8.5 -32.753906 8 -32.328125 C 7.5 -31.910156 7.066406 -31.507812 6.703125 -31.125 C 6.347656 -30.75 6.128906 -30.460938 6.046875 -30.265625 C 5.847656 -29.742188 5.671875 -29.113281 5.515625 -28.375 C 5.359375 -27.632812 5.175781 -27.066406 4.96875 -26.671875 C 5.207031 -25.828125 5.359375 -25.132812 5.421875 -24.59375 C 5.484375 -24.0625 5.601562 -23.570312 5.78125 -23.125 C 5.957031 -22.6875 6.253906 -22.238281 6.671875 -21.78125 C 7.097656 -21.320312 7.789062 -20.753906 8.75 -20.078125 C 9.863281 -19.242188 10.679688 -18.804688 11.203125 -18.765625 L 11.328125 -18.765625 C 11.367188 -18.765625 11.546875 -18.734375 11.859375 -18.671875 C 12.179688 -18.609375 12.539062 -18.535156 12.9375 -18.453125 C 13.34375 -18.378906 13.742188 -18.3125 14.140625 -18.25 C 14.546875 -18.1875 14.867188 -18.15625 15.109375 -18.15625 C 15.347656 -18.15625 15.484375 -18.15625 15.515625 -18.15625 C 15.554688 -18.15625 15.609375 -18.175781 15.671875 -18.21875 C 15.734375 -18.257812 15.875 -18.347656 16.09375 -18.484375 C 16.3125 -18.628906 16.722656 -18.84375 17.328125 -19.125 C 18.359375 -19.675781 19.15625 -20.234375 19.71875 -20.796875 C 20.28125 -21.359375 20.691406 -21.945312 20.953125 -22.5625 C 21.210938 -23.1875 21.390625 -23.867188 21.484375 -24.609375 C 21.585938 -25.347656 21.695312 -26.175781 21.8125 -27.09375 Z M 41.71875 4.4375 C 41.394531 3.675781 41.070312 3.113281 40.75 2.75 C 40.4375 2.394531 40.097656 2.078125 39.734375 1.796875 C 39.378906 1.515625 38.972656 1.191406 38.515625 0.828125 C 38.054688 0.472656 37.546875 -0.0820312 36.984375 -0.84375 C 36.578125 -1.039062 36.265625 -1.226562 36.046875 -1.40625 C 35.828125 -1.582031 35.597656 -1.773438 35.359375 -1.984375 C 35.484375 -2.253906 35.632812 -2.597656 35.8125 -3.015625 C 35.988281 -3.441406 36.144531 -3.882812 36.28125 -4.34375 C 36.425781 -4.800781 36.554688 -5.226562 36.671875 -5.625 C 36.796875 -6.03125 36.859375 -6.332031 36.859375 -6.53125 C 36.859375 -6.8125 36.757812 -7.0625 36.5625 -7.28125 C 36.363281 -7.5 36.125 -7.675781 35.84375 -7.8125 C 35.5625 -7.957031 35.269531 -8.066406 34.96875 -8.140625 C 34.675781 -8.222656 34.410156 -8.265625 34.171875 -8.265625 C 32.648438 -8.265625 31.789062 -7.945312 31.59375 -7.3125 L 30.515625 -4.96875 C 29.710938 -3.25 29.007812 -1.757812 28.40625 -0.5 C 27.8125 0.75 27.375 1.535156 27.09375 1.859375 C 27.050781 2.015625 26.878906 2.320312 26.578125 2.78125 C 26.273438 3.238281 26.066406 3.609375 25.953125 3.890625 C 25.828125 4.171875 25.664062 4.570312 25.46875 5.09375 C 25.269531 5.613281 25.070312 6.148438 24.875 6.703125 C 24.675781 7.265625 24.492188 7.804688 24.328125 8.328125 C 24.171875 8.847656 24.09375 9.25 24.09375 9.53125 C 24.132812 9.644531 24.242188 9.8125 24.421875 10.03125 C 24.597656 10.257812 24.816406 10.484375 25.078125 10.703125 C 25.335938 10.921875 25.644531 11.117188 26 11.296875 C 26.363281 11.472656 26.726562 11.5625 27.09375 11.5625 C 27.488281 11.5625 27.796875 11.5 28.015625 11.375 C 28.234375 11.257812 28.429688 11.070312 28.609375 10.8125 C 28.796875 10.550781 29 10.191406 29.21875 9.734375 C 29.4375 9.273438 29.765625 8.707031 30.203125 8.03125 L 30.203125 7.859375 C 30.203125 7.648438 30.257812 7.382812 30.375 7.0625 C 30.5 6.75 30.648438 6.441406 30.828125 6.140625 C 31.015625 5.835938 31.175781 5.566406 31.3125 5.328125 C 31.457031 5.085938 31.566406 4.929688 31.640625 4.859375 C 31.722656 4.578125 31.875 4.253906 32.09375 3.890625 C 32.3125 3.535156 32.503906 3.15625 32.671875 2.75 C 33.023438 3.15625 33.300781 3.378906 33.5 3.421875 C 34.101562 3.816406 34.5625 4.242188 34.875 4.703125 C 35.195312 5.160156 35.5625 5.507812 35.96875 5.75 C 36.363281 6.03125 36.800781 6.488281 37.28125 7.125 C 37.757812 7.769531 38.335938 8.171875 39.015625 8.328125 C 39.140625 8.253906 39.359375 8.125 39.671875 7.9375 C 39.992188 7.757812 40.3125 7.539062 40.625 7.28125 C 40.945312 7.019531 41.238281 6.726562 41.5 6.40625 C 41.757812 6.09375 41.890625 5.753906 41.890625 5.390625 C 41.890625 5.109375 41.832031 4.789062 41.71875 4.4375 Z M 23.4375 -1.015625 C 23.4375 -1.773438 23.394531 -2.546875 23.3125 -3.328125 C 23.238281 -4.109375 23.160156 -4.9375 23.078125 -5.8125 L 22.65625 -9.53125 C 21.738281 -10.40625 20.921875 -10.84375 20.203125 -10.84375 C 19.640625 -10.84375 19.109375 -10.601562 18.609375 -10.125 C 18.109375 -9.644531 17.78125 -9.25 17.625 -8.9375 C 17.625 -8.414062 17.660156 -7.664062 17.734375 -6.6875 C 17.816406 -5.707031 17.878906 -4.835938 17.921875 -4.078125 C 17.398438 -4.078125 16.898438 -4.066406 16.421875 -4.046875 C 15.941406 -4.023438 15.539062 -3.972656 15.21875 -3.890625 L 14.984375 -3.890625 C 14.617188 -3.890625 14.265625 -3.847656 13.921875 -3.765625 C 13.585938 -3.691406 13.222656 -3.613281 12.828125 -3.53125 C 12.828125 -4.132812 12.847656 -4.851562 12.890625 -5.6875 C 12.929688 -6.53125 12.953125 -7.234375 12.953125 -7.796875 C 12.953125 -8.515625 12.71875 -9.050781 12.25 -9.40625 C 11.789062 -9.769531 11.363281 -9.953125 10.96875 -9.953125 C 9.6875 -9.953125 8.773438 -9.507812 8.234375 -8.625 C 7.703125 -7.75 7.4375 -6.289062 7.4375 -4.25 C 7.4375 -3.8125 7.453125 -3.410156 7.484375 -3.046875 C 7.523438 -2.691406 7.585938 -2.351562 7.671875 -2.03125 L 7.671875 1.5 C 7.671875 1.820312 7.671875 2.101562 7.671875 2.34375 C 7.671875 2.582031 7.648438 2.78125 7.609375 2.9375 C 7.609375 3.375 7.671875 4.332031 7.796875 5.8125 L 8.09375 9.59375 C 8.769531 9.664062 9.6875 9.832031 10.84375 10.09375 C 12.007812 10.351562 13.085938 10.484375 14.078125 10.484375 C 14.640625 10.484375 15.203125 10.472656 15.765625 10.453125 C 16.328125 10.429688 16.882812 10.421875 17.4375 10.421875 C 17.632812 10.460938 17.820312 10.492188 18 10.515625 C 18.1875 10.535156 18.378906 10.546875 18.578125 10.546875 C 19.703125 10.546875 20.863281 10.265625 22.0625 9.703125 C 22.300781 9.148438 22.507812 8.613281 22.6875 8.09375 C 22.863281 7.570312 22.953125 7.113281 22.953125 6.71875 L 22.953125 6.359375 C 23.035156 5.910156 23.113281 5.546875 23.1875 5.265625 C 23.269531 4.992188 23.3125 4.695312 23.3125 4.375 C 23.3125 4.257812 23.300781 4.140625 23.28125 4.015625 C 23.257812 3.898438 23.234375 3.757812 23.203125 3.59375 C 23.273438 3.238281 23.320312 2.910156 23.34375 2.609375 C 23.363281 2.304688 23.375 1.992188 23.375 1.671875 L 23.375 0 C 23.375 -0.195312 23.375 -0.363281 23.375 -0.5 C 23.375 -0.644531 23.394531 -0.816406 23.4375 -1.015625 Z M 15.828125 -24.640625 C 15.628906 -24.191406 15.316406 -23.898438 14.890625 -23.765625 C 14.472656 -23.628906 14.101562 -23.5625 13.78125 -23.5625 C 13.226562 -23.5625 12.757812 -23.679688 12.375 -23.921875 C 12 -24.160156 11.671875 -24.445312 11.390625 -24.78125 C 11.109375 -25.125 10.90625 -25.453125 10.78125 -25.765625 C 10.664062 -26.085938 10.609375 -26.332031 10.609375 -26.5 C 10.609375 -26.5 10.65625 -26.625 10.75 -26.875 C 10.851562 -27.132812 10.972656 -27.425781 11.109375 -27.75 C 11.253906 -28.070312 11.425781 -28.378906 11.625 -28.671875 C 11.820312 -28.972656 12.039062 -29.144531 12.28125 -29.1875 C 12.601562 -29.1875 13.003906 -29.144531 13.484375 -29.0625 C 13.960938 -28.988281 14.523438 -28.851562 15.171875 -28.65625 C 15.609375 -28.175781 15.863281 -27.632812 15.9375 -27.03125 C 16.019531 -26.425781 16.0625 -26.023438 16.0625 -25.828125 C 16.0625 -25.515625 15.984375 -25.117188 15.828125 -24.640625 Z M 17.984375 1.375 C 17.859375 2.375 17.785156 3.234375 17.765625 3.953125 C 17.742188 4.671875 17.535156 5.03125 17.140625 5.03125 C 16.378906 5.03125 15.679688 4.953125 15.046875 4.796875 C 14.878906 4.835938 14.660156 4.859375 14.390625 4.859375 C 13.941406 4.859375 13.597656 4.816406 13.359375 4.734375 C 13.117188 4.648438 13 4.3125 13 3.71875 C 13 3.632812 13.007812 3.570312 13.03125 3.53125 C 13.050781 3.488281 13.0625 3.429688 13.0625 3.359375 C 13.019531 3.117188 12.988281 2.859375 12.96875 2.578125 C 12.957031 2.296875 12.953125 2.035156 12.953125 1.796875 C 13.347656 1.753906 13.832031 1.671875 14.40625 1.546875 C 14.988281 1.429688 15.738281 1.375 16.65625 1.375 Z M 17.984375 1.375 "/></g></g></g><g fill="#8b6243" fill-opacity="1"><g transform="translate(503.12139, 217.654233)"><g><path d="M 41.71875 -15.765625 L 41.71875 -17.203125 C 41.71875 -17.765625 41.707031 -18.351562 41.6875 -18.96875 C 41.664062 -19.59375 41.613281 -20.0625 41.53125 -20.375 C 41.570312 -20.570312 41.601562 -20.757812 41.625 -20.9375 C 41.644531 -21.125 41.65625 -21.316406 41.65625 -21.515625 C 41.65625 -21.835938 41.664062 -22.066406 41.6875 -22.203125 C 41.707031 -22.347656 41.707031 -22.550781 41.6875 -22.8125 C 41.664062 -23.070312 41.632812 -23.507812 41.59375 -24.125 C 41.550781 -24.738281 41.472656 -25.6875 41.359375 -26.96875 L 41.359375 -27.453125 C 41.359375 -28.085938 41.273438 -28.804688 41.109375 -29.609375 L 40.703125 -31.890625 C 40.421875 -32.367188 40.054688 -32.6875 39.609375 -32.84375 C 39.171875 -33 38.613281 -33.078125 37.9375 -33.078125 C 37.257812 -33.078125 36.648438 -32.90625 36.109375 -32.5625 C 35.566406 -32.226562 35.296875 -31.722656 35.296875 -31.046875 C 35.296875 -30.484375 35.351562 -29.851562 35.46875 -29.15625 C 35.59375 -28.457031 35.65625 -27.707031 35.65625 -26.90625 L 35.65625 -26.125 C 35.65625 -25.851562 35.695312 -25.476562 35.78125 -25 C 35.863281 -24.519531 35.925781 -23.921875 35.96875 -23.203125 C 35.5625 -23.117188 35.117188 -23.066406 34.640625 -23.046875 C 34.160156 -23.023438 33.601562 -22.992188 32.96875 -22.953125 L 30.515625 -22.78125 L 29.90625 -22.78125 C 29.1875 -22.78125 28.40625 -22.726562 27.5625 -22.625 C 26.726562 -22.519531 25.960938 -22.367188 25.265625 -22.171875 C 24.566406 -21.972656 23.976562 -21.691406 23.5 -21.328125 C 23.019531 -20.972656 22.78125 -20.535156 22.78125 -20.015625 C 22.78125 -19.335938 22.976562 -18.6875 23.375 -18.0625 C 23.769531 -17.445312 24.070312 -17.082031 24.28125 -16.96875 C 24.550781 -16.925781 24.882812 -16.90625 25.28125 -16.90625 C 25.6875 -16.90625 26.109375 -16.90625 26.546875 -16.90625 C 27.546875 -16.90625 28.414062 -16.941406 29.15625 -17.015625 C 29.894531 -17.097656 30.613281 -17.195312 31.3125 -17.3125 C 32.007812 -17.4375 32.71875 -17.535156 33.4375 -17.609375 C 34.164062 -17.691406 35.007812 -17.734375 35.96875 -17.734375 C 35.96875 -17.378906 35.957031 -16.832031 35.9375 -16.09375 C 35.914062 -15.351562 35.894531 -14.601562 35.875 -13.84375 C 35.851562 -13.082031 35.832031 -12.410156 35.8125 -11.828125 C 35.789062 -11.253906 35.78125 -10.945312 35.78125 -10.90625 C 35.820312 -10.75 35.84375 -10.429688 35.84375 -9.953125 C 35.84375 -9.515625 35.800781 -8.925781 35.71875 -8.1875 C 35.644531 -7.445312 35.609375 -6.851562 35.609375 -6.40625 C 35.609375 -4.65625 36.566406 -3.78125 38.484375 -3.78125 C 39.554688 -3.78125 40.320312 -4.195312 40.78125 -5.03125 C 41.25 -5.875 41.484375 -7.550781 41.484375 -10.0625 C 41.484375 -10.269531 41.472656 -10.453125 41.453125 -10.609375 C 41.429688 -10.765625 41.421875 -10.925781 41.421875 -11.09375 C 41.460938 -11.332031 41.5 -11.703125 41.53125 -12.203125 C 41.570312 -12.703125 41.601562 -13.207031 41.625 -13.71875 C 41.644531 -14.238281 41.664062 -14.695312 41.6875 -15.09375 C 41.707031 -15.5 41.71875 -15.722656 41.71875 -15.765625 Z M 21.8125 -20.203125 C 21.738281 -20.398438 21.585938 -20.773438 21.359375 -21.328125 C 21.140625 -21.890625 20.890625 -22.476562 20.609375 -23.09375 C 20.335938 -23.71875 20.039062 -24.300781 19.71875 -24.84375 C 19.394531 -25.382812 19.113281 -25.753906 18.875 -25.953125 C 18 -26.628906 16.867188 -27.054688 15.484375 -27.234375 C 14.109375 -27.421875 12.625 -27.550781 11.03125 -27.625 C 10.59375 -27.3125 10.101562 -26.953125 9.5625 -26.546875 C 9.019531 -26.148438 8.5 -25.738281 8 -25.3125 C 7.5 -24.894531 7.066406 -24.503906 6.703125 -24.140625 C 6.347656 -23.785156 6.128906 -23.507812 6.046875 -23.3125 C 5.847656 -22.832031 5.671875 -22.222656 5.515625 -21.484375 C 5.359375 -20.742188 5.175781 -20.175781 4.96875 -19.78125 C 5.207031 -18.894531 5.367188 -18.171875 5.453125 -17.609375 C 5.535156 -17.054688 5.664062 -16.570312 5.84375 -16.15625 C 6.019531 -15.738281 6.316406 -15.316406 6.734375 -14.890625 C 7.160156 -14.472656 7.832031 -13.960938 8.75 -13.359375 C 9.90625 -12.566406 10.722656 -12.148438 11.203125 -12.109375 L 11.328125 -12.109375 C 11.367188 -12.109375 11.546875 -12.078125 11.859375 -12.015625 C 12.179688 -11.953125 12.550781 -11.878906 12.96875 -11.796875 C 13.394531 -11.722656 13.816406 -11.65625 14.234375 -11.59375 C 14.648438 -11.539062 14.976562 -11.515625 15.21875 -11.515625 C 15.425781 -11.515625 15.535156 -11.503906 15.546875 -11.484375 C 15.566406 -11.460938 15.609375 -11.46875 15.671875 -11.5 C 15.734375 -11.539062 15.875 -11.617188 16.09375 -11.734375 C 16.3125 -11.859375 16.722656 -12.082031 17.328125 -12.40625 L 19.359375 -13.484375 C 19.835938 -14.003906 20.21875 -14.515625 20.5 -15.015625 C 20.78125 -15.515625 21 -16.023438 21.15625 -16.546875 C 21.3125 -17.066406 21.429688 -17.625 21.515625 -18.21875 C 21.597656 -18.820312 21.695312 -19.484375 21.8125 -20.203125 Z M 15.828125 -17.796875 C 15.628906 -17.359375 15.316406 -17.066406 14.890625 -16.921875 C 14.472656 -16.785156 14.101562 -16.71875 13.78125 -16.71875 C 13.1875 -16.71875 12.6875 -16.859375 12.28125 -17.140625 C 11.882812 -17.421875 11.554688 -17.726562 11.296875 -18.0625 C 11.035156 -18.40625 10.851562 -18.738281 10.75 -19.0625 C 10.65625 -19.382812 10.609375 -19.601562 10.609375 -19.71875 C 10.648438 -19.800781 10.71875 -19.972656 10.8125 -20.234375 C 10.914062 -20.492188 11.046875 -20.769531 11.203125 -21.0625 C 11.367188 -21.363281 11.539062 -21.632812 11.71875 -21.875 C 11.894531 -22.113281 12.082031 -22.253906 12.28125 -22.296875 C 13 -22.296875 13.960938 -22.097656 15.171875 -21.703125 C 15.609375 -21.179688 15.863281 -20.640625 15.9375 -20.078125 C 16.019531 -19.515625 16.0625 -19.15625 16.0625 -19 C 16.0625 -18.675781 15.984375 -18.273438 15.828125 -17.796875 Z M 15.828125 -17.796875 "/></g></g></g><g fill="#8b6243" fill-opacity="1"><g transform="translate(552.265714, 217.654233)"><g><path d="M 32.421875 -27.75 C 32.421875 -27.945312 32.320312 -28.253906 32.125 -28.671875 C 31.925781 -29.097656 31.6875 -29.5625 31.40625 -30.0625 C 31.125 -30.5625 30.820312 -31.066406 30.5 -31.578125 C 30.1875 -32.097656 29.890625 -32.539062 29.609375 -32.90625 C 28.523438 -33.226562 27.503906 -33.519531 26.546875 -33.78125 C 25.585938 -34.039062 24.691406 -34.171875 23.859375 -34.171875 C 23.578125 -34.171875 23.078125 -34.054688 22.359375 -33.828125 C 21.640625 -33.609375 20.898438 -33.207031 20.140625 -32.625 C 19.378906 -32.050781 18.707031 -31.265625 18.125 -30.265625 C 17.550781 -29.265625 17.265625 -27.988281 17.265625 -26.4375 C 17.265625 -25.988281 17.28125 -25.59375 17.3125 -25.25 C 17.351562 -24.914062 17.472656 -24.539062 17.671875 -24.125 C 17.878906 -23.707031 18.191406 -23.238281 18.609375 -22.71875 C 19.023438 -22.195312 19.613281 -21.578125 20.375 -20.859375 C 20.414062 -20.734375 20.632812 -20.617188 21.03125 -20.515625 C 21.4375 -20.421875 21.878906 -20.332031 22.359375 -20.25 C 22.835938 -20.175781 23.273438 -20.097656 23.671875 -20.015625 C 24.078125 -19.941406 24.316406 -19.882812 24.390625 -19.84375 C 24.628906 -19.757812 24.847656 -19.71875 25.046875 -19.71875 C 25.804688 -19.71875 26.523438 -19.828125 27.203125 -20.046875 C 27.890625 -20.265625 28.488281 -20.515625 29 -20.796875 C 29.519531 -21.078125 29.941406 -21.359375 30.265625 -21.640625 C 30.585938 -21.921875 30.789062 -22.140625 30.875 -22.296875 C 30.988281 -22.492188 31.164062 -22.769531 31.40625 -23.125 C 31.644531 -23.488281 31.960938 -23.910156 32.359375 -24.390625 L 32.359375 -24.640625 C 32.359375 -24.992188 32.378906 -25.378906 32.421875 -25.796875 C 32.460938 -26.222656 32.484375 -26.632812 32.484375 -27.03125 C 32.484375 -27.351562 32.460938 -27.59375 32.421875 -27.75 Z M 44.359375 -4.5 C 45.191406 -4.9375 45.609375 -5.796875 45.609375 -7.078125 C 45.609375 -7.953125 45.257812 -8.609375 44.5625 -9.046875 C 43.863281 -9.484375 42.90625 -9.789062 41.6875 -9.96875 C 40.46875 -10.15625 39.046875 -10.257812 37.421875 -10.28125 C 35.804688 -10.300781 34.101562 -10.347656 32.3125 -10.421875 C 32.34375 -11.109375 32.367188 -11.929688 32.390625 -12.890625 C 32.410156 -13.847656 32.421875 -14.882812 32.421875 -16 C 32.421875 -17.476562 32.222656 -18.488281 31.828125 -19.03125 C 31.429688 -19.570312 30.769531 -19.84375 29.84375 -19.84375 C 28.488281 -19.84375 27.648438 -19.550781 27.328125 -18.96875 C 27.015625 -18.382812 26.859375 -17.597656 26.859375 -16.609375 C 26.859375 -15.285156 26.882812 -14.320312 26.9375 -13.71875 C 27 -13.125 27.03125 -12.726562 27.03125 -12.53125 C 27.03125 -11.851562 26.972656 -11.210938 26.859375 -10.609375 L 22.46875 -10.609375 L 22.46875 -12.171875 C 22.46875 -12.484375 22.457031 -13.0625 22.4375 -13.90625 C 22.425781 -14.75 22.335938 -15.597656 22.171875 -16.453125 C 22.015625 -17.304688 21.753906 -18.070312 21.390625 -18.75 C 21.035156 -19.4375 20.519531 -19.78125 19.84375 -19.78125 C 19.164062 -19.78125 18.515625 -19.585938 17.890625 -19.203125 C 17.273438 -18.828125 16.882812 -18.519531 16.71875 -18.28125 C 16.675781 -17.957031 16.632812 -17.46875 16.59375 -16.8125 C 16.5625 -16.15625 16.546875 -15.363281 16.546875 -14.4375 C 16.546875 -13.800781 16.5625 -13.28125 16.59375 -12.875 C 16.632812 -12.476562 16.675781 -12.148438 16.71875 -11.890625 C 16.757812 -11.640625 16.800781 -11.390625 16.84375 -11.140625 C 16.882812 -10.898438 16.90625 -10.644531 16.90625 -10.375 L 13.78125 -10.375 C 13.144531 -10.375 12.625 -10.390625 12.21875 -10.421875 C 11.820312 -10.460938 11.546875 -10.460938 11.390625 -10.421875 C 10.828125 -10.304688 9.785156 -10.25 8.265625 -10.25 L 7.1875 -10.25 C 5.914062 -10.25 5 -10.019531 4.4375 -9.5625 C 3.875 -9.101562 3.59375 -8.332031 3.59375 -7.25 C 3.59375 -6.414062 3.898438 -5.804688 4.515625 -5.421875 C 5.140625 -5.046875 6.410156 -4.859375 8.328125 -4.859375 L 11.6875 -5.03125 C 11.925781 -4.988281 12.203125 -4.957031 12.515625 -4.9375 C 12.835938 -4.925781 13.203125 -4.921875 13.609375 -4.921875 C 14.046875 -4.921875 14.515625 -4.9375 15.015625 -4.96875 C 15.515625 -5.007812 15.90625 -5.03125 16.1875 -5.03125 C 16.382812 -5.03125 16.53125 -5.019531 16.625 -5 C 16.726562 -4.976562 16.820312 -4.96875 16.90625 -4.96875 C 17.101562 -4.96875 17.507812 -4.976562 18.125 -5 C 18.75 -5.019531 19.421875 -5.050781 20.140625 -5.09375 C 20.859375 -5.132812 21.523438 -5.175781 22.140625 -5.21875 C 22.765625 -5.257812 23.175781 -5.296875 23.375 -5.328125 C 23.65625 -5.296875 24.175781 -5.257812 24.9375 -5.21875 C 25.695312 -5.175781 26.472656 -5.144531 27.265625 -5.125 C 28.066406 -5.101562 28.773438 -5.082031 29.390625 -5.0625 C 30.015625 -5.039062 30.347656 -5.03125 30.390625 -5.03125 L 31.953125 -5.03125 C 32.867188 -5.03125 33.832031 -4.976562 34.84375 -4.875 C 35.863281 -4.78125 36.695312 -4.734375 37.34375 -4.734375 C 37.539062 -4.734375 37.707031 -4.742188 37.84375 -4.765625 C 37.988281 -4.785156 38.117188 -4.796875 38.234375 -4.796875 C 38.441406 -4.753906 38.742188 -4.710938 39.140625 -4.671875 C 39.535156 -4.628906 39.972656 -4.585938 40.453125 -4.546875 C 40.929688 -4.515625 41.421875 -4.488281 41.921875 -4.46875 C 42.421875 -4.445312 42.890625 -4.4375 43.328125 -4.4375 C 43.847656 -4.4375 44.191406 -4.457031 44.359375 -4.5 Z M 26.796875 -26.25 C 26.753906 -26.132812 26.550781 -25.894531 26.1875 -25.53125 C 25.832031 -25.175781 25.332031 -25 24.6875 -25 C 24.488281 -25 24.171875 -25.054688 23.734375 -25.171875 C 23.296875 -25.296875 23 -25.632812 22.84375 -26.1875 C 22.875 -26.75 23.007812 -27.289062 23.25 -27.8125 C 23.488281 -28.332031 23.832031 -28.628906 24.28125 -28.703125 C 24.675781 -28.671875 25.039062 -28.644531 25.375 -28.625 C 25.71875 -28.601562 25.988281 -28.539062 26.1875 -28.4375 C 26.394531 -28.34375 26.554688 -28.164062 26.671875 -27.90625 C 26.796875 -27.644531 26.859375 -27.273438 26.859375 -26.796875 C 26.859375 -26.472656 26.835938 -26.289062 26.796875 -26.25 Z M 26.796875 -26.25 "/></g></g></g></svg>