<svg width="80" height="80" viewBox="0 0 80 80" fill="none" xmlns="http://www.w3.org/2000/svg">
<rect width="80" height="80" rx="40" fill="#FAFAFA"/>
<path d="M39.9999 39.9999C36.3333 39.9999 33.1944 38.6944 30.5833 36.0833C27.9721 33.4721 26.6666 30.3333 26.6666 26.6666C26.6666 22.9999 27.9721 19.861 30.5833 17.2499C33.1944 14.6388 36.3333 13.3333 39.9999 13.3333C43.6666 13.3333 46.8055 14.6388 49.4166 17.2499C52.0277 19.861 53.3333 22.9999 53.3333 26.6666C53.3333 30.3333 52.0277 33.4721 49.4166 36.0833C46.8055 38.6944 43.6666 39.9999 39.9999 39.9999ZM13.3333 66.6666V57.3333C13.3333 55.4444 13.8194 53.7083 14.7916 52.1249C15.7638 50.5416 17.0555 49.3333 18.6666 48.4999C22.111 46.7777 25.611 45.486 29.1666 44.6249C32.7221 43.7638 36.3333 43.3333 39.9999 43.3333C43.6666 43.3333 47.2777 43.7638 50.8333 44.6249C54.3888 45.486 57.8888 46.7777 61.3333 48.4999C62.9444 49.3333 64.236 50.5416 65.2083 52.1249C66.1805 53.7083 66.6666 55.4444 66.6666 57.3333V66.6666H13.3333ZM19.9999 59.9999H59.9999V57.3333C59.9999 56.7221 59.8471 56.1666 59.5416 55.6666C59.236 55.1666 58.8333 54.7777 58.3333 54.4999C55.3333 52.9999 52.3055 51.8749 49.2499 51.1249C46.1944 50.3749 43.111 49.9999 39.9999 49.9999C36.8888 49.9999 33.8055 50.3749 30.7499 51.1249C27.6944 51.8749 24.6666 52.9999 21.6666 54.4999C21.1666 54.7777 20.7638 55.1666 20.4583 55.6666C20.1527 56.1666 19.9999 56.7221 19.9999 57.3333V59.9999ZM39.9999 33.3333C41.8333 33.3333 43.4027 32.6805 44.7083 31.3749C46.0138 30.0694 46.6666 28.4999 46.6666 26.6666C46.6666 24.8333 46.0138 23.2638 44.7083 21.9583C43.4027 20.6527 41.8333 19.9999 39.9999 19.9999C38.1666 19.9999 36.5971 20.6527 35.2916 21.9583C33.986 23.2638 33.3333 24.8333 33.3333 26.6666C33.3333 28.4999 33.986 30.0694 35.2916 31.3749C36.5971 32.6805 38.1666 33.3333 39.9999 33.3333Z" fill="#545456" fill-opacity="0.34"/>
</svg>
