<svg width="25" height="28" viewBox="0 0 25 28" fill="none" xmlns="http://www.w3.org/2000/svg">
<mask id="mask0_161_464" style="mask-type:luminance" maskUnits="userSpaceOnUse" x="0" y="0" width="25" height="28">
<path d="M0 0H25V27.5H0V0Z" fill="white"/>
</mask>
<g mask="url(#mask0_161_464)">
<path d="M10.0641 3.44367C10.1999 2.76417 10.3153 2.11848 10.4649 1.47989C10.5301 1.21841 10.6316 0.967602 10.7694 0.727466C10.8293 0.599394 10.9137 0.485552 11.0238 0.383272C11.1338 0.281881 11.262 0.200057 11.4084 0.1378C11.5548 0.0755419 11.7098 0.0364087 11.8733 0.0212891C12.0368 0.00616952 12.1981 0.0159527 12.3574 0.0506391C12.9056 0.1378 13.4495 0.241858 13.9945 0.340581C14.2841 0.386829 14.5779 0.427741 14.8707 0.454423C15.5375 0.500671 15.8132 0.858207 15.6668 1.40963C15.4959 2.04288 15.3634 2.68858 15.2202 3.33072C15.2105 3.43922 15.2105 3.54684 15.2202 3.65535C15.6316 3.72294 16.0334 3.77452 16.4245 3.85635C17.4963 4.04846 18.5328 4.33128 19.5341 4.70483C20.2084 4.98588 20.8314 5.33185 21.402 5.74186C22.4247 6.44359 23.2529 7.27784 23.8876 8.24639C24.1986 8.71865 24.4241 9.2176 24.5662 9.74323C24.7083 10.268 24.7596 10.7998 24.7211 11.337C24.7211 11.5754 24.6869 11.8111 24.6517 12.0459C24.6367 12.1891 24.5897 12.3234 24.5085 12.4505C24.3717 12.664 24.3247 12.8908 24.3653 13.13C24.5277 15.0004 24.3909 16.8566 23.9539 18.6967C23.5884 20.271 22.912 21.7465 21.9257 23.1241C21.4811 23.7334 20.9896 24.315 20.4488 24.8673C20.1186 25.2071 19.7521 25.5175 19.3503 25.7994C18.9485 26.0805 18.5179 26.3268 18.0584 26.5394C17.5999 26.752 17.1201 26.9263 16.6211 27.0615C16.1221 27.1967 15.6123 27.2918 15.0909 27.3461C13.5232 27.5213 11.9598 27.4946 10.4029 27.2669C9.02332 27.0802 7.71001 26.7253 6.46188 26.2041C5.78866 25.9355 5.15711 25.6118 4.5651 25.2329C3.97416 24.8549 3.43666 24.4289 2.95258 23.9557C2.46957 23.4835 2.04961 22.9738 1.69483 22.4277C1.33899 21.8817 1.05581 21.3116 0.845291 20.7157C0.456319 19.7204 0.223363 18.7012 0.146424 17.6562C0.0246025 16.3532 2.45795e-05 15.0485 0.0737582 13.7428C0.162452 12.9024 0.321674 12.0717 0.551425 11.2499C0.579208 11.1672 0.5931 11.0835 0.5931 10.9973C0.5931 10.9146 0.561042 10.8407 0.499063 10.7767C0.371899 10.6726 0.274656 10.5508 0.209471 10.4121C0.143218 10.2733 0.114365 10.1292 0.121846 9.9807C0.0887188 9.29053 0.223363 8.62438 0.526847 7.98135C0.872006 7.25561 1.32296 6.57789 1.87863 5.9482C2.65123 5.17265 3.58306 4.56342 4.6709 4.1205C4.75852 4.07692 4.85256 4.04223 4.94339 4.00132C5.67859 3.6758 6.4576 3.46324 7.28257 3.36362C8.10646 3.26401 8.92608 3.28269 9.74249 3.42055C9.86538 3.42588 9.95194 3.44367 10.0641 3.44367ZM22.7389 13.4093C22.6694 13.4191 22.601 13.4324 22.5326 13.4493C21.4469 13.7677 20.3292 13.918 19.1783 13.9029C17.5764 13.9029 15.9703 13.8736 14.3685 13.8531C12.4931 13.8416 10.6519 13.6308 8.84273 13.2225C7.0603 12.8081 5.31526 12.3056 3.60657 11.715C3.15561 11.5612 2.69825 11.4242 2.24516 11.2703C2.24516 11.2881 2.2099 11.2997 2.20669 11.3175C1.98977 12.0921 1.82841 12.8739 1.72155 13.6646C1.63499 14.9319 1.64995 16.1984 1.76643 17.4649C1.83802 18.5206 2.0806 19.5479 2.49629 20.5476C3.48795 22.9881 5.52899 24.5392 8.37468 25.4223C9.35245 25.7167 10.3591 25.9106 11.3935 26.0031C12.8692 26.1676 14.3311 26.1045 15.778 25.8146C16.3401 25.6989 16.8712 25.521 17.3713 25.2791C17.8724 25.0372 18.3223 24.7428 18.7209 24.3942C19.5769 23.64 20.2982 22.8048 20.8838 21.8888C21.4694 20.9727 21.8979 20.0086 22.1704 18.9956C22.3809 18.2102 22.5422 17.4187 22.6555 16.6191C22.7902 15.551 22.8179 14.481 22.7389 13.4093ZM1.76963 9.5449C2.18532 9.70143 2.53048 9.83573 2.88312 9.96914C4.64204 10.6246 6.44157 11.1876 8.28385 11.6572C9.19857 11.884 10.1304 12.0752 11.0761 12.238C12.5262 12.4461 13.9859 12.5359 15.4574 12.5084C16.853 12.5084 18.2497 12.5288 19.6463 12.5288C20.7513 12.4977 21.8092 12.2949 22.819 11.9214C22.8821 11.8973 22.943 11.8689 23.0007 11.8369C23.1193 11.2677 23.1086 10.7002 22.9707 10.1346C22.8329 9.56891 22.5764 9.04239 22.2014 8.55679C21.6916 7.87551 21.0644 7.27873 20.3195 6.76733C19.7297 6.32797 19.0671 5.98644 18.3298 5.74453C17.1469 5.3612 15.9233 5.11039 14.6613 4.9921C14.4176 4.99388 14.2135 4.92006 14.05 4.76886C13.7679 4.51806 13.6066 4.22189 13.5692 3.87947C13.5499 3.40454 13.5937 2.93405 13.6974 2.46712C13.754 2.22076 13.8096 1.97351 13.8652 1.71202L12.165 1.40963C12.071 1.78495 11.9663 2.12203 11.9075 2.46712C11.7985 3.08613 11.729 3.70782 11.6243 4.32417C11.6211 4.37753 11.6104 4.4309 11.5922 4.48248C11.5741 4.53406 11.5495 4.58387 11.5174 4.63101C11.4854 4.67726 11.448 4.72084 11.4042 4.76086C11.3604 4.79999 11.3112 4.83557 11.2578 4.86581C11.2043 4.89605 11.1477 4.92095 11.0868 4.93963C11.0259 4.95919 10.9639 4.97254 10.8998 4.97965C10.8357 4.98677 10.7705 4.98766 10.7064 4.98232C10.6423 4.97698 10.5792 4.96631 10.5172 4.94852C10.1165 4.87292 9.72219 4.78309 9.31719 4.73685C8.3672 4.59099 7.43644 4.65146 6.52386 4.9165C5.58562 5.22423 4.72005 5.6378 3.92715 6.15721C3.6974 6.31285 3.48795 6.48628 3.29881 6.6775C2.68329 7.32498 2.22486 8.04272 1.92351 8.82983C1.84978 9.06463 1.79849 9.30299 1.76963 9.5449ZM14.8921 17.8074C14.9081 17.7202 14.9039 17.633 14.8793 17.5459C14.8547 17.4596 14.812 17.3804 14.751 17.3075C14.6901 17.2346 14.6153 17.1741 14.5256 17.1252C14.4369 17.0772 14.3396 17.0434 14.2349 17.0256C14.1302 17.0122 14.0255 17.0158 13.9218 17.0354C13.8171 17.0549 13.722 17.0896 13.6333 17.1403C13.5457 17.1901 13.4719 17.2524 13.4132 17.3262C13.3533 17.3991 13.3116 17.4801 13.2892 17.5663C13.2721 17.6215 13.2689 17.6793 13.2475 17.7353C13.2144 17.8251 13.1695 17.9114 13.115 17.9932C12.8692 18.3107 12.5465 18.558 12.1479 18.7377C11.9289 18.8444 11.6959 18.872 11.4501 18.8213C11.2952 18.7964 11.1488 18.7537 11.0088 18.6932C10.8688 18.6327 10.7427 18.5571 10.6294 18.4664C10.5151 18.3757 10.42 18.2734 10.3409 18.1604C10.2629 18.0466 10.2052 17.9265 10.1689 17.7985C10.1229 17.6624 10.1026 17.5085 10.0609 17.3831C10.0075 17.1759 9.86752 17.0229 9.64205 16.9242C9.51488 16.8637 9.3781 16.8361 9.2317 16.8415C9.0853 16.8468 8.95173 16.8842 8.83204 16.9535C8.69633 17.0291 8.59695 17.1305 8.5339 17.2559C8.46978 17.3813 8.45376 17.5112 8.48261 17.6446C8.49971 17.8607 8.54672 18.0724 8.62473 18.2787C8.70167 18.4851 8.8064 18.6816 8.9389 18.8675C9.07248 19.0534 9.22956 19.2242 9.41016 19.3798C9.59182 19.5346 9.79165 19.6706 10.0118 19.7863C10.3398 19.9846 10.7032 20.1153 11.1007 20.1785C11.4993 20.2425 11.8947 20.2327 12.2879 20.1491C12.5583 20.0815 12.8179 19.9908 13.0669 19.8779C13.3148 19.764 13.5457 19.6297 13.7594 19.475C13.9731 19.3211 14.1644 19.1494 14.3343 18.9609C14.5042 18.7723 14.6474 18.5704 14.766 18.357C14.8205 18.1756 14.8622 17.9923 14.8921 17.8074ZM16.2877 17.1537C16.292 17.231 16.3155 17.3031 16.3582 17.3715C16.4117 17.4845 16.4971 17.577 16.6158 17.6482C16.7333 17.7193 16.8647 17.7593 17.0101 17.7664C17.1618 17.7842 17.305 17.7647 17.4418 17.7077C17.5786 17.6508 17.6833 17.5672 17.757 17.456C17.8233 17.3662 17.8671 17.2693 17.8906 17.1652C17.9665 16.7561 18.0434 16.3461 18.0926 15.9334C18.1075 15.848 18.1033 15.7635 18.0787 15.6799C18.053 15.5963 18.0103 15.5189 17.9494 15.4496C17.8885 15.3793 17.8137 15.3215 17.726 15.2761C17.6373 15.2308 17.5422 15.2014 17.4397 15.1872C17.056 15.1232 16.6895 15.3091 16.4907 15.7244C16.3646 16.1949 16.2962 16.6716 16.2845 17.1537H16.2877ZM7.74634 15.2272C7.75275 15.1899 7.75275 15.1516 7.74634 15.1143C7.73031 15.0413 7.70146 14.9729 7.65765 14.9079C7.6149 14.843 7.5604 14.7861 7.49522 14.7363C7.43003 14.6865 7.3563 14.6465 7.27508 14.6162C7.19387 14.5869 7.10838 14.5691 7.01969 14.562C6.93206 14.5557 6.84444 14.562 6.75895 14.5798C6.67239 14.5984 6.59225 14.6278 6.51851 14.6678C6.44371 14.7087 6.37959 14.7585 6.32616 14.8163C6.27167 14.875 6.23106 14.94 6.20327 15.0093C6.16801 15.1 6.14343 15.1917 6.12954 15.2859C6.07718 15.5759 6.02482 15.8667 5.97673 16.1575C5.95536 16.2696 5.94574 16.3834 5.94788 16.4973C5.94895 16.5755 5.96604 16.652 5.9981 16.7259C6.03123 16.7988 6.07825 16.8664 6.13916 16.926C6.20007 16.9864 6.27167 17.0354 6.35288 17.0745C6.43516 17.1136 6.52172 17.1403 6.61469 17.1537C6.713 17.1625 6.80917 17.1572 6.90428 17.1385C6.99938 17.119 7.08808 17.0869 7.16929 17.0416C7.25051 16.9962 7.32103 16.9411 7.37981 16.8753C7.43751 16.8103 7.48026 16.7383 7.50911 16.66C7.64589 16.1895 7.72497 15.7119 7.74634 15.2272Z" fill="#744C28"/>
</g>
</svg>
